<?xml version="1.0" encoding="UTF-8"?>
<svg id="Layer_1" data-name="Layer 1" xmlns="http://www.w3.org/2000/svg" viewBox="0 0 132.45 133.56">
  <defs>
    <style>
      .cls-1 {
        fill: #23b713;
        stroke-width: 0px;
      }
    </style>
  </defs>
  <path class="cls-1" d="m38.25,25.68c-.57-.88-1.35-1.29-2.2-1.58-.65-.22-1.32-.39-1.99-.53-3.57-.72-6.33-2.63-8.21-5.67-2.77-4.48-3.46-9.31-2.02-14.38.26-.9.7-1.8,1.23-2.58.76-1.11,1.86-1.24,2.95-.43.54.4,1.03.91,1.45,1.43.75.94,1.43,1.93,2.15,2.9,1.87,2.51,4.09,4.64,6.88,6.13,4.88,2.61,9.91,2.62,15.01.74,2.47-.91,4.98-1.64,7.58-2.07,5.76-.95,11.37-.29,16.85,1.61,1.95.67,3.89,1.31,5.96,1.58,4.33.56,8.28-.4,11.86-2.84,2.67-1.82,4.78-4.16,6.51-6.86.43-.67.83-1.38,1.35-1.99,1.28-1.51,3.25-1.46,4.45.12.38.5.68,1.11.82,1.71.78,3.46,1.02,6.94.06,10.42-1.09,3.95-3.53,6.88-7.14,8.82-1.37.74-2.89,1.22-4.35,1.79-.71.28-1.45.49-2.17.75-.4.15-.72.41-.62.9.1.53.41.91.96.92.43,0,.89-.08,1.31-.21,3.59-1.09,7.22-2.08,10.76-3.33,5.73-2.02,11.29-1.7,16.71.91,1.7.82,3.35,1.78,4.93,2.81,1.37.9,2.38,2.17,2.84,3.77.74,2.59.25,5.97-2.55,8.06-.7.53-1.47,1.01-2.28,1.36-3.59,1.56-7.32,2.54-11.27,2.5-4.52-.04-8.57-1.46-12.22-4.05-.46-.33-.9-.69-1.4-.95-1.28-.67-2.6.03-2.76,1.45-.04.35.01.72.03,1.07.47,7.72-.85,15.03-5.13,21.64-.83,1.27-1.73,2.52-2.76,3.63-3.06,3.31-3.76,7.14-2.77,11.36.3,1.28.75,2.52,1.22,3.76,1.89,5.02,2.25,10.2,1.5,15.45-.48,3.37-2.18,6.24-4.47,8.75-4.19,4.59-9.44,7.44-15.45,9-3.32.86-6.7,1.19-10.09.49-1.18-.24-2.33-.65-3.46-1.09-3.29-1.27-6.41-2.86-9.22-5-5.97-4.54-8.89-10.49-8.54-17.97.17-3.71,1.09-7.25,2.34-10.72.6-1.66,1.05-3.35,1.17-5.12.24-3.41-.8-6.37-3.11-8.91-1.99-2.18-3.63-4.59-4.89-7.25-1.67-3.55-2.65-7.29-2.95-11.17-.19-2.5-.13-5.02-.17-7.53-.01-.75-.09-1.43-.82-1.87-.77-.46-1.48-.26-2.15.19-.6.41-1.17.86-1.78,1.24-7.75,4.84-15.64,4.76-23.56.48-1.08-.58-2.06-1.43-2.89-2.33-2.01-2.19-2.24-4.89-.68-7.4.56-.91,1.26-1.79,2.09-2.46,4.21-3.44,9.02-5.43,14.55-5.47,2.2-.02,4.34.4,6.43,1.07,3.7,1.17,7.4,2.3,11.11,3.44.42.13.85.26,1.29.32.74.11,1.34-.13,1.76-.86Zm28.99-6.58c-4.61.02-8.49,1.12-12.1,3.19-1.73.99-3.24,2.25-4.45,3.83-2.01,2.64-2.89,5.57-2.37,8.88.28,1.81.9,3.5,1.96,4.97.91,1.26,1.91,2.48,3.03,3.57,3.2,3.11,5.63,6.67,6.86,10.97.64,2.24.82,4.55.93,6.86.18,3.43.31,6.85-.09,10.28-.54,4.65-2.26,8.77-5.4,12.32-.82.92-1.57,1.95-2.16,3.02-2.37,4.3-1.9,9.26,1.36,12.95,7.77,8.8,20.55,6.53,25.47-2.27,2.11-3.78,2.14-7.46-.24-11.08-.88-1.33-1.89-2.59-2.95-3.79-1.9-2.16-3.18-4.59-3.76-7.4-1.26-6.09-1.27-12.22-.38-18.33.82-5.62,3.4-10.34,7.98-13.92,1.63-1.27,2.68-2.97,3.34-4.9.6-1.76.72-3.58.88-5.42.33-3.76-1.09-6.75-4.12-8.93-4.22-3.04-8.95-4.73-13.8-4.8Zm-22.3,34.99c-.02,2.21,1.29,3.6,3.43,3.65,2.09.05,3.69-1.53,3.67-3.62-.02-1.95-1.5-3.48-3.39-3.51-2.31-.04-3.69,1.26-3.71,3.47Zm40.51-3.46c-2.28-.08-3.66,1.19-3.75,3.46-.08,2.18,1.24,3.6,3.41,3.67,2.09.06,3.53-1.36,3.58-3.53.05-2.05-1.28-3.52-3.24-3.59Z"/>
  <path class="cls-1" d="m97.01,125.33c1.64-.15,2.79-1.16,4.16-1.6,1.38-.44,2.71-1.02,4.23-1.6.18.78.35,1.49.5,2.21.26,1.29.41,2.61.77,3.87.49,1.72,1.13,3.39,1.71,5.08-.76.25-79.01.4-83.5.11.1-.26.16-.52.29-.74,1.56-2.64,1.81-5.44.91-8.31-.46-1.48-1.14-2.89-1.73-4.33-.16-.39-.36-.77-.63-1.33.61.12,1.03.19,1.45.3,2.8.74,5.23,2.14,7.25,4.18,1.04,1.05,1.92,2.25,2.89,3.36.24.28.62.69.88.66.36-.05.85-.41.97-.74.35-1.01.68-2.06.77-3.12.1-1.22-.07-2.47-.13-3.7-.05-.95-.12-1.9-.19-2.99.4.14.69.16.88.31,1.08.83,2.22,1.61,3.17,2.57.98,1,1.74,2.2,2.63,3.28.51.62,1.02,1.25,1.63,1.76.85.71,1.54.66,2.4-.04.34-.28.61-.63.91-.96.3-.33.55-.7.88-.99.42-.36.9-.66,1.39-1.01.87.37,1.21,1.03,1.24,1.89.04,1.12.51,2.09,1.12,2.99.71,1.06,1.53,1.24,2.58.51.68-.48,1.29-1.08,1.87-1.7,2.36-2.53,4.88-4.89,7.67-6.96.26-.19.52-.37.79-.55.05-.03.15,0,.25,0,.18,1.05.29,2.12.54,3.15.62,2.61,2.18,4.59,4.38,6.11.3.2.63.37.96.51,1.06.43,1.94.33,2.62-.56.62-.81,1.17-1.74,1.47-2.71.36-1.17.51-2.42.61-3.64.2-2.29,1.72-3.31,3.93-2.51.63.23,1.25.6,1.75,1.04,1.09.95,2.13,1.94,2.88,3.21.86,1.46,1.67,1.5,3.07.5,1.34-.96,2.76-1.8,4.16-2.68.27-.17.58-.28.89-.37,1.03-.33,1.68-.08,1.96.96.32,1.15.44,2.34.65,3.52.05.31.08.62.14,1.06Z"/>
  <path class="cls-1" d="m70.88,101.05c.57-.74,1.02-1.29,1.43-1.86.89-1.23,1.99-2.01,3.59-2.12,1.35-.1,2.13-1.08,2.07-2.34-.07-1.4-.97-2.38-2.29-2.48-2.49-.2-4.62,1.31-5.24,3.69-.43,1.64-.16,3.23.45,5.11Zm-7.77.2c.78-2.64,1-5.02-.56-7.23-1.11-1.57-2.76-1.99-4.61-1.69-1.18.19-1.81,1.12-1.82,2.46,0,1.3.47,1.96,1.76,2.15,1.9.29,3.24,1.33,4.27,2.85.29.42.56.85.96,1.46Z"/>
  <path class="cls-1" d="m70.88,101.05c-.61-1.88-.88-3.47-.45-5.11.63-2.38,2.76-3.88,5.24-3.69,1.32.1,2.23,1.08,2.29,2.48.06,1.25-.72,2.24-2.07,2.34-1.6.11-2.71.9-3.59,2.12-.41.57-.86,1.12-1.43,1.86Z"/>
  <path class="cls-1" d="m63.1,101.25c-.4-.61-.68-1.04-.96-1.46-1.03-1.52-2.37-2.56-4.27-2.85-1.29-.19-1.76-.85-1.76-2.15,0-1.34.64-2.27,1.82-2.46,1.84-.3,3.49.12,4.61,1.69,1.56,2.21,1.35,4.59.56,7.23Z"/>
</svg>