<?xml version="1.0" encoding="UTF-8"?>
<svg id="Layer_1" data-name="Layer 1" xmlns="http://www.w3.org/2000/svg" viewBox="0 0 600.72 179.38">
  <defs>
    <style>
      .cls-1 {
        fill: #23b713;
        stroke-width: 0px;
      }
    </style>
  </defs>
  <path class="cls-1" d="m56.45,34.5c-.84-1.19-2-1.73-3.25-2.12-.96-.3-1.95-.52-2.94-.71-5.27-.97-9.34-3.53-12.11-7.62-4.08-6.02-5.11-12.5-2.98-19.31.38-1.21,1.03-2.41,1.82-3.46,1.11-1.49,2.74-1.67,4.35-.58.8.54,1.52,1.22,2.14,1.92,1.11,1.26,2.11,2.6,3.17,3.89,2.76,3.37,6.03,6.23,10.15,8.24,7.2,3.51,14.62,3.51,22.15.99,3.65-1.22,7.35-2.21,11.19-2.78,8.5-1.27,16.77-.39,24.86,2.16,2.87.91,5.75,1.76,8.8,2.12,6.4.75,12.22-.54,17.5-3.81,3.94-2.44,7.06-5.59,9.6-9.21.64-.91,1.23-1.85,1.99-2.67,1.89-2.03,4.8-1.96,6.57.17.56.67,1,1.49,1.2,2.3,1.15,4.65,1.51,9.33.09,14-1.61,5.31-5.21,9.24-10.54,11.84-2.03.99-4.27,1.64-6.43,2.4-1.05.37-2.15.65-3.21,1.01-.59.2-1.06.55-.92,1.21.14.71.6,1.22,1.42,1.23.64,0,1.31-.11,1.93-.28,5.3-1.46,10.66-2.79,15.88-4.47,8.46-2.71,16.66-2.28,24.67,1.22,2.51,1.1,4.94,2.39,7.27,3.77,2.03,1.2,3.51,2.92,4.19,5.07,1.09,3.48.36,8.01-3.77,10.83-1.04.71-2.17,1.36-3.36,1.83-5.29,2.1-10.8,3.41-16.64,3.36-6.67-.06-12.65-1.96-18.04-5.43-.68-.44-1.33-.93-2.06-1.28-1.89-.9-3.83.04-4.07,1.95-.06.47.02.96.05,1.44.69,10.36-1.25,20.18-7.58,29.06-1.22,1.71-2.56,3.38-4.08,4.88-4.51,4.44-5.55,9.59-4.09,15.26.44,1.71,1.11,3.39,1.8,5.04,2.79,6.74,3.32,13.7,2.21,20.75-.71,4.52-3.21,8.38-6.59,11.76-6.18,6.17-13.93,10-22.8,12.09-4.9,1.16-9.88,1.6-14.89.66-1.74-.33-3.44-.88-5.1-1.46-4.86-1.7-9.46-3.85-13.61-6.72-8.81-6.1-13.12-14.09-12.61-24.13.25-4.98,1.6-9.73,3.45-14.39.88-2.23,1.55-4.5,1.73-6.87.35-4.57-1.18-8.56-4.59-11.96-2.94-2.93-5.36-6.16-7.21-9.74-2.46-4.76-3.92-9.79-4.36-15-.28-3.36-.19-6.74-.24-10.11-.02-1-.13-1.92-1.22-2.51-1.14-.61-2.18-.35-3.17.26-.89.55-1.72,1.16-2.63,1.67-11.44,6.5-23.08,6.39-34.78.64-1.59-.78-3.05-1.92-4.27-3.13-2.96-2.94-3.31-6.56-1.01-9.94.83-1.22,1.87-2.4,3.08-3.31,6.21-4.62,13.31-7.29,21.47-7.35,3.25-.02,6.4.54,9.5,1.43,5.45,1.57,10.93,3.09,16.39,4.62.63.18,1.26.35,1.91.43,1.09.15,1.97-.18,2.6-1.15Zm42.78-8.84c-6.8.03-12.53,1.51-17.85,4.28-2.56,1.33-4.79,3.02-6.57,5.15-2.96,3.54-4.26,7.49-3.5,11.93.42,2.42,1.32,4.7,2.89,6.68,1.34,1.69,2.82,3.33,4.47,4.79,4.73,4.18,8.31,8.96,10.12,14.74.95,3.01,1.2,6.11,1.38,9.21.26,4.6.46,9.2-.13,13.8-.8,6.24-3.34,11.78-7.97,16.54-1.21,1.24-2.31,2.61-3.19,4.06-3.5,5.77-2.81,12.44,2,17.4,11.47,11.82,30.33,8.77,37.59-3.05,3.12-5.07,3.16-10.02-.35-14.88-1.29-1.79-2.79-3.48-4.35-5.09-2.8-2.9-4.7-6.17-5.55-9.93-1.85-8.18-1.87-16.41-.55-24.62,1.21-7.54,5.02-13.89,11.78-18.7,2.41-1.71,3.95-3.98,4.93-6.58.89-2.36,1.06-4.81,1.3-7.27.49-5.05-1.6-9.07-6.08-11.99-6.23-4.08-13.21-6.36-20.37-6.45Zm-32.91,47c-.03,2.97,1.9,4.83,5.06,4.91,3.08.07,5.45-2.05,5.42-4.86-.03-2.62-2.21-4.67-5.01-4.72-3.41-.05-5.45,1.69-5.48,4.67Zm59.79-4.65c-3.36-.11-5.4,1.6-5.53,4.64-.12,2.93,1.82,4.84,5.03,4.92,3.08.08,5.21-1.83,5.28-4.74.07-2.75-1.89-4.72-4.79-4.82Z"/>
  <path class="cls-1" d="m237.65,152.52c-.06.48-.12.75-.12,1.02.04,5.3,0,10.61.16,15.91.14,5.01-1.61,6.7-6.58,6.11-1.56-.18-3.13-.18-4.7-.28-1.04-.07-2.1-.1-3.13-.27-5.13-.88-7.4-3.36-7.79-8.57-.21-2.76-.3-5.52-.41-8.28-.44-10.38-1.46-20.71-3.02-30.98-1-6.59-.98-13.25-1.07-19.9-.17-13.15-.45-26.29-.74-39.44-.26-11.44-.28-22.87,1.08-34.25.25-2.1.89-4.16,1.48-6.2.42-1.45,1.36-2.58,2.95-3.52.31,3.07-.1,5.93.31,9.1,1.06-.93,1.01-1.82,1.15-2.65.2-1.25.45-2.48.68-3.72.07-.36.2-.72.17-1.08-.29-3.4-.22-3.86,1.31-7.37,1.87,1.84,2.64,3.94,2.14,6.5-.29,1.46-.27,1.47.58,2.87.78-3.49,1.53-6.81,2.31-10.3,1.61.68,2.86.18,4.18-.4,1.81-.79,3.08-.26,3.77,1.57.41,1.09.5,2.31.63,3.48.09.77.02,1.56.02,2.35.15.04.29.08.44.12.38-.59.78-1.17,1.15-1.77,2.19-3.56,4.21-7.25,6.62-10.66,1.93-2.73,4.12-5.34,6.55-7.63,4.54-4.27,9.99-5.41,15.81-3.1,8.7,3.46,16.2,8.71,21.94,16.18,3.32,4.32,4.88,9.37,5.43,14.75.91,8.95-.27,17.75-2.07,26.48-2.65,12.89-7.42,25.05-13.23,36.8-4.04,8.17-8.33,16.22-12.62,24.26-2.51,4.7-5.55,9.04-9.32,12.85-1.6,1.61-1.65,2.45-.32,4.33,6.65,9.46,14.33,18.02,22.85,25.83.77.7,1.69,1.24,2.47,1.94,1.06.95,1.61,2.13,1.23,3.61-.38,1.49-1.42,2.16-2.8,2.59-1.63.5-3.26,1.04-4.81,1.74-5.28,2.4-10.49,2.93-15.65-.26-2.65-1.64-4.76-3.86-6.57-6.36-3.39-4.69-7.54-8.69-11.57-12.8-.19-.19-.45-.3-.89-.59Zm-.74-36.97c.16.05.32.1.49.15.4-.6.85-1.18,1.21-1.8,3.33-5.75,6.8-11.43,9.95-17.29,9.86-18.36,17.13-37.63,20.18-58.35.82-5.59,1.01-11.15-.58-16.66-.26-.88-.47-1.77-1.53-2-1.06-.23-1.7.43-2.23,1.18-1.93,2.75-4,5.42-5.7,8.31-8.51,14.52-13.84,30.23-17.16,46.67-1.93,9.53-3.1,19.16-3.92,28.84-.31,3.64-.47,7.29-.69,10.94Z"/>
  <path class="cls-1" d="m588.28,134.96c1.05-6.7,1.96-13.43,3.23-20.1.54-2.83,1.68-5.57,2.79-8.25,1.75-4.23,2.9-8.45,1.38-13-.09-.28-.1-.59-.14-.88-.33-2.29-1.08-2.78-3.28-2.17-1.74.49-3,1.92-3.07,3.69-.14,3.81-1.32,7.33-2.85,10.76-1.07,2.38-2.31,4.7-3.27,7.13-.85,2.14-1.45,4.38-2.09,6.6-.4,1.39-.47,2.72.5,4.03.68.92.43,2.07-.3,2.92-.74.85-.9,1.81-1.05,2.86-.83,5.82-2.79,11.27-5.67,16.7-1.3-.94-1.79-2.08-1.64-3.47.09-.88.41-1.74.56-2.63.16-.93.3-1.89-.81-2.85-2.53,6.69-5,13.21-7.6,20.08,1.47-.46,1.9-1.41,2.44-2.24.53-.81.96-1.73,1.64-2.39.58-.57,1.46-.83,2.35-1.31.61,2.21.2,4.01-.43,5.77-.63,1.76-1.4,3.46-2.05,5.21-.56,1.52-1.07,3.07-.6,4.86,1.19-.26,1.54-1.22,2.14-1.92.72-.84,1.42-1.77,2.32-2.37.7-.47,1.77-.65,2.49.15.72.8.74,1.73.14,2.68-1.55,2.47-3.5,4.35-6.37,5.37-3.95,1.4-7.82,3.04-12.04,3.43-5.21.48-10.43.88-15.65,1.27-2.42.18-4.23-1.11-5.5-2.93-1.96-2.81-3.87-5.69-5.45-8.72-3.03-5.83-4.51-12.16-5.32-18.65-1.53-12.18-2.17-24.4-1.86-36.67.47-18.88,3.05-37.49,7.41-55.86.47-1.96.94-3.92,1.5-5.86.27-.92.62-1.85,1.12-2.67,1.03-1.7,2.6-2.43,4.59-2.04.95.19,1.87.52,2.8.78,1.66.46,2.73.14,3.69-1.29.54-.8.87-1.72,1.3-2.59,1.62-3.28,3.17-6.6,4.9-9.81.84-1.56,1.96-3,3.1-4.39,3.11-3.8,7.23-5.51,12.08-5.24,5.55.31,10.98,1.42,16.16,3.49,9.12,3.64,14.22,10.65,16.27,19.98.88,4,1.45,8.1,1.75,12.18.83,11.41,1.15,22.84.49,34.27-.27,4.77-.89,9.52-1.39,14.27-.38,3.64-.69,7.29-1.26,10.9-1.1,7.03-3.52,13.57-7.64,19.43-.42.59-.89,1.15-1.34,1.72-.15-.07-.31-.13-.46-.2Zm-45.19,9.48c.35-.25.52-.37.7-.49,1.52-1.11,2.13-.99,2.9.67.31.67.52,1.4.72,2.11.98,3.36,1.93,6.74,2.91,10.1.74,2.54,2.81,3.33,4.99,1.78.82-.58,1.6-1.42,2.04-2.32,2.32-4.76,4.83-9.47,6.7-14.41,5.46-14.4,8.45-29.41,9.79-44.71.79-8.99,1.18-18.04,1.35-27.06.16-8.51-.21-17.02-.35-25.54-.02-1.13-.11-2.24-1.38-2.93-.4.33-.83.62-1.17.98-1.6,1.75-2.52,3.89-3.21,6.1-1.88,6.06-3.63,12.15-5.48,18.22-1.36,4.45-3.05,8.76-5.91,12.49-2.85,3.72-4.99,7.81-6.35,12.28-1.63,5.35-3.22,10.72-4.63,16.14-.44,1.69-.46,3.56-.31,5.32.36,4.05,2.41,7.31,5.26,10.12.51.5,1.01,1.01,1.45,1.45-1.22,1.94-2.94,2.33-4.9,2.51-4.66.45-6.78,3.03-6.49,7.67.03.45.09.89.15,1.33.39,2.65.78,5.31,1.21,8.19Z"/>
  <path class="cls-1" d="m480.71,135.45c.64-7.84,1.22-15.12,1.82-22.45-4.58,1.41-8,8.73-9.04,19.31,1.11-1.3,1.63-3.1,3.87-3.04.05.85.13,1.71.15,2.57.11,7.79-1.47,15.3-3.96,22.62-1.63,4.8-3.53,9.52-5.31,14.27-.87,2.32-2.54,3.84-4.8,4.73-2.75,1.09-5.64,1.48-8.58,1.39-2.03-.06-3.61-1.1-4.68-2.71-.99-1.48-1.83-3.09-2.52-4.73-4.38-10.37-7.37-21.17-9.27-32.23-2.06-11.99-3.77-24.05-5.48-36.1-1.56-10.94-2.93-21.91-4.35-32.87-1.43-11.11-2.81-22.23-4.22-33.34-.51-4-1.09-7.99-1.58-11.99-.16-1.26-.25-2.54-.2-3.8.09-2.11,1.25-3.3,3.32-3.06,8.12.94,14.83,4.08,18.26,12.12,1.42,3.33,2.09,6.85,2.63,10.4,2.62,17.35,5.2,34.71,7.8,52.07,2.03,13.51,4.14,27.02,6.07,40.55.69,4.8.96,9.66,1.44,14.49.24,2.44-.19,4.73-1.17,6.98-.75,1.71-1.37,3.51-.6,5.42.1.26.27.49.65,1.16.48-1.38.86-2.37,1.19-3.38,3.02-9.09,5.21-18.39,7.14-27.75,5.95-28.81,11.9-57.62,17.85-86.43,2.12-10.24,4.25-20.47,6.38-30.7.02-.07.02-.15.04-.22.96-4.37,2.87-5.43,7.12-3.95,2.61.91,5.22,1.84,7.82,2.78.91.33,1.83.68,2.7,1.1,2.48,1.21,3.32,2.7,2.85,5.44-.45,2.65-1.09,5.26-1.62,7.9-3,15.01-5.87,30.05-9.01,45.03-3.48,16.59-7.16,33.13-10.83,49.68-1.55,6.97-4.76,13.02-10.37,17.65-.33.27-.68.52-1.49,1.11Z"/>
  <path class="cls-1" d="m380.95,14.51c-1.71.71-3.49,1.1-5.36,1.12-1.72.02-3.44-.02-5.17-.01-1.81,0-3.56.15-5.18,1.16-.48.3-1.25.21-1.88.17-2.86-.16-5.68.05-8.42.9-2.06.64-3.33,2.03-3.53,4.18-.16,1.78-.25,3.59-.11,5.36.49,6.27.47,12.54-.02,18.81-.03.41,0,.83,0,1.61.89-1.01,1.54-1.75,2.32-2.64,1.39,3.06,1.34,6.01.97,8.98-.1.81-.24,1.65-.55,2.4-.87,2.07-.16,4.13-.07,6.19.03.69.44,1.08,1.45.82.2-1.98.47-4.03.61-6.08.33-4.84.62-9.69.9-14.54.16-2.71,1.16-4.14,3.81-4.83,1.57-.41,2.23-1.29,2.34-2.82.17-2.38.35-4.76.62-7.13.11-.95.43-1.89.75-2.8.65-1.82,1.35-3.63,2.05-5.43.82-2.13,2.27-3.52,4.65-3.62,8.74-.35,17.5-.99,26.19.69.8.15,1.62.36,2.34.74.56.29,1.09.81,1.43,1.35.61.98.4,2.03-.17,2.98-.56.93-1.5.87-2.41.75-6.07-.83-12.2-1.03-18.31-1.39-3.56-.21-6.98.48-10.22,2.09-1.43.71-2.11,1.7-2.3,3.27-.28,2.36-.39,4.77-1.61,6.94-.27.48-.22,1.17-.23,1.76-.07,5.68-.33,11.36-.14,17.03.4,11.72,1.04,23.44,1.59,35.16.01.3.02.6.06.89.33,2.72,1.54,3.62,3.91,2.38,6.12-3.22,12.53-3.02,19.06-2.11,2.67.37,5.34.68,8.01,1.05,2.12.29,2.9.89,3.15,2.3.29,1.66-.36,2.87-2.08,3.83-.32.18-.67.34-1.02.47-8.44,3.14-16.26,7.56-24.25,11.64-3.89,1.98-5.32,4.89-4.91,9.1.66,6.69.96,13.42,1.76,20.09.96,8.08,2.2,16.13,3.47,24.17.65,4.15,1.74,4.6,5.35,2.52.94-.54,1.73-1.39,2.49-2.18.51-.53.85-1.22,1.26-1.85,1.24-1.87,2.85-2.83,5.15-2.1.14.04.29.07.44.07.06,0,.12-.07.18-.11q-.03-3.1,2.68-2.79c.89-.82,1.7-1.6,2.54-2.32,2.25-1.94,4.95-2.8,7.84-2.95,2.76-.15,5.54-.13,8.31-.06,2.46.07,3.31,1.44,2.44,3.76-.26.69-.61,1.37-1.03,1.98-3.53,5.22-7.51,10.07-12.34,14.16-7.41,6.27-15.92,9.65-25.68,9.73-5.09.04-10.17.09-15.26,0-4.77-.08-7.97-2.46-9.16-7.09-1.28-4.98-2.49-10-3.42-15.06-2.89-15.76-4.15-31.69-4.6-47.69-.18-6.35-.27-12.7-.44-19.05-.04-1.51.08-2.96.68-4.38.58-1.38.57-2.68-.52-3.96-.51-.6-.72-1.61-.74-2.44-.17-7.32-.38-14.64-.35-21.97.03-6.65.19-13.3.59-19.94.34-5.51,1.04-10.99,1.76-16.47.2-1.51.89-3.01,1.61-4.38,1.63-3.09,4.51-4.58,7.8-5.09,8.8-1.37,17.58-1.52,26.22,1.18.92.29,1.8.68,2.7,1.02,0,.16,0,.33,0,.49Zm-35.25,41.3q1.08-1.8.16-3.51c-.07,1.43-.11,2.47-.16,3.51Z"/>
  <path class="cls-1" d="m305.54,98.68c.97,1.62,1.1,3.09,1.16,4.58.1,2.31.23,4.62.38,6.93.03.39.23.77.74,1.14.63-2.87,1.27-5.73,1.91-8.62,2.04-.53,3.06.83,4.32,2.35v-20.45c-.52.26-.93.47-1.35.68-.08-.11-.23-.24-.21-.32,1.23-4.28.76-8.57.23-12.89-.26-2.14-.29-4.33-.22-6.48.08-2.53,1.04-4.82,2.67-6.76.73-.87,1-1.75.98-2.86-.06-2.69-.05-5.38,0-8.07.02-1-.25-1.73-1.11-2.25-.95-.59-1.84-1.3-2.83-1.8-1.76-.89-3.23-.36-4.01,1.46-.35.81-.47,1.72-.63,2.6-.2,1.03-.26,2.08-.51,3.09-.48,2.01-1.31,2.95-3.49,4.02-.13-.99-.31-1.92-.38-2.84-.82-10.75-1.05-21.49.31-32.22.36-2.81.84-3.27,3.64-3.48,3.26-.24,6.41.32,9.53,1.16,2.09.56,4.19,1.11,6.3,1.6,2.98.69,4.13,1.97,4.28,5.14.14,2.84.18,5.68.19,8.52.09,27.65.19,55.3.24,82.95.03,15.02,0,30.04-.08,45.07-.01,2.37-.32,4.77-.76,7.11-.49,2.64-2.2,4.37-4.81,5.1-3.79,1.06-7.68,1.36-11.56,1.06-3.74-.29-5.55-2.18-6.23-5.94-.16-.88-.22-1.78-.24-2.67-.37-14.19-.72-28.39-1.07-42.58-.12-4.71-.24-9.41-.35-14.12-.06-2.56.1-5.09,1.25-7.44.44-.9,1.05-1.71,1.7-2.75Z"/>
  <path class="cls-1" d="m143.18,168.33c2.42-.21,4.11-1.56,6.14-2.15,2.04-.59,4-1.37,6.24-2.15.26,1.04.52,2,.73,2.97.38,1.73.6,3.5,1.13,5.2.72,2.3,1.67,4.55,2.52,6.82-1.12.34-116.6.54-123.23.15.15-.36.23-.7.42-.99,2.3-3.54,2.67-7.3,1.34-11.16-.68-1.99-1.68-3.88-2.55-5.82-.24-.53-.53-1.04-.93-1.79.9.17,1.53.25,2.14.4,4.13,1,7.72,2.87,10.7,5.61,1.53,1.41,2.83,3.02,4.27,4.51.36.37.91.93,1.29.88.54-.07,1.26-.55,1.43-.99.52-1.36,1.01-2.77,1.13-4.19.15-1.64-.1-3.31-.19-4.97-.07-1.28-.17-2.55-.27-4.02.59.18,1.02.22,1.3.42,1.59,1.12,3.28,2.16,4.68,3.46,1.44,1.34,2.57,2.95,3.88,4.41.75.83,1.5,1.68,2.4,2.37,1.25.95,2.28.89,3.54-.06.5-.37.91-.85,1.34-1.29.44-.44.81-.94,1.29-1.32.62-.49,1.34-.89,2.06-1.35,1.29.5,1.79,1.38,1.84,2.54.06,1.5.75,2.81,1.65,4.02,1.05,1.42,2.26,1.66,3.8.68,1.01-.64,1.91-1.46,2.75-2.28,3.49-3.4,7.21-6.57,11.32-9.35.38-.26.77-.5,1.17-.73.08-.05.22,0,.37,0,.26,1.41.43,2.84.8,4.24.92,3.5,3.22,6.16,6.47,8.2.44.27.92.5,1.42.68,1.56.58,2.86.44,3.86-.76.91-1.09,1.73-2.34,2.17-3.64.54-1.57.75-3.24.91-4.89.3-3.07,2.54-4.45,5.8-3.37.93.31,1.84.81,2.58,1.4,1.61,1.27,3.14,2.6,4.25,4.31,1.27,1.96,2.46,2.01,4.52.67,1.98-1.29,4.08-2.42,6.14-3.59.4-.23.86-.37,1.31-.5,1.53-.44,2.47-.11,2.9,1.29.47,1.54.66,3.15.96,4.73.08.42.12.84.21,1.42Z"/>
  <path class="cls-1" d="m104.6,135.72c.84-1,1.5-1.73,2.11-2.5,1.31-1.65,2.94-2.7,5.3-2.85,1.99-.13,3.14-1.46,3.05-3.14-.1-1.88-1.43-3.19-3.38-3.33-3.67-.26-6.81,1.75-7.74,4.95-.64,2.21-.24,4.34.66,6.86Zm-11.47.27c1.16-3.54,1.47-6.74-.83-9.71-1.64-2.11-4.08-2.68-6.8-2.27-1.74.26-2.68,1.51-2.69,3.31,0,1.74.69,2.63,2.59,2.89,2.81.38,4.78,1.78,6.3,3.82.42.57.83,1.14,1.42,1.96Z"/>
  <path class="cls-1" d="m104.6,135.72c-.9-2.52-1.3-4.66-.66-6.86.92-3.2,4.07-5.21,7.74-4.95,1.95.14,3.28,1.45,3.38,3.33.09,1.68-1.06,3.01-3.05,3.14-2.36.15-4,1.2-5.3,2.85-.61.77-1.26,1.5-2.11,2.5Z"/>
  <path class="cls-1" d="m93.13,135.99c-.59-.82-1-1.4-1.42-1.96-1.52-2.04-3.49-3.44-6.3-3.82-1.9-.26-2.6-1.15-2.59-2.89,0-1.8.95-3.05,2.69-3.31,2.72-.4,5.16.16,6.8,2.27,2.3,2.97,1.99,6.17.83,9.71Z"/>
</svg>