<?xml version="1.0" encoding="UTF-8"?>
<svg id="Layer_1" data-name="Layer 1" xmlns="http://www.w3.org/2000/svg" viewBox="0 0 384 379.54">
  <defs>
    <style>
      .cls-1 {
        fill: #23b713;
        stroke-width: 0px;
      }
    </style>
  </defs>
  <path class="cls-1" d="m384,194.39c-.15.18-.29.39-.46.54-.18.15-.41.25-.6.37-.95-.83-.93-1.01.29-2.31.26.4.52.78.78,1.17v.24Z"/>
  <path class="cls-1" d="m181.2,379.54c-.13-.38-.45-.76.06-1.11.3-.21.42-.18,1.15.36-.16.25-.32.5-.47.75h-.73Z"/>
  <path class="cls-1" d="m162.6,87.79c-.57-.88-1.35-1.29-2.2-1.58-.65-.22-1.32-.39-1.99-.53-3.57-.72-6.33-2.63-8.21-5.67-2.77-4.48-3.46-9.31-2.02-14.38.26-.9.7-1.8,1.23-2.58.76-1.11,1.86-1.24,2.95-.43.54.4,1.03.91,1.45,1.43.75.94,1.43,1.93,2.15,2.9,1.87,2.51,4.09,4.64,6.88,6.13,4.88,2.61,9.91,2.62,15.01.74,2.47-.91,4.98-1.64,7.58-2.07,5.76-.95,11.37-.29,16.85,1.61,1.95.67,3.89,1.31,5.96,1.58,4.33.56,8.28-.4,11.86-2.84,2.67-1.82,4.78-4.16,6.51-6.86.43-.67.83-1.38,1.35-1.99,1.28-1.51,3.25-1.46,4.45.12.38.5.68,1.11.82,1.71.78,3.46,1.02,6.94.06,10.42-1.09,3.95-3.53,6.88-7.14,8.82-1.37.74-2.89,1.22-4.35,1.79-.71.28-1.45.49-2.17.75-.4.15-.72.41-.62.9.1.53.41.91.96.92.43,0,.89-.08,1.31-.21,3.59-1.09,7.22-2.08,10.76-3.33,5.73-2.02,11.29-1.7,16.71.91,1.7.82,3.35,1.78,4.93,2.81,1.37.9,2.38,2.17,2.84,3.77.74,2.59.25,5.97-2.55,8.06-.7.53-1.47,1.01-2.28,1.36-3.59,1.56-7.32,2.54-11.27,2.5-4.52-.04-8.57-1.46-12.22-4.05-.46-.33-.9-.69-1.4-.95-1.28-.67-2.6.03-2.76,1.45-.04.35.01.72.03,1.07.47,7.72-.85,15.03-5.13,21.64-.83,1.27-1.73,2.52-2.76,3.63-3.06,3.31-3.76,7.14-2.77,11.36.3,1.28.75,2.52,1.22,3.76,1.89,5.02,2.25,10.2,1.5,15.45-.48,3.37-2.18,6.24-4.47,8.75-4.19,4.59-9.44,7.44-15.45,9-3.32.86-6.7,1.19-10.09.49-1.18-.24-2.33-.65-3.46-1.09-3.29-1.27-6.41-2.86-9.22-5-5.97-4.54-8.89-10.49-8.54-17.97.17-3.71,1.09-7.25,2.34-10.72.6-1.66,1.05-3.35,1.17-5.12.24-3.41-.8-6.37-3.11-8.91-1.99-2.18-3.63-4.59-4.89-7.25-1.67-3.55-2.65-7.29-2.95-11.17-.19-2.5-.13-5.02-.17-7.53-.01-.75-.09-1.43-.82-1.87-.77-.46-1.48-.26-2.15.19-.6.41-1.17.86-1.78,1.24-7.75,4.84-15.64,4.76-23.56.48-1.08-.58-2.06-1.43-2.89-2.33-2.01-2.19-2.24-4.89-.68-7.4.56-.91,1.26-1.79,2.09-2.46,4.21-3.44,9.02-5.43,14.55-5.47,2.2-.02,4.34.4,6.43,1.07,3.7,1.17,7.4,2.3,11.11,3.44.42.13.85.26,1.29.32.74.11,1.34-.13,1.76-.86Zm28.99-6.58c-4.61.02-8.49,1.12-12.1,3.19-1.73.99-3.24,2.25-4.45,3.83-2.01,2.64-2.89,5.57-2.37,8.88.28,1.81.9,3.5,1.96,4.97.91,1.26,1.91,2.48,3.03,3.57,3.2,3.11,5.63,6.67,6.86,10.97.64,2.24.82,4.55.93,6.86.18,3.43.31,6.85-.09,10.28-.54,4.65-2.26,8.77-5.4,12.32-.82.92-1.57,1.95-2.16,3.02-2.37,4.3-1.9,9.26,1.36,12.95,7.77,8.8,20.55,6.53,25.47-2.27,2.11-3.78,2.14-7.46-.24-11.08-.88-1.33-1.89-2.59-2.95-3.79-1.9-2.16-3.18-4.59-3.76-7.4-1.26-6.09-1.27-12.22-.38-18.33.82-5.62,3.4-10.34,7.98-13.92,1.63-1.27,2.68-2.97,3.34-4.9.6-1.76.72-3.58.88-5.42.33-3.76-1.09-6.75-4.12-8.93-4.22-3.04-8.95-4.73-13.8-4.8Zm-22.3,34.99c-.02,2.21,1.29,3.6,3.43,3.65,2.09.05,3.69-1.53,3.67-3.62-.02-1.95-1.5-3.48-3.39-3.51-2.31-.04-3.69,1.26-3.71,3.47Zm40.51-3.46c-2.28-.08-3.66,1.19-3.75,3.46-.08,2.18,1.24,3.6,3.41,3.67,2.09.06,3.53-1.36,3.58-3.53.05-2.05-1.28-3.52-3.24-3.59Z"/>
  <path class="cls-1" d="m104.54,301.03c-.03.26-.06.4-.06.54.02,2.83,0,5.67.09,8.5.08,2.68-.87,3.58-3.55,3.27-.84-.1-1.69-.1-2.54-.15-.56-.04-1.13-.05-1.69-.14-2.77-.47-4-1.79-4.21-4.58-.11-1.47-.16-2.95-.22-4.42-.24-5.55-.79-11.06-1.63-16.55-.54-3.52-.53-7.08-.58-10.63-.09-7.02-.24-14.04-.4-21.06-.14-6.11-.15-12.21.59-18.29.14-1.12.48-2.22.8-3.31.23-.78.74-1.38,1.6-1.88.17,1.64-.06,3.17.17,4.86.57-.49.55-.97.62-1.41.11-.67.24-1.33.37-1.99.04-.19.11-.39.09-.57-.16-1.81-.12-2.06.71-3.94,1.01.98,1.43,2.11,1.16,3.47-.16.78-.14.78.32,1.53.42-1.86.83-3.64,1.25-5.5.87.36,1.55.1,2.26-.21.98-.42,1.67-.14,2.04.84.22.58.27,1.23.34,1.86.05.41,0,.83,0,1.25.08.02.16.04.24.06.21-.31.42-.62.62-.94,1.19-1.9,2.28-3.87,3.58-5.69,1.04-1.46,2.23-2.85,3.54-4.08,2.45-2.28,5.4-2.89,8.55-1.65,4.7,1.85,8.76,4.65,11.86,8.64,1.79,2.31,2.64,5,2.94,7.88.49,4.78-.15,9.48-1.12,14.14-1.43,6.88-4.01,13.38-7.15,19.65-2.18,4.36-4.5,8.66-6.82,12.95-1.36,2.51-3,4.83-5.04,6.86-.86.86-.89,1.31-.17,2.31,3.6,5.05,7.75,9.62,12.35,13.79.42.38.91.66,1.33,1.03.58.51.87,1.14.67,1.93-.2.79-.77,1.15-1.52,1.38-.88.27-1.76.56-2.6.93-2.85,1.28-5.67,1.56-8.46-.14-1.44-.87-2.58-2.06-3.55-3.4-1.83-2.51-4.08-4.64-6.26-6.84-.1-.1-.25-.16-.48-.31Zm-.4-19.75c.09.03.18.05.26.08.22-.32.46-.63.65-.96,1.8-3.07,3.68-6.11,5.38-9.23,5.33-9.8,9.26-20.09,10.91-31.16.44-2.99.55-5.96-.32-8.9-.14-.47-.26-.94-.83-1.07-.57-.12-.92.23-1.2.63-1.04,1.47-2.16,2.9-3.08,4.44-4.6,7.76-7.48,16.15-9.28,24.92-1.04,5.09-1.68,10.23-2.12,15.4-.17,1.94-.25,3.89-.37,5.84Z"/>
  <path class="cls-1" d="m294.12,291.65c.57-3.58,1.06-7.17,1.74-10.73.29-1.51.91-2.97,1.51-4.4.95-2.26,1.57-4.51.75-6.94-.05-.15-.05-.31-.08-.47-.18-1.22-.58-1.49-1.77-1.16-.94.26-1.62,1.03-1.66,1.97-.08,2.03-.71,3.91-1.54,5.74-.58,1.27-1.25,2.51-1.77,3.81-.46,1.14-.78,2.34-1.13,3.53-.22.74-.25,1.45.27,2.15.37.49.24,1.1-.16,1.56-.4.46-.49.96-.57,1.53-.45,3.11-1.51,6.02-3.07,8.92-.7-.5-.97-1.11-.89-1.85.05-.47.22-.93.3-1.4.09-.5.16-1.01-.44-1.52-1.37,3.57-2.7,7.05-4.11,10.72.8-.25,1.03-.76,1.32-1.2.29-.43.52-.92.89-1.27.32-.3.79-.45,1.27-.7.33,1.18.11,2.14-.23,3.08-.34.94-.76,1.85-1.11,2.78-.31.81-.58,1.64-.33,2.6.64-.14.83-.65,1.16-1.03.39-.45.77-.94,1.25-1.26.38-.25.96-.34,1.34.08.39.43.4.92.08,1.43-.84,1.32-1.89,2.33-3.44,2.87-2.14.75-4.23,1.62-6.51,1.83-2.82.26-5.64.47-8.46.68-1.31.09-2.29-.59-2.97-1.57-1.06-1.5-2.09-3.04-2.95-4.66-1.64-3.11-2.44-6.5-2.88-9.96-.83-6.5-1.17-13.03-1.01-19.59.25-10.08,1.65-20.02,4.01-29.83.25-1.05.51-2.09.81-3.13.14-.49.34-.99.6-1.43.56-.91,1.41-1.3,2.48-1.09.51.1,1.01.28,1.52.41.9.25,1.47.08,1.99-.69.29-.43.47-.92.7-1.38.88-1.75,1.71-3.52,2.65-5.24.46-.84,1.06-1.6,1.67-2.34,1.68-2.03,3.91-2.94,6.53-2.8,3,.17,5.94.76,8.74,1.86,4.93,1.95,7.69,5.69,8.8,10.67.47,2.14.79,4.32.95,6.5.45,6.09.62,12.2.27,18.3-.15,2.55-.48,5.08-.75,7.62-.21,1.94-.37,3.89-.68,5.82-.59,3.75-1.9,7.25-4.13,10.38-.23.32-.48.61-.72.92-.08-.04-.17-.07-.25-.11Zm-24.43,5.06c.19-.13.28-.2.38-.26.82-.59,1.15-.53,1.57.36.17.36.28.75.39,1.13.53,1.8,1.04,3.6,1.57,5.39.4,1.36,1.52,1.78,2.7.95.44-.31.86-.76,1.1-1.24,1.25-2.54,2.61-5.06,3.62-7.69,2.95-7.69,4.57-15.7,5.3-23.87.43-4.8.64-9.63.73-14.45.09-4.54-.11-9.09-.19-13.64,0-.6-.06-1.2-.75-1.57-.22.18-.45.33-.63.53-.87.93-1.36,2.08-1.73,3.26-1.02,3.23-1.96,6.49-2.96,9.73-.73,2.37-1.65,4.68-3.19,6.67-1.54,1.99-2.7,4.17-3.43,6.56-.88,2.86-1.74,5.73-2.51,8.62-.24.9-.25,1.9-.17,2.84.19,2.16,1.3,3.91,2.84,5.41.27.27.54.54.79.78-.66,1.04-1.59,1.24-2.65,1.34-2.52.24-3.66,1.62-3.51,4.1.02.24.05.48.08.71.21,1.42.42,2.84.65,4.37Z"/>
  <path class="cls-1" d="m235.96,291.91c.34-4.19.66-8.07.98-11.99-2.48.75-4.32,4.66-4.89,10.31.6-.69.88-1.66,2.09-1.63.03.45.07.91.08,1.37.06,4.16-.8,8.17-2.14,12.08-.88,2.57-1.91,5.08-2.87,7.62-.47,1.24-1.38,2.05-2.6,2.53-1.49.58-3.05.79-4.64.74-1.1-.03-1.95-.59-2.53-1.45-.53-.79-.99-1.65-1.36-2.52-2.37-5.54-3.98-11.31-5.01-17.21-1.11-6.4-2.04-12.84-2.96-19.28-.84-5.84-1.59-11.7-2.35-17.56-.77-5.93-1.52-11.87-2.28-17.81-.28-2.14-.59-4.27-.85-6.41-.08-.67-.14-1.35-.11-2.03.05-1.13.67-1.76,1.8-1.63,4.39.5,8.02,2.18,9.87,6.47.77,1.78,1.13,3.66,1.42,5.55,1.42,9.27,2.81,18.54,4.22,27.81,1.1,7.22,2.24,14.43,3.28,21.65.37,2.56.52,5.16.78,7.74.13,1.3-.1,2.53-.63,3.73-.4.91-.74,1.87-.32,2.89.06.14.15.26.35.62.26-.73.46-1.27.64-1.81,1.63-4.85,2.82-9.82,3.86-14.82,3.22-15.39,6.43-30.77,9.65-46.16,1.14-5.47,2.3-10.93,3.45-16.4,0-.04.01-.08.02-.12.52-2.33,1.55-2.9,3.85-2.11,1.41.49,2.82.98,4.23,1.48.49.18.99.36,1.46.59,1.34.64,1.79,1.44,1.54,2.9-.24,1.41-.59,2.81-.87,4.22-1.62,8.02-3.17,16.05-4.87,24.05-1.88,8.86-3.87,17.69-5.85,26.53-.84,3.72-2.58,6.96-5.61,9.42-.18.15-.37.28-.8.59Z"/>
  <path class="cls-1" d="m182,227.33c-.92.38-1.89.59-2.9.6-.93,0-1.86,0-2.79,0-.98,0-1.93.08-2.8.62-.26.16-.68.11-1.02.09-1.55-.09-3.07.03-4.55.48-1.11.34-1.8,1.08-1.91,2.23-.12,1.27-.17,2.56.06,3.81.53,2.92.53,5.9-.09,8.8-.08.36-.05.57-.05,1.15.48-.54.83-.94,1.26-1.41.73,1.58.73,3.1.54,4.63-.05.42-.18,1.09-.33,1.48-.44,1.09-.07,2.18-.02,3.27.02.37.24.57.78.44.11-1.06.25-2.15.33-3.25.18-2.59.34-5.18.49-7.76.09-1.45.63-2.21,2.06-2.58.85-.22,1.21-.69,1.27-1.51.08-1.09.16-2.18.27-3.26.06-.58.27-1.5.46-2.04.35-.97.73-1.94,1.11-2.9.45-1.14,1.23-1.88,2.52-1.93,4.73-.19,9.46-.53,14.16.37.43.08.88.19,1.26.39.3.16.59.43.77.72.33.52.22,1.08-.09,1.59-.3.5-.81.47-1.3.4-3.28-.45-6.6-.55-9.9-.74-1.92-.11-3.78.26-5.53,1.12-.77.38-1.14.91-1.24,1.75-.15,1.26-.21,2.55-.87,3.7-.15.26-.12.62-.12.94-.04,3.03-.18,6.07-.07,9.09.22,6.26.56,12.52.86,18.77,0,.16.01.32.03.48.18,1.45.83,1.93,2.11,1.27,3.31-1.72,6.77-1.61,10.31-1.13,1.44.2,2.89.36,4.33.56,1.15.16,1.57.48,1.7,1.23.16.89-.2,1.53-1.13,2.05-.18.1-.36.18-.55.25-4.56,1.68-8.79,4.04-13.11,6.22-2.1,1.06-2.88,2.61-2.65,4.86.36,3.57.52,7.17.95,10.73.52,4.3,1.18,8.58,1.87,12.86.17,1.07,1.2,1.89,2.26,1.65.79-.18,1.38-.8,1.94-1.37.21-.22.38-.47.54-.73.69-1.19,1.61-1.85,2.97-1.42.08.02.16.04.24.04.03,0,.07-.04.1-.06q-.01-1.65,1.45-1.49c.48-.44.92-.85,1.37-1.24,1.21-1.04,2.67-1.49,4.24-1.58,1.48-.08,2.96-.07,4.44-.03,1.09.03,1.76.91,1.4,1.93-.14.4-.34.79-.58,1.14-1.91,2.79-4.06,5.38-6.67,7.56-4.01,3.35-8.61,5.15-13.88,5.19-2.75.02-5.5.05-8.25,0-2.58-.04-4.31-1.31-4.95-3.79-.69-2.66-1.35-5.34-1.85-8.04-1.56-8.42-2.24-16.92-2.49-25.47-.1-3.39-.14-6.78-.24-10.17-.02-.81.04-1.58.37-2.34.31-.74.31-1.43-.28-2.12-.28-.32-.39-.86-.4-1.31-.09-3.91-.21-7.82-.19-11.73.02-3.55.1-7.1.32-10.65.18-2.94.56-5.87.95-8.79.11-.81.48-1.61.87-2.34.88-1.65,2.44-2.45,4.21-2.72,4.76-.73,9.51-.81,14.17.63.5.15.98.36,1.46.54,0,.09,0,.18,0,.26Zm-19.04,22.05q.58-.96.09-1.88c-.04.77-.06,1.32-.09,1.88Z"/>
  <path class="cls-1" d="m141.4,272.28c.53.87.59,1.65.63,2.45.05,1.23.12,2.47.21,3.7.01.21.12.41.4.61.34-1.53.69-3.06,1.03-4.6,1.1-.28,1.65.45,2.33,1.26v-10.92c-.28.14-.5.25-.73.36-.04-.06-.13-.13-.11-.17.67-2.29.41-4.58.13-6.88-.16-1.28-.16-2.6-.1-3.89.05-1.1.43-2.19,1.22-2.96.73-.71.84-1.4.66-2.46s-.11-2.09.03-3.13c.11-.78.03-1.32-.56-1.68-.62-.38-1.19-.86-1.88-1.12-.38-.14-.83-.11-1.17.12-.76.53-.84,1.39-1,2.2-.11.55-.14,1.11-.27,1.65-.26,1.08-.71,1.58-1.89,2.15-.07-.53-.17-1.02-.2-1.52-.45-5.84-.57-11.68.21-17.51.11-.8.75-1.44,1.55-1.53,2.28-.25,4.46.25,6.63.89.67.2,1.37.36,2.06.49,1.8.35,2.48,1.02,2.57,2.8.07,1.51.1,3.03.1,4.55.05,14.77.1,29.53.13,44.3.01,8.02,0,16.05-.04,24.07,0,1.27-.17,2.55-.41,3.8-.27,1.41-1.19,2.33-2.6,2.72-2.05.56-4.15.73-6.25.57-2.02-.15-3-1.16-3.37-3.17-.09-.47-.12-.95-.13-1.43-.2-7.58-.39-15.16-.58-22.74-.06-2.51-.13-5.03-.19-7.54-.03-1.37.05-2.72.67-3.97.24-.48.57-.91.92-1.47Z"/>
  <path class="cls-1" d="m221.36,187.44c1.64-.15,2.79-1.16,4.16-1.6,1.38-.44,2.71-1.02,4.23-1.6.18.78.35,1.49.5,2.21.26,1.29.41,2.61.77,3.87.49,1.72,1.13,3.39,1.71,5.08-.76.25-79.01.4-83.5.11.1-.26.16-.52.29-.74,1.56-2.64,1.81-5.44.91-8.31-.46-1.48-1.14-2.89-1.73-4.33-.16-.39-.36-.77-.63-1.33.61.12,1.03.19,1.45.3,2.8.74,5.23,2.14,7.25,4.18,1.04,1.05,1.92,2.25,2.89,3.36.24.28.62.69.88.66.36-.05.85-.41.97-.74.35-1.01.68-2.06.77-3.12.1-1.22-.07-2.47-.13-3.7-.05-.95-.12-1.9-.19-2.99.4.14.69.16.88.31,1.08.83,2.22,1.61,3.17,2.57.98,1,1.74,2.2,2.63,3.28.51.62,1.02,1.25,1.63,1.76.85.71,1.54.66,2.4-.04.34-.28.61-.63.91-.96.3-.33.55-.7.88-.99.42-.36.9-.66,1.39-1.01.87.37,1.21,1.03,1.24,1.89.04,1.12.51,2.09,1.12,2.99.71,1.06,1.53,1.24,2.58.51.68-.48,1.29-1.08,1.87-1.7,2.36-2.53,4.88-4.89,7.67-6.96.26-.19.52-.37.79-.55.05-.03.15,0,.25,0,.18,1.05.29,2.12.54,3.15.62,2.61,2.18,4.59,4.38,6.11.3.2.63.37.96.51,1.06.43,1.94.33,2.62-.56.62-.81,1.17-1.74,1.47-2.71.36-1.17.51-2.42.61-3.64.2-2.29,1.72-3.31,3.93-2.51.63.23,1.25.6,1.75,1.04,1.09.95,2.13,1.94,2.88,3.21.86,1.46,1.67,1.5,3.07.5,1.34-.96,2.76-1.8,4.16-2.68.27-.17.58-.28.89-.37,1.03-.33,1.68-.08,1.96.96.32,1.15.44,2.34.65,3.52.05.31.08.62.14,1.06Z"/>
  <path class="cls-1" d="m117.74,345.01c.14.64.27,1.06.32,1.49.09.84-.25,1.33-1.07,1.65-.87.34-1.69.18-2.21-.44-.45-.54-.58-1.65-.11-2.12.34-.34.86-.6,1.34-.67,1.56-.24,2.06-1.5,1.19-2.84-.57.17-1.16.4-1.78.54-1.28.28-2.14-.19-2.46-1.31-.24-.82,0-1.56.65-2.02.82-.58,1.89-.64,2.6-.06.36.29.64.71.88,1.12.23.38.26.93.91.85v.53c.52,0,1.04-.04,1.56.02.77.09,1.4.83,1.38,1.61-.03,1.15-.51,1.64-1.64,1.65-.47,0-.95,0-1.56,0Z"/>
  <path class="cls-1" d="m97.78,329.59c-.73-.33-1.35-.06-1.97.03-1.06.15-1.71-.23-2.1-1.18-.45-1.11-.09-2.1.89-2.5,1.23-.5,2.5-.14,2.77,1.04.35,1.53,1.11,2.26,2.71,2.42,1.03.11,1.51.97,1.45,1.9-.06,1.01-.72,1.69-1.66,1.71-1.03.03-1.84-.6-1.97-1.56-.08-.62-.09-1.25-.13-1.86Z"/>
  <path class="cls-1" d="m326.87,80.74q-.16,1.2,1.16,1.28c1.44.09,2.16,1.2,1.62,2.49-.37.87-1.21,1.25-2.19,1-1.05-.28-1.54-.91-1.43-1.89.02-.2.08-.39.13-.58.15-.54-.1-.84-.61-.96-.43-.1-.87-.17-1.3-.28-1.09-.29-1.56-.88-1.5-1.86.05-.87.68-1.51,1.63-1.65,1-.15,2,.34,2.28,1.17.14.4.15.85.22,1.28Z"/>
  <path class="cls-1" d="m316.8,69.83c1.2,0,1.76.52,1.85,1.72.01.2,0,.4,0,.6.05,1.01.26,1.21,1.32,1.27.28.02.57,0,.84.05,1.02.15,1.64.87,1.64,1.89,0,.87-.65,1.57-1.57,1.68-1.11.13-1.98-.4-2.2-1.4-.1-.46-.14-.94-.19-1.42-.06-.58-.38-.83-.97-.81-.36.01-.73.02-1.08-.04-1.03-.18-1.74-1.09-1.65-2.04.09-.9.89-1.5,2-1.5Z"/>
  <path class="cls-1" d="m67.79,300.54c0,.24,0,.48,0,.72.02.51.26.82.81.85.28.01.57.01.85.05.89.12,1.35.54,1.59,1.4.17.6.08,1.12-.31,1.56-.45.51-1.44.73-2.08.53-.9-.28-1.06-.91-1.09-1.61q-.1-1.81-1.81-2.09c-1.12-.19-1.57-.79-1.44-1.93.12-1.02.77-1.65,1.72-1.65,1.07,0,1.71.62,1.77,1.7,0,.16,0,.32,0,.48h-.02Z"/>
  <path class="cls-1" d="m305.5,61.26c.6-.25,1-.45,1.41-.59.7-.23,1.15-.09,1.58.5.48.65.68,1.38.35,2.14-.29.66-.92.86-1.6.89-.87.04-1.39-.47-1.58-1.21-.24-.94-.83-1.26-1.74-1.28-.31,0-.65-.09-.93-.22-.75-.35-1.11-1.32-.86-2.15.23-.76.83-1.11,1.81-1.05.94.06,1.42.45,1.55,1.36.06.47.01.95.01,1.61Z"/>
  <path class="cls-1" d="m331.25,79.13c-.48-.06-.91-.1-1.34-.17-.98-.14-1.57-.78-1.55-1.66.02-.72.58-1.29,1.39-1.41.84-.13,1.69.33,1.77,1.23.13,1.4.76,2.11,2.15,2.41.85.18,1.15.88,1.01,1.66-.15.8-.88,1.37-1.74,1.37-.82,0-1.39-.4-1.54-1.23-.12-.69-.1-1.41-.15-2.2Z"/>
  <path class="cls-1" d="m25.48,209.71c-1.21-.02-2.08-.94-2.06-2.2.02-1.09.96-1.87,2.24-1.84,1.1.02,2.06,1.04,2,2.13-.06,1.17-.94,1.94-2.19,1.91Z"/>
  <path class="cls-1" d="m27,179.04c-.01,1.25-.73,1.98-1.92,1.94-1.28-.04-2.04-.78-2.05-2.01,0-1.24.71-2.02,1.87-2.02,1.3,0,2.11.8,2.1,2.09Z"/>
  <path class="cls-1" d="m27.1,158.19c1.26.01,2.08.81,2.07,2.01,0,1.15-.82,1.91-2.03,1.89-1.2-.02-2.09-.81-2.09-1.88,0-1.21.83-2.04,2.05-2.02Z"/>
  <path class="cls-1" d="m21.12,153.1c-.09-1.46,1.19-2.14,2.09-2.17.92-.03,1.75.92,1.78,1.93.03,1.24-.88,2.21-2.05,2.2-1.09-.01-1.81-.79-1.82-1.96Z"/>
  <path class="cls-1" d="m365.62,175.34c-.06,1.28-.86,2.1-2.02,2.05-1.08-.05-1.89-1.04-1.82-2.26.06-1.2.85-1.92,2.04-1.87,1.17.05,1.85.83,1.8,2.08Z"/>
  <path class="cls-1" d="m55.18,282.81c1.07.01,1.93.92,1.93,2.05,0,1.21-.84,1.99-2.09,1.95-1.12-.04-1.8-.79-1.78-1.98.02-1.17.85-2.03,1.94-2.02Z"/>
  <path class="cls-1" d="m27.24,196.03c-.02,1.19-.91,2.02-2.11,1.97-1.1-.05-1.82-.83-1.82-1.98,0-1.24.76-1.92,2.11-1.9,1.18.02,1.84.71,1.82,1.91Z"/>
  <path class="cls-1" d="m28.47,165.88c.02,1.12-.89,2.08-2,2.13-1.12.05-1.95-.71-1.97-1.79-.02-1.22.84-2.13,2.07-2.18,1.12-.04,1.89.7,1.91,1.84Z"/>
  <path class="cls-1" d="m58.89,292.32c-1.2-.02-2.03-.84-1.98-1.95.05-1.15.87-1.88,2.08-1.87,1.06.01,1.94.79,1.96,1.74.03,1.1-.95,2.1-2.06,2.09Z"/>
  <path class="cls-1" d="m327.16,316.16c-.58.02-1.08-.3-1.22-.78-.19-.61.04-1.51.63-1.64,1.36-.3,2.02-1.06,2.25-2.38.1-.57.7-.72,1.27-.63.55.08,1.13.7,1.14,1.23,0,.57-.26.99-.82,1.18-.26.09-.55.12-.82.18-.94.19-.99.25-1.04,1.25-.05,1.03-.41,1.48-1.27,1.57-.04,0-.08,0-.12.01Z"/>
  <path class="cls-1" d="m85.72,321.55c-1.19.03-2.07-.81-2.09-1.99-.02-1.04.81-1.9,1.87-1.94,1.11-.04,2.01.78,2.06,1.89.05,1.2-.69,2.02-1.84,2.04Z"/>
  <path class="cls-1" d="m281.55,43.16c0,1.11-.86,1.97-1.98,1.98-1.21.01-2.03-.67-2.05-1.71-.02-1.17.83-2.03,2.03-2.05,1.12-.02,1.99.76,1.99,1.79Z"/>
  <path class="cls-1" d="m353.64,124.11c0,1.09-.91,2.02-1.97,2-1.07-.02-1.95-1.02-1.94-2.19.01-1.03.73-1.67,1.92-1.69,1.22-.02,1.99.7,2,1.88Z"/>
  <path class="cls-1" d="m29.27,228.61c1.22,0,2.04.79,2.05,2.01.01,1.03-.77,1.86-1.79,1.86-1.19,0-2.13-.95-2.11-2.14.02-1.12.67-1.72,1.84-1.73Z"/>
  <path class="cls-1" d="m26.69,184.9c-.02,1.05-.92,1.78-2.17,1.74-1.15-.04-1.9-.74-1.88-1.74.02-.97,1.07-1.97,2.06-1.97,1.11,0,2,.89,1.98,1.98Z"/>
  <path class="cls-1" d="m334.8,95.93c-1.16.03-2.01-.75-2.03-1.88-.03-1.18.75-2,1.89-2,1.05,0,1.91.84,1.93,1.89.02,1.12-.74,1.97-1.79,1.99Z"/>
  <path class="cls-1" d="m350.59,118.79c.02,1.26-.72,2.26-1.67,2.25-1.05-.01-2.02-.97-2.03-2-.01-1.04.92-2.1,1.89-2.14.9-.04,1.79.89,1.81,1.88Z"/>
  <path class="cls-1" d="m120.67,30.62s-.08-.01-.12-.01c-1.34-.12-1.32-.12-1.72,1.2-.12.41-.29.84-.56,1.16-.43.51-1.06.56-1.67.38-.54-.16-.84-.71-.8-1.33.04-.66.35-1.14,1-1.35.23-.07.48-.12.71-.11.95.02,1.59-.47,2.12-1.17.12-.16.22-.34.35-.48.39-.42.86-.4,1.33-.16.47.24.55.66.43,1.13-.14.53-.48.81-1.06.77Z"/>
  <path class="cls-1" d="m27.5,172.09c0,1.23-.65,1.96-1.76,1.96-1.17,0-1.94-.83-1.94-2.11,0-1.04.69-1.86,1.64-1.84,1.25.02,2.17.86,2.06,1.99Z"/>
  <path class="cls-1" d="m25.4,203.52c-1.1-.06-1.79-.75-1.71-1.73.11-1.27,1.04-2.2,2.15-2.11.92.07,1.67,1,1.65,2.02-.02,1.07-.95,1.88-2.09,1.82Z"/>
  <path class="cls-1" d="m359.39,140.69c0,1.17-.88,2.03-2.07,2.02-1.06,0-1.69-.69-1.71-1.87-.02-1.1.65-1.76,1.8-1.78,1.17-.01,1.98.65,1.98,1.63Z"/>
  <path class="cls-1" d="m338.26,100.54c-1.19-.02-1.97-.86-1.95-2.12.02-1.03.66-1.57,1.86-1.55,1.2.02,1.99.8,1.97,1.95-.02,1.08-.74,1.74-1.88,1.72Z"/>
  <path class="cls-1" d="m358.21,135.41c-.03,1.15-.95,2.01-2.11,1.98-1.03-.02-1.75-.8-1.72-1.88.02-.99.92-1.76,2.04-1.75,1.09,0,1.82.68,1.79,1.65Z"/>
  <path class="cls-1" d="m28.78,223.26c1.11,0,1.84.7,1.86,1.77.02,1.01-.76,1.73-1.89,1.74-1.2.01-2-.7-2.01-1.77,0-1.04.81-1.74,2.03-1.75Z"/>
  <path class="cls-1" d="m22.15,193.38c.02,1.17-.47,1.76-1.46,1.78-1.05.02-2.13-.91-2.17-1.87-.04-1.01.95-2,2.01-2.01,1.01,0,1.61.76,1.62,2.1Z"/>
  <path class="cls-1" d="m27.35,221.03c-1.14-.05-1.84-.75-1.79-1.8.05-1.13.84-1.83,1.99-1.75,1.08.07,1.84.83,1.83,1.83-.01,1.05-.86,1.77-2.02,1.72Z"/>
  <path class="cls-1" d="m43.17,269.14c-1.11-.02-1.81-.66-1.81-1.66,0-1.06.8-1.77,2.01-1.76,1.1,0,1.85.76,1.81,1.8-.04,1.02-.81,1.64-2,1.62Z"/>
  <path class="cls-1" d="m38.91,255.59c.92-.01,1.81.81,1.85,1.71.04,1.05-.9,1.97-2.01,1.97-1.05,0-1.68-.66-1.68-1.75,0-1.18.7-1.91,1.84-1.92Z"/>
  <path class="cls-1" d="m342.71,103.42c0,1.24-.57,1.97-1.57,1.98-1.11.01-1.85-.79-1.86-2.03,0-1.07.73-1.8,1.8-1.78.98.02,1.63.75,1.63,1.82Z"/>
  <path class="cls-1" d="m26.14,211.09c1.07-.02,1.78.76,1.8,1.95.01.97-.66,1.62-1.68,1.62-1.16,0-1.96-.74-1.97-1.81,0-1.06.72-1.75,1.85-1.76Z"/>
  <path class="cls-1" d="m363.33,170.69c-.99-.02-1.66-.8-1.66-1.95,0-1.04.68-1.67,1.78-1.65,1.02.02,1.79.75,1.8,1.72.01,1.07-.84,1.9-1.91,1.89Z"/>
  <path class="cls-1" d="m90.16,321.34c1.07,0,1.9.77,1.9,1.75,0,.97-.82,1.72-1.92,1.75-.99.03-1.82-.73-1.83-1.68,0-.98.85-1.83,1.84-1.83Z"/>
  <path class="cls-1" d="m352.63,250.27c0-1.12.53-1.73,1.53-1.75,1.07-.02,2.09.85,2.07,1.77-.02,1.03-.82,1.8-1.86,1.81-1.12,0-1.73-.65-1.73-1.83Z"/>
  <path class="cls-1" d="m361.39,215.55c-.02-1.17.62-1.96,1.62-2,.97-.04,1.75.72,1.78,1.73.03,1.07-.8,1.98-1.83,2-.97.02-1.55-.63-1.57-1.73Z"/>
  <path class="cls-1" d="m33.42,239.87c1.26.02,1.91.58,1.9,1.66-.01,1.03-.73,1.64-1.95,1.64-1.16,0-1.82-.58-1.82-1.61,0-1.1.66-1.7,1.87-1.68Z"/>
  <path class="cls-1" d="m249.13,28.01c0,1.38-1.16,2.39-2.44,2.12-.78-.16-1.16-.66-1.11-1.44.07-1.07.81-1.94,1.79-2.11,1.01-.18,1.76.43,1.76,1.43Z"/>
  <path class="cls-1" d="m40.84,264.35c-1.15,0-1.72-.51-1.71-1.51.02-1.07.82-1.85,1.93-1.85.98,0,1.69.65,1.72,1.6.03,1.07-.73,1.77-1.94,1.77Z"/>
  <path class="cls-1" d="m64.1,80.15c1.03,0,1.73.61,1.75,1.55.02,1.07-.91,2.06-1.91,2.05-.89,0-1.54-.74-1.56-1.76-.02-1.13.63-1.83,1.72-1.84Z"/>
  <path class="cls-1" d="m19.81,185.08c-1.22,0-1.89-.52-1.92-1.51-.02-1.03.83-1.85,1.94-1.88,1.02-.02,1.75.7,1.76,1.73,0,1.04-.65,1.65-1.78,1.66Z"/>
  <path class="cls-1" d="m275.19,39.62c0,1.15-.6,1.83-1.61,1.84-.99.01-1.73-.73-1.74-1.76-.01-1.06.85-1.94,1.9-1.93.9,0,1.46.72,1.45,1.84Z"/>
  <path class="cls-1" d="m45.05,282.5c1.13,0,1.96.85,1.93,1.98-.03,1-.69,1.71-1.61,1.71-1.06,0-1.81-.79-1.82-1.94-.02-1.08.56-1.75,1.5-1.75Z"/>
  <path class="cls-1" d="m363.77,192.87c.01-1.12.68-1.79,1.79-1.79,1.03,0,1.68.64,1.65,1.62-.03,1.12-.91,1.99-1.98,1.96-.96-.02-1.47-.65-1.46-1.79Z"/>
  <path class="cls-1" d="m124.82,347.09c-.44-.18-.91-.29-1.3-.54-.6-.4-.72-1.03-.6-1.7.13-.68.64-.96,1.28-1.08.91-.17,1.86.15,2.23.81.31.56.32,1.16,0,1.71-.35.57-.92.73-1.61.81Z"/>
  <path class="cls-1" d="m345.6,108.08c-.01,1.07-.83,1.84-1.95,1.83-.98,0-1.63-.66-1.64-1.67-.01-1.03.83-1.76,2.01-1.74.96.01,1.59.64,1.58,1.58Z"/>
  <path class="cls-1" d="m26.93,190.59c-.01.96-.82,1.68-1.82,1.64-.97-.05-1.68-.8-1.69-1.81-.01-.99.73-1.7,1.76-1.7,1.02,0,1.77.81,1.75,1.87Z"/>
  <path class="cls-1" d="m290.6,48.72c-.03,1.02-.78,1.75-1.76,1.7-1.03-.05-1.71-.7-1.7-1.63.01-1.09.84-1.93,1.88-1.92.97,0,1.61.75,1.58,1.86Z"/>
  <path class="cls-1" d="m34.77,130.44c1.09.02,1.76.68,1.74,1.69-.03.98-.75,1.63-1.84,1.63-1.06,0-1.8-.67-1.81-1.66-.01-1.03.75-1.69,1.91-1.67Z"/>
  <path class="cls-1" d="m286.56,46.07c-.02,1.01-.74,1.67-1.81,1.67-1.05,0-1.66-.61-1.66-1.64,0-1.04.85-1.91,1.79-1.86.99.05,1.69.82,1.67,1.83Z"/>
  <path class="cls-1" d="m22.09,163.2c0,1.07-.68,1.8-1.67,1.78-1.09-.01-1.74-.66-1.73-1.71.01-1.08.66-1.78,1.67-1.81,1.01-.03,1.73.69,1.73,1.74Z"/>
  <path class="cls-1" d="m344.99,113.86c.1-.95.92-1.51,2.03-1.39.96.11,1.59.88,1.49,1.82-.1.91-1.03,1.69-1.92,1.61-.97-.09-1.7-1.02-1.59-2.04Z"/>
  <path class="cls-1" d="m232.05,23.46c-.03,1.08-.82,1.85-1.85,1.8-.98-.05-1.64-.74-1.63-1.73,0-1.07.78-1.82,1.85-1.78,1.01.04,1.66.71,1.63,1.7Z"/>
  <path class="cls-1" d="m80.05,326.82c-1.03-.01-1.78-.79-1.79-1.86-.01-.95.75-1.71,1.67-1.66.99.05,1.8.83,1.81,1.75,0,1.07-.68,1.79-1.68,1.78Z"/>
  <path class="cls-1" d="m360.45,145.21c.01,1.02-.73,1.88-1.64,1.89-.95,0-1.85-.8-1.88-1.69-.03-1.05.69-1.72,1.88-1.72,1.01,0,1.62.57,1.64,1.52Z"/>
  <path class="cls-1" d="m30.17,154.61c0,1.07-.67,1.83-1.62,1.85-1.07.02-1.84-.67-1.83-1.63.01-1.07.84-1.85,1.94-1.83.97.02,1.5.59,1.51,1.62Z"/>
  <path class="cls-1" d="m96.42,334.59c-.03.99-.81,1.68-1.83,1.64-1.07-.04-1.67-.64-1.66-1.64.02-1.13.72-1.84,1.79-1.79,1.01.05,1.73.8,1.7,1.79Z"/>
  <path class="cls-1" d="m38.34,126.9c-.03.96-.75,1.65-1.7,1.63-.99-.02-1.8-.96-1.74-2.04.04-.84.83-1.53,1.7-1.5,1,.03,1.78.89,1.74,1.91Z"/>
  <path class="cls-1" d="m275.26,342.59c-.99-.02-1.71-.8-1.67-1.81.04-.97.83-1.7,1.83-1.69.95.02,1.56.71,1.54,1.76-.01,1.09-.67,1.76-1.7,1.74Z"/>
  <path class="cls-1" d="m32.61,143.19c-.03,1.09-.59,1.67-1.6,1.65-1.11-.02-1.86-.73-1.86-1.76,0-.99.72-1.64,1.81-1.65,1.05,0,1.68.66,1.65,1.75Z"/>
  <path class="cls-1" d="m34.3,138.3c-.02,1.05-.67,1.71-1.64,1.67-1.06-.04-1.82-.83-1.81-1.86.01-.96.8-1.62,1.89-1.58.95.04,1.59.75,1.56,1.77Z"/>
  <path class="cls-1" d="m73.67,310.33c-1,0-1.68-.71-1.7-1.78-.02-.98.68-1.73,1.62-1.73.94,0,1.68.72,1.7,1.67.03,1.07-.64,1.83-1.62,1.84Z"/>
  <path class="cls-1" d="m36.1,248.97c-.9,0-1.52-.6-1.53-1.49-.02-1.06.73-1.84,1.77-1.85,1.04-.01,1.81.64,1.79,1.52-.02.95-1,1.84-2.03,1.83Z"/>
  <path class="cls-1" d="m294.03,54.01c-.95-.03-1.59-.71-1.54-1.62.06-1.06.92-1.85,1.99-1.84.91.01,1.44.6,1.42,1.56-.02,1.13-.82,1.94-1.88,1.9Z"/>
  <path class="cls-1" d="m22.13,212.19c-.01,1.02-.6,1.58-1.69,1.59-.99,0-1.66-.65-1.68-1.63-.02-1.04.69-1.77,1.71-1.74,1.02.02,1.68.73,1.67,1.79Z"/>
  <path class="cls-1" d="m366.05,181.61c.02,1.01-.52,1.56-1.53,1.56-1.06,0-1.79-.8-1.79-1.97,0-.83.71-1.58,1.49-1.58,1.01,0,1.81.88,1.83,1.99Z"/>
  <path class="cls-1" d="m52.07,282.35c-1.09,0-1.57-.43-1.56-1.37,0-1.15.79-2,1.82-1.97.98.03,1.68.72,1.67,1.68,0,1.04-.73,1.67-1.92,1.66Z"/>
  <path class="cls-1" d="m62.79,296.01c.03,1.07-.78,1.87-1.91,1.88-.91.01-1.47-.61-1.49-1.66-.02-1.03.7-1.81,1.68-1.82,1.03-.02,1.7.61,1.73,1.6Z"/>
  <path class="cls-1" d="m20.49,199.83c0,1-.53,1.55-1.55,1.57-1.09.03-1.87-.63-1.88-1.58-.02-.96.74-1.72,1.76-1.76,1-.04,1.67.67,1.68,1.76Z"/>
  <path class="cls-1" d="m271.04,37.12c-.03,1.02-.79,1.66-1.95,1.62-.95-.03-1.46-.56-1.46-1.51,0-.95.88-1.83,1.83-1.84.93,0,1.6.72,1.58,1.72Z"/>
  <path class="cls-1" d="m46.25,274.13c-1.01-.01-1.62-.66-1.59-1.68.03-1.07.77-1.74,1.88-1.7.93.03,1.58.76,1.56,1.75-.02.92-.85,1.64-1.86,1.63Z"/>
  <path class="cls-1" d="m300.95,55.56c-.03,1.07-.79,1.9-1.75,1.89-1,0-1.6-.64-1.59-1.69.01-1.16.67-1.82,1.77-1.78,1,.04,1.59.63,1.56,1.57Z"/>
  <path class="cls-1" d="m41.45,121.23c.03,1.06-.71,1.85-1.76,1.88-1.01.03-1.64-.6-1.65-1.63,0-1.05.75-1.81,1.81-1.83.9-.02,1.56.65,1.59,1.59Z"/>
  <path class="cls-1" d="m43.75,115.14c.02.96-.61,1.74-1.43,1.74-1.06,0-1.88-.82-1.9-1.92-.01-.97.51-1.53,1.43-1.55,1.1-.02,1.87.68,1.89,1.73Z"/>
  <path class="cls-1" d="m140.97,350.61c1.07-.04,1.84.63,1.85,1.61.02,1.04-.65,1.82-1.62,1.88-.96.06-1.66-.67-1.7-1.77-.03-.94.6-1.69,1.46-1.72Z"/>
  <path class="cls-1" d="m61.71,302.54c-.02.97-.86,1.78-1.79,1.72-.99-.05-1.68-.82-1.64-1.84.04-.99.73-1.61,1.73-1.56.95.05,1.71.8,1.69,1.68Z"/>
  <path class="cls-1" d="m346.53,270.71c0,1.01-.65,1.71-1.61,1.73-.97.02-1.67-.67-1.68-1.65-.01-1.1.74-1.91,1.74-1.89.89.02,1.55.79,1.55,1.81Z"/>
  <path class="cls-1" d="m31.83,149.34c.03.92-.54,1.53-1.45,1.56-1.12.05-1.92-.62-1.97-1.65-.05-.99.49-1.56,1.51-1.6,1.13-.05,1.88.62,1.91,1.69Z"/>
  <path class="cls-1" d="m363.66,221.46c0,.99-.62,1.61-1.54,1.57-1.02-.04-1.7-.76-1.69-1.77,0-1.07.62-1.75,1.55-1.72,1.01.03,1.7.82,1.69,1.92Z"/>
  <path class="cls-1" d="m331.37,87.55c.96.04,1.58.61,1.58,1.43,0,.99-.83,1.74-1.89,1.72-1.09-.02-1.75-.64-1.69-1.57.07-1.01.86-1.64,2-1.59Z"/>
  <path class="cls-1" d="m106.21,334.63c.02,1.08-.77,1.95-1.82,2.01-.93.05-1.55-.59-1.55-1.59,0-1.02.74-1.77,1.73-1.77,1.02,0,1.63.49,1.64,1.35Z"/>
  <path class="cls-1" d="m51.56,100.8c.04,1.14-.55,1.87-1.54,1.88-.86,0-1.6-.7-1.66-1.58-.07-1.05.6-1.89,1.54-1.94.97-.05,1.62.59,1.66,1.64Z"/>
  <path class="cls-1" d="m259.75,30.79c1.08-.02,1.79.55,1.83,1.46.04.92-.66,1.65-1.64,1.69-.98.04-1.88-.62-1.92-1.42-.06-.95.7-1.71,1.73-1.73Z"/>
  <path class="cls-1" d="m135.55,349.05c.93-.03,1.46.49,1.51,1.47.06,1.15-.68,2-1.74,2-.95,0-1.5-.59-1.51-1.61-.01-1.12.64-1.82,1.74-1.85Z"/>
  <path class="cls-1" d="m77.6,310.93c1.01.02,1.62.6,1.62,1.54,0,1.02-.8,1.78-1.87,1.77-.97,0-1.55-.63-1.52-1.62.03-1.04.73-1.71,1.78-1.7Z"/>
  <path class="cls-1" d="m278.4,35.81c-.98-.02-1.69-.74-1.66-1.68.03-.92.78-1.61,1.76-1.61.92,0,1.58.75,1.55,1.77-.02.94-.68,1.55-1.65,1.52Z"/>
  <path class="cls-1" d="m362.09,151.04c-.02.97-.64,1.53-1.64,1.49-1.06-.04-1.76-.82-1.71-1.9.04-.83.77-1.46,1.63-1.41.98.06,1.74.86,1.72,1.82Z"/>
  <path class="cls-1" d="m344.65,275.81c0,.84-.66,1.44-1.58,1.44-1.02,0-1.78-.8-1.76-1.87.01-.85.59-1.45,1.41-1.47,1-.02,1.94.9,1.94,1.9Z"/>
  <path class="cls-1" d="m180.02,362.88c-.89-.01-1.54-.78-1.53-1.8.02-.95.78-1.62,1.85-1.63.91-.01,1.46.58,1.44,1.53-.03,1.09-.79,1.91-1.76,1.9Z"/>
  <path class="cls-1" d="m74.08,68.68c.01-1,.67-1.68,1.64-1.7.84-.02,1.51.66,1.51,1.53,0,1.06-.9,2.05-1.83,2.02-.78-.02-1.33-.8-1.31-1.85Z"/>
  <path class="cls-1" d="m20.09,168.77c.93-.01,1.62.63,1.65,1.53.04,1.02-.76,1.84-1.77,1.84-.97,0-1.56-.61-1.55-1.57.01-1.04.71-1.78,1.67-1.79Z"/>
  <path class="cls-1" d="m314.33,67.47c0,1.02-.72,1.69-1.78,1.68-.97,0-1.64-.64-1.63-1.54.01-1.01.75-1.7,1.79-1.67,1.02.02,1.62.59,1.62,1.53Z"/>
  <path class="cls-1" d="m46.45,110.56c-.02.92-.77,1.59-1.76,1.58-1,0-1.68-.69-1.65-1.66.03-.96.73-1.58,1.75-1.57,1,.01,1.69.7,1.66,1.65Z"/>
  <path class="cls-1" d="m80.61,318.92c-.92.02-1.56-.54-1.61-1.41-.05-1.03.64-1.82,1.61-1.85.9-.03,1.7.65,1.73,1.48.03.93-.78,1.77-1.73,1.79Z"/>
  <path class="cls-1" d="m247.99,352.98c-.03-1.01.67-1.7,1.73-1.7,1.02,0,1.64.71,1.64,1.92,0,.81-.53,1.23-1.55,1.24-1.11,0-1.79-.53-1.82-1.45Z"/>
  <path class="cls-1" d="m172.54,22.78c-1.06.02-1.75-.61-1.79-1.65-.04-1.03.42-1.61,1.31-1.62,1.02,0,2.04.88,2.06,1.8.02.78-.7,1.45-1.58,1.47Z"/>
  <path class="cls-1" d="m307.97,54.02c1.02.01,1.59.61,1.58,1.68-.01.95-.62,1.52-1.62,1.51-1.05-.02-1.75-.64-1.76-1.56,0-1,.7-1.65,1.8-1.63Z"/>
  <path class="cls-1" d="m272.84,31.51c.15.05.59.14.95.36.62.39.82,1.28.52,1.92-.27.58-.88.89-1.62.77-.35-.06-.71-.18-1.02-.35-.6-.33-.84-1.09-.63-1.78.19-.63.66-.92,1.81-.93Z"/>
  <path class="cls-1" d="m117.34,39.93c-.94,0-1.5-.54-1.52-1.46-.02-1.1.6-1.78,1.63-1.78,1.01,0,1.77.68,1.75,1.57-.02.89-.89,1.67-1.86,1.67Z"/>
  <path class="cls-1" d="m367.56,150.84c-.03,1.11-.77,1.9-1.75,1.85-.83-.04-1.46-.79-1.46-1.73,0-.96.88-1.73,1.93-1.69.77.03,1.29.67,1.27,1.56Z"/>
  <path class="cls-1" d="m27,140.83c0,1.12-.7,1.85-1.75,1.82-.84-.03-1.37-.59-1.38-1.47,0-1.08.79-1.94,1.83-1.96.86-.02,1.3.53,1.3,1.62Z"/>
  <path class="cls-1" d="m37.84,249.95c.97-.03,1.78.79,1.83,1.86.05.9-.53,1.49-1.49,1.5-.98,0-1.76-.76-1.76-1.75,0-.96.55-1.59,1.41-1.61Z"/>
  <path class="cls-1" d="m354.18,131.89c-1.03.01-1.73-.63-1.73-1.58,0-.93.63-1.52,1.62-1.53,1-.01,1.71.57,1.75,1.43.05.91-.69,1.66-1.65,1.68Z"/>
  <path class="cls-1" d="m51.07,295.48c-.96-.01-1.51-.56-1.5-1.47.01-1.08.7-1.79,1.7-1.75.93.04,1.65.73,1.65,1.57,0,.91-.86,1.67-1.85,1.66Z"/>
  <path class="cls-1" d="m237.34,23.59c.92,0,1.44.48,1.46,1.37.02,1.05-.75,1.92-1.73,1.93-.9.01-1.46-.58-1.44-1.54.02-1.06.69-1.76,1.71-1.77Z"/>
  <path class="cls-1" d="m130.17,33.35c-.03,1-.82,1.8-1.74,1.78-.9-.02-1.46-.64-1.43-1.56.03-1.05.75-1.79,1.72-1.77.9.02,1.48.64,1.45,1.55Z"/>
  <path class="cls-1" d="m120.6,348.12c1.2.05,1.94.69,1.92,1.68-.02.86-.66,1.45-1.57,1.45-1.06,0-1.86-.87-1.83-1.95.03-.8.53-1.2,1.47-1.17Z"/>
  <path class="cls-1" d="m90.29,329.94c.96,0,1.61.61,1.62,1.55.02.98-.59,1.73-1.42,1.76-.98.04-1.77-.73-1.77-1.72,0-.95.62-1.58,1.57-1.59Z"/>
  <path class="cls-1" d="m106.98,342.99c-.02.95-.84,1.83-1.72,1.85-.83.02-1.51-.74-1.52-1.69,0-1.01.66-1.65,1.68-1.62.96.03,1.58.6,1.56,1.46Z"/>
  <path class="cls-1" d="m34.16,124.19c.02.99-.65,1.71-1.61,1.7-.96,0-1.65-.64-1.66-1.52-.01-.93.77-1.68,1.8-1.73.83-.04,1.45.62,1.47,1.55Z"/>
  <path class="cls-1" d="m26.82,236.53c-.01.9-.69,1.51-1.66,1.51-1.04,0-1.68-.69-1.64-1.78.03-.94.58-1.46,1.54-1.46,1,0,1.78.77,1.77,1.73Z"/>
  <path class="cls-1" d="m300.23,48.28c.01.96-.62,1.7-1.47,1.71-.96.02-1.69-.69-1.7-1.64-.01-.95.69-1.68,1.64-1.71.89-.03,1.52.64,1.53,1.63Z"/>
  <path class="cls-1" d="m110.78,338.26c-.02,1.04-.66,1.72-1.61,1.73-.92,0-1.5-.7-1.47-1.81.02-1.03.52-1.58,1.42-1.55,1.08.03,1.69.62,1.66,1.63Z"/>
  <path class="cls-1" d="m348.26,263.97c.93-.01,1.63.7,1.65,1.67.02.98-.67,1.73-1.59,1.73-.91,0-1.48-.63-1.51-1.63-.03-1.14.47-1.75,1.45-1.77Z"/>
  <path class="cls-1" d="m366.11,186.61c0,1.02-.62,1.6-1.67,1.58-1.01-.02-1.62-.66-1.61-1.66.01-.97.66-1.53,1.75-1.5.98.02,1.53.59,1.53,1.58Z"/>
  <path class="cls-1" d="m357.65,237.72c.86.01,1.6.75,1.61,1.6,0,.96-.68,1.65-1.66,1.66-.93,0-1.59-.72-1.57-1.73.02-.93.68-1.55,1.62-1.54Z"/>
  <path class="cls-1" d="m129.49,347.27c.99,0,1.67.61,1.66,1.5,0,.95-.73,1.65-1.69,1.63-.94-.02-1.58-.59-1.6-1.44-.02-.96.69-1.7,1.63-1.7Z"/>
  <path class="cls-1" d="m153.51,355.13c.03.93-.58,1.57-1.54,1.63-.97.06-1.58-.51-1.61-1.51-.03-.93.6-1.7,1.44-1.75.89-.06,1.69.71,1.72,1.64Z"/>
  <path class="cls-1" d="m244.13,26.62c0,1.03-.62,1.66-1.63,1.65-.96,0-1.58-.62-1.57-1.57,0-.99.65-1.63,1.66-1.64.98-.01,1.55.56,1.55,1.56Z"/>
  <path class="cls-1" d="m264.22,35.97c-.99-.04-1.68-.82-1.61-1.85.06-.92.67-1.49,1.55-1.46.85.03,1.61.9,1.58,1.78-.04.89-.69,1.55-1.52,1.52Z"/>
  <path class="cls-1" d="m222.62,22.55c.01-.89.61-1.44,1.56-1.41.96.02,1.7.81,1.68,1.8-.01.89-.63,1.44-1.57,1.4-1.02-.04-1.69-.76-1.68-1.79Z"/>
  <path class="cls-1" d="m46.59,103.66c.96.01,1.75.85,1.71,1.8-.03.89-.6,1.5-1.4,1.48-1.02-.02-1.79-.84-1.77-1.88.02-.86.6-1.41,1.46-1.4Z"/>
  <path class="cls-1" d="m254.03,32.39c-.98,0-1.75-.74-1.76-1.73-.02-.94.61-1.55,1.59-1.54.95.01,1.59.69,1.62,1.7.02.89-.59,1.56-1.44,1.57Z"/>
  <path class="cls-1" d="m334.06,292.58c-.04.84-.74,1.42-1.64,1.38-.9-.05-1.62-.84-1.59-1.77.02-.87.78-1.51,1.71-1.44.88.07,1.56.89,1.52,1.83Z"/>
  <path class="cls-1" d="m178.68,22.73c-.98.02-1.62-.53-1.6-1.38.02-.99.78-1.82,1.69-1.82.9,0,1.52.6,1.54,1.49.02.93-.7,1.69-1.63,1.71Z"/>
  <path class="cls-1" d="m134.82,33.01c-.92-.02-1.55-.69-1.53-1.62.03-.96.63-1.55,1.59-1.56.97,0,1.62.61,1.61,1.53,0,.95-.73,1.66-1.68,1.65Z"/>
  <path class="cls-1" d="m87.23,328.96c-.02.87-.67,1.48-1.57,1.45-.99-.02-1.66-.77-1.64-1.83.01-.85.47-1.28,1.38-1.28,1.03,0,1.86.75,1.84,1.66Z"/>
  <path class="cls-1" d="m30.79,237.79c-.97.02-1.58-.49-1.62-1.37-.05-.95.61-1.59,1.67-1.62.97-.03,1.67.57,1.72,1.45.04.9-.66,1.51-1.76,1.54Z"/>
  <path class="cls-1" d="m39.59,103.65c.85-.01,1.47.63,1.5,1.54.03,1.07-.56,1.84-1.45,1.87-.92.03-1.5-.58-1.53-1.62-.03-1.12.51-1.79,1.48-1.8Z"/>
  <path class="cls-1" d="m38.26,112.83c0,.93-.58,1.56-1.43,1.58-.95.02-1.63-.75-1.62-1.82,0-.87.65-1.52,1.49-1.52.89,0,1.56.76,1.56,1.77Z"/>
  <path class="cls-1" d="m17.09,156.52c-.96-.03-1.56-.63-1.56-1.58,0-.92.66-1.6,1.56-1.6.9,0,1.62.79,1.58,1.74-.04.86-.7,1.47-1.58,1.44Z"/>
  <path class="cls-1" d="m22.85,157.52c-.03,1.02-.58,1.62-1.51,1.63-.92,0-1.54-.66-1.51-1.62.03-.96.74-1.72,1.63-1.72.87,0,1.42.67,1.39,1.72Z"/>
  <path class="cls-1" d="m139.67,31.5c-.9-.03-1.48-.72-1.43-1.7.04-.9.63-1.44,1.56-1.44.93,0,1.64.68,1.62,1.54-.02.89-.82,1.62-1.75,1.59Z"/>
  <path class="cls-1" d="m62.12,86.72c0,.96-.71,1.65-1.7,1.63-.9-.02-1.41-.57-1.43-1.57-.02-.98.56-1.6,1.53-1.62.97-.02,1.6.59,1.6,1.56Z"/>
  <path class="cls-1" d="m364.92,200.47c-.85.01-1.49-.62-1.53-1.51-.04-.96.63-1.69,1.6-1.73.9-.04,1.53.57,1.52,1.46-.02.97-.73,1.77-1.59,1.78Z"/>
  <path class="cls-1" d="m157.72,358.17c-.84,0-1.43-.67-1.41-1.61.02-.88.73-1.63,1.59-1.66.84-.03,1.48.64,1.47,1.55-.01.98-.71,1.71-1.64,1.72Z"/>
  <path class="cls-1" d="m47.68,296.16c.85-.03,1.56.67,1.62,1.6.06.98-.54,1.69-1.44,1.71-.89.02-1.48-.63-1.51-1.66-.03-.98.49-1.63,1.34-1.66Z"/>
  <path class="cls-1" d="m321.69,65.59c.95.02,1.67.76,1.65,1.71-.01.81-.69,1.45-1.48,1.4-.97-.06-1.74-.8-1.75-1.66,0-.87.66-1.47,1.58-1.45Z"/>
  <path class="cls-1" d="m186.94,20.1c0,.94-.84,1.78-1.77,1.76-.84-.02-1.33-.51-1.35-1.36-.03-1.09.6-1.84,1.58-1.89.89-.04,1.53.58,1.54,1.48Z"/>
  <path class="cls-1" d="m361.62,156.48c.98.02,1.75.73,1.74,1.6-.01.84-.65,1.38-1.62,1.37-1.03-.01-1.71-.64-1.72-1.6-.01-.85.63-1.4,1.6-1.38Z"/>
  <path class="cls-1" d="m28.49,248.29c.01-.98.74-1.72,1.67-1.69.73.02,1.38.74,1.4,1.54.02.91-.78,1.79-1.62,1.78-.77,0-1.46-.79-1.44-1.63Z"/>
  <path class="cls-1" d="m370.78,188.5c-.82-.04-1.34-.75-1.27-1.72.07-.9.77-1.51,1.72-1.49.85.02,1.43.65,1.37,1.48-.07.99-.89,1.76-1.82,1.72Z"/>
  <path class="cls-1" d="m73.58,315.65c.03.92-.6,1.56-1.57,1.6-.97.04-1.59-.48-1.62-1.37-.03-1.02.6-1.56,1.94-1.63.75-.04,1.23.49,1.25,1.4Z"/>
  <path class="cls-1" d="m347.12,99.63c.88-.03,1.6.58,1.63,1.4.04.88-.65,1.57-1.59,1.58-.94,0-1.6-.55-1.64-1.39-.04-.86.65-1.55,1.59-1.59Z"/>
  <path class="cls-1" d="m151.35,26.74c.03,1.01-.63,1.71-1.6,1.71-.89,0-1.43-.53-1.43-1.42,0-1.05.61-1.76,1.54-1.79.91-.03,1.47.53,1.49,1.5Z"/>
  <path class="cls-1" d="m109.04,44.23c0,.89-.7,1.65-1.54,1.66-.92.02-1.57-.63-1.56-1.58,0-.98.61-1.59,1.56-1.56.92.03,1.55.63,1.54,1.48Z"/>
  <path class="cls-1" d="m15.48,163.83c.97,0,1.63.7,1.61,1.7-.02.88-.57,1.47-1.38,1.5-.98.03-1.66-.64-1.66-1.64,0-.96.55-1.56,1.43-1.56Z"/>
  <path class="cls-1" d="m148.53,353.29c-.02.89-.57,1.51-1.34,1.53-.92.02-1.69-.82-1.66-1.81.03-.88.6-1.47,1.41-1.44.95.03,1.62.76,1.59,1.73Z"/>
  <path class="cls-1" d="m364.44,163.53c-.02.9-.62,1.48-1.55,1.47-1.01,0-1.71-.7-1.67-1.65.03-.84.61-1.32,1.55-1.31,1.04.01,1.69.59,1.67,1.49Z"/>
  <path class="cls-1" d="m32.99,253.17c0,.79-.62,1.34-1.52,1.33-.96-.01-1.59-.68-1.61-1.69-.01-.87.51-1.4,1.41-1.41.93-.01,1.72.8,1.72,1.77Z"/>
  <path class="cls-1" d="m38.53,273.76c0-.9.52-1.52,1.32-1.55.96-.03,1.77.76,1.76,1.72,0,.87-.57,1.47-1.39,1.49-.91.02-1.69-.75-1.69-1.67Z"/>
  <path class="cls-1" d="m219.12,23.6c-.93,0-1.5-.55-1.5-1.46,0-.99.51-1.61,1.34-1.64.94-.03,1.84.8,1.82,1.69-.02.74-.8,1.41-1.65,1.41Z"/>
  <path class="cls-1" d="m295.45,329.68c-1.04,0-1.66-.51-1.66-1.33,0-.92.78-1.66,1.72-1.63.88.03,1.56.67,1.58,1.48.02.95-.58,1.48-1.63,1.48Z"/>
  <path class="cls-1" d="m12.88,197.44c0-.98.71-1.8,1.56-1.83.85-.02,1.42.62,1.4,1.59-.02,1.01-.64,1.7-1.5,1.68-.84-.02-1.46-.64-1.46-1.44Z"/>
  <path class="cls-1" d="m66.95,312.33c-.99,0-1.6-.52-1.6-1.39,0-.95.62-1.6,1.56-1.62,1-.02,1.67.56,1.68,1.48.01.91-.64,1.53-1.63,1.54Z"/>
  <path class="cls-1" d="m56.22,306.38c.94.03,1.75.86,1.75,1.79,0,.85-.58,1.38-1.48,1.33-.98-.05-1.69-.76-1.67-1.68.01-.88.59-1.47,1.4-1.45Z"/>
  <path class="cls-1" d="m213.01,22.69c-.89.01-1.46-.51-1.48-1.36-.02-1.05.68-1.83,1.62-1.82.85.01,1.42.59,1.42,1.43,0,1-.66,1.74-1.57,1.75Z"/>
  <path class="cls-1" d="m122.65,33.86c.96-.01,1.59.55,1.58,1.41,0,.89-.7,1.57-1.61,1.57-.95,0-1.62-.58-1.6-1.41.02-.88.71-1.55,1.63-1.57Z"/>
  <path class="cls-1" d="m357.03,117.94c.03.84-.63,1.59-1.43,1.65-.91.06-1.68-.59-1.73-1.46-.06-.92.49-1.54,1.41-1.59,1-.05,1.72.52,1.75,1.4Z"/>
  <path class="cls-1" d="m187.17,363.02c-.87-.03-1.48-.74-1.47-1.71.01-.92.62-1.47,1.56-1.42.91.05,1.53.74,1.5,1.68-.03.84-.72,1.47-1.59,1.45Z"/>
  <path class="cls-1" d="m342.46,97.45c-.84-.02-1.44-.71-1.4-1.62.04-.96.69-1.58,1.62-1.57.89,0,1.38.59,1.35,1.61-.03,1.01-.62,1.61-1.57,1.58Z"/>
  <path class="cls-1" d="m98.9,50.04c0,.92-.52,1.55-1.3,1.55-.86,0-1.61-.88-1.6-1.91,0-.86.51-1.4,1.31-1.38.93.02,1.58.73,1.59,1.74Z"/>
  <path class="cls-1" d="m49.06,286.96c.96-.02,1.55.53,1.56,1.43,0,.89-.64,1.49-1.66,1.52-1,.04-1.61-.47-1.61-1.35,0-.96.66-1.58,1.71-1.6Z"/>
  <path class="cls-1" d="m164.94,358.71c.02.93-.54,1.71-1.27,1.76-.89.06-1.66-.7-1.67-1.65-.01-.9.6-1.55,1.47-1.53.81.01,1.45.64,1.47,1.42Z"/>
  <path class="cls-1" d="m21.87,176.97c0,.83-.6,1.34-1.52,1.32-.94-.02-1.68-.77-1.66-1.69.01-.8.63-1.34,1.53-1.33.93,0,1.66.76,1.65,1.7Z"/>
  <path class="cls-1" d="m143.91,358.05c.03.9-.56,1.57-1.43,1.6-.96.03-1.66-.6-1.67-1.5,0-.89.61-1.53,1.49-1.54.9-.01,1.58.6,1.61,1.44Z"/>
  <path class="cls-1" d="m33.03,260.98c-.87.02-1.42-.51-1.46-1.39-.04-.98.55-1.6,1.53-1.59.9,0,1.61.72,1.6,1.61,0,.78-.71,1.36-1.67,1.38Z"/>
  <path class="cls-1" d="m14.34,171.02c-.05.9-.6,1.45-1.42,1.43-.95-.03-1.68-.79-1.62-1.71.05-.74.79-1.41,1.54-1.4.86.02,1.55.79,1.51,1.67Z"/>
  <path class="cls-1" d="m300.29,323.42c.83,0,1.38.66,1.37,1.62-.01.94-.58,1.54-1.45,1.54-.86,0-1.46-.64-1.47-1.54-.02-.89.68-1.62,1.56-1.61Z"/>
  <path class="cls-1" d="m266.02,347.49c-.95,0-1.54-.54-1.57-1.44-.03-.92.53-1.48,1.49-1.49.97-.02,1.68.62,1.68,1.5,0,.84-.66,1.43-1.6,1.44Z"/>
  <path class="cls-1" d="m359.47,233.87c-.83-.02-1.43-.68-1.43-1.6,0-.89.63-1.5,1.53-1.46.87.04,1.58.79,1.56,1.66-.02.76-.79,1.41-1.65,1.4Z"/>
  <path class="cls-1" d="m110.37,342.9c.95.01,1.62.6,1.6,1.42-.01.88-.74,1.51-1.69,1.48-.91-.03-1.49-.62-1.5-1.52-.01-.87.59-1.4,1.59-1.38Z"/>
  <path class="cls-1" d="m260.49,346.95c.9-.02,1.45.51,1.44,1.39,0,.95-.66,1.63-1.57,1.63-.85,0-1.46-.6-1.47-1.42,0-.92.64-1.57,1.6-1.6Z"/>
  <path class="cls-1" d="m329.59,304.53c.02.86-.54,1.45-1.4,1.47-.94.03-1.61-.54-1.65-1.39-.04-.88.59-1.64,1.39-1.67.82-.04,1.63.75,1.65,1.59Z"/>
  <path class="cls-1" d="m362.11,127.89c0,.89-.55,1.55-1.3,1.57-.94.03-1.63-.7-1.6-1.68.03-.9.56-1.49,1.35-1.51.88-.02,1.55.69,1.55,1.62Z"/>
  <path class="cls-1" d="m245.31,354.28c-.03.87-.68,1.43-1.59,1.38-.9-.05-1.53-.69-1.5-1.52.03-.81.78-1.47,1.61-1.42.86.05,1.51.73,1.48,1.56Z"/>
  <path class="cls-1" d="m19.51,229.36c0,.87-.65,1.46-1.56,1.45-.85-.01-1.37-.64-1.34-1.63.03-1,.56-1.57,1.44-1.54.84.03,1.47.76,1.46,1.72Z"/>
  <path class="cls-1" d="m53.22,97.22c-.94,0-1.68-.65-1.7-1.5-.02-.8.62-1.44,1.44-1.43.96,0,1.69.66,1.69,1.5,0,.85-.58,1.43-1.43,1.43Z"/>
  <path class="cls-1" d="m339.43,282.79c-.99.02-1.61-.57-1.61-1.51,0-.92.52-1.5,1.34-1.5.94,0,1.76.75,1.76,1.61,0,.77-.66,1.38-1.49,1.4Z"/>
  <path class="cls-1" d="m262,24.49c.78-.01,1.31.6,1.3,1.52-.01.96-.63,1.67-1.47,1.7-.83.03-1.36-.52-1.37-1.44-.01-1,.65-1.76,1.54-1.77Z"/>
  <path class="cls-1" d="m369.06,156.09c.85.03,1.35.6,1.32,1.51-.03,1-.58,1.61-1.41,1.58-.9-.04-1.52-.73-1.49-1.68.02-.89.65-1.44,1.58-1.41Z"/>
  <path class="cls-1" d="m155.01,26.49c-.77-.03-1.27-.6-1.26-1.45.01-.9.69-1.5,1.68-1.48.81.02,1.5.69,1.47,1.43-.03.81-.94,1.53-1.89,1.49Z"/>
  <path class="cls-1" d="m166.69,21.03c.86.02,1.56.78,1.53,1.66-.03.81-.67,1.41-1.49,1.4-.85,0-1.5-.74-1.5-1.68,0-.83.6-1.4,1.46-1.38Z"/>
  <path class="cls-1" d="m286.7,333.78c.9.02,1.56.67,1.52,1.52-.04.86-.63,1.44-1.46,1.45-1.01,0-1.71-.63-1.67-1.5.04-.83.75-1.48,1.61-1.47Z"/>
  <path class="cls-1" d="m20.2,189.83c-.99-.02-1.73-.71-1.71-1.61.01-.82.53-1.28,1.39-1.27.98.01,1.73.71,1.74,1.6,0,.74-.61,1.29-1.42,1.28Z"/>
  <path class="cls-1" d="m367.67,175.13c0-.82.58-1.34,1.5-1.33.88,0,1.71.75,1.69,1.52-.02.75-.7,1.34-1.55,1.34-.95,0-1.64-.63-1.63-1.52Z"/>
  <path class="cls-1" d="m174.72,359.19c.84,0,1.41.63,1.42,1.58,0,.96-.54,1.55-1.43,1.53-.88-.01-1.45-.62-1.44-1.55,0-.91.62-1.57,1.45-1.57Z"/>
  <path class="cls-1" d="m169.33,361.07c-.91.03-1.53-.56-1.54-1.46,0-.86.59-1.43,1.55-1.47.86-.04,1.51.51,1.56,1.32.06.87-.64,1.58-1.58,1.61Z"/>
  <path class="cls-1" d="m92.36,54.99c-.87-.01-1.49-.72-1.47-1.68.01-.83.63-1.41,1.47-1.38.85.03,1.55.81,1.5,1.68-.04.82-.66,1.39-1.5,1.38Z"/>
  <path class="cls-1" d="m300.46,334.38c0,.9-.65,1.53-1.61,1.56-.92.03-1.49-.49-1.48-1.33.01-.93.76-1.6,1.75-1.57.85.02,1.34.51,1.34,1.34Z"/>
  <path class="cls-1" d="m216.16,359.14c.87,0,1.48.65,1.46,1.53-.02.9-.67,1.58-1.47,1.54-.78-.03-1.38-.67-1.4-1.5-.02-.92.57-1.57,1.41-1.58Z"/>
  <path class="cls-1" d="m244.99,359.4c0,.81-.62,1.41-1.46,1.43-.92.02-1.6-.67-1.56-1.6.03-.81.64-1.33,1.53-1.34.91,0,1.49.58,1.49,1.5Z"/>
  <path class="cls-1" d="m329.25,297.69c-.87.02-1.41-.57-1.42-1.55-.01-.96.44-1.47,1.31-1.48.86,0,1.62.7,1.65,1.55.03.81-.64,1.45-1.55,1.47Z"/>
  <path class="cls-1" d="m357.39,244.43c-.03.93-.52,1.47-1.36,1.47-.91,0-1.59-.68-1.58-1.58.01-.89.66-1.52,1.52-1.47.89.05,1.44.67,1.41,1.58Z"/>
  <path class="cls-1" d="m160.98,25.06c-.85.02-1.38-.47-1.4-1.28-.02-.94.68-1.63,1.66-1.64.82,0,1.4.5,1.44,1.27.05.83-.78,1.63-1.71,1.65Z"/>
  <path class="cls-1" d="m66.28,77.39c-.01-.92.69-1.64,1.58-1.61.72.02,1.37.7,1.36,1.42-.02.85-.78,1.69-1.56,1.72-.75.02-1.36-.65-1.37-1.52Z"/>
  <path class="cls-1" d="m351.3,271.52c-.87,0-1.36-.53-1.35-1.45,0-1,.52-1.66,1.3-1.68.79-.02,1.54.71,1.56,1.5.02.94-.63,1.64-1.51,1.64Z"/>
  <path class="cls-1" d="m223.67,359.59c.01.9-.68,1.65-1.54,1.66-.82.01-1.4-.58-1.4-1.45,0-.95.59-1.59,1.53-1.62.86-.03,1.4.5,1.41,1.41Z"/>
  <path class="cls-1" d="m356.23,99.85c-.07.82-.83,1.46-1.67,1.41-.76-.04-1.38-.78-1.3-1.58.08-.93.8-1.48,1.77-1.36.76.09,1.27.73,1.2,1.53Z"/>
  <path class="cls-1" d="m19.42,204.29c.85,0,1.48.6,1.46,1.39-.02.83-.67,1.47-1.55,1.49-.9.03-1.52-.51-1.53-1.31,0-.86.72-1.57,1.61-1.58Z"/>
  <path class="cls-1" d="m292.25,332.38c.01.85-.56,1.4-1.45,1.39-.85,0-1.47-.66-1.47-1.57,0-.84.61-1.43,1.45-1.42.82.02,1.45.7,1.47,1.59Z"/>
  <path class="cls-1" d="m22.68,231.43c-.91,0-1.55-.61-1.52-1.47.02-.83.7-1.44,1.6-1.41.76.02,1.48.79,1.49,1.59,0,.74-.66,1.29-1.57,1.29Z"/>
  <path class="cls-1" d="m310.52,48.55c.8.02,1.36.61,1.33,1.4-.03.84-.78,1.42-1.8,1.38-.87-.04-1.4-.57-1.35-1.35.05-.75.94-1.45,1.82-1.42Z"/>
  <path class="cls-1" d="m342.22,286.48c-.84.02-1.42-.47-1.46-1.26-.05-.92.59-1.56,1.58-1.57.83,0,1.47.51,1.51,1.24.05.84-.68,1.56-1.63,1.59Z"/>
  <path class="cls-1" d="m69.93,72.94c-.01-.89.51-1.45,1.36-1.47.86-.02,1.54.62,1.56,1.47.02.85-.55,1.51-1.33,1.55-.92.04-1.58-.6-1.59-1.55Z"/>
  <path class="cls-1" d="m337.65,85.49c.02.94-.48,1.52-1.31,1.51-.86-.01-1.54-.67-1.56-1.5-.02-.84.64-1.5,1.52-1.51.8,0,1.32.57,1.35,1.5Z"/>
  <path class="cls-1" d="m316.75,320.83c-.82-.01-1.46-.66-1.42-1.45.04-.86.72-1.62,1.45-1.64.73-.02,1.4.69,1.4,1.49,0,.9-.63,1.6-1.43,1.59Z"/>
  <path class="cls-1" d="m22.45,226.03c-.91.02-1.55-.62-1.57-1.58-.01-.84.46-1.34,1.3-1.38.89-.04,1.52.6,1.58,1.59.04.79-.5,1.36-1.31,1.37Z"/>
  <path class="cls-1" d="m15.75,220.21c.86-.02,1.31.27,1.58.82.29.58.56,1.2.06,1.77-.23.26-.66.5-1.01.5-1.19,0-2.05-1.58-1.39-2.55.2-.29.61-.44.76-.54Z"/>
  <path class="cls-1" d="m368.24,223.63c.03.81-.77,1.6-1.62,1.6-.73,0-1.33-.69-1.33-1.56,0-.8.59-1.38,1.46-1.43.78-.05,1.46.59,1.5,1.39Z"/>
  <path class="cls-1" d="m228.29,357.19c.79,0,1.43.62,1.45,1.42.02.88-.61,1.53-1.47,1.52-.9,0-1.5-.59-1.51-1.48,0-.87.6-1.45,1.53-1.46Z"/>
  <path class="cls-1" d="m364.58,202.74c.85,0,1.42.51,1.44,1.27.02.91-.65,1.61-1.54,1.63-.88.01-1.44-.54-1.41-1.4.03-.91.63-1.5,1.51-1.49Z"/>
  <path class="cls-1" d="m321.55,305.76c-.93,0-1.49-.51-1.48-1.34.02-.96.59-1.59,1.42-1.56.85.03,1.55.73,1.54,1.52-.01.79-.65,1.38-1.49,1.38Z"/>
  <path class="cls-1" d="m353.75,256.27c-.01.83-.52,1.33-1.36,1.34-.93,0-1.5-.64-1.47-1.64.03-.87.53-1.4,1.32-1.37.88.03,1.53.75,1.51,1.68Z"/>
  <path class="cls-1" d="m62.54,314.13c.02.81-.59,1.37-1.49,1.37-.93,0-1.56-.65-1.55-1.6,0-.83.49-1.3,1.37-1.3.89,0,1.65.7,1.67,1.53Z"/>
  <path class="cls-1" d="m47.45,97.37c0,.97-.45,1.48-1.33,1.48-.88,0-1.48-.6-1.52-1.51-.03-.84.56-1.49,1.36-1.51.83-.02,1.47.65,1.48,1.54Z"/>
  <path class="cls-1" d="m357.94,108.04c-.54.24-.86.44-1.2.52-1.16.29-2.22-.71-2-1.87.09-.48.39-.8.86-.89.63-.13,1.26-.07,1.62.51.3.49.45,1.07.72,1.73Z"/>
  <path class="cls-1" d="m345.83,281.43c-.89.01-1.4-.48-1.43-1.39-.02-.97.53-1.6,1.38-1.58.81.02,1.46.63,1.5,1.41.04.86-.6,1.54-1.45,1.56Z"/>
  <path class="cls-1" d="m128.28,28.72c-.79-.03-1.26-.66-1.2-1.6.05-.87.63-1.39,1.5-1.35.78.04,1.37.65,1.35,1.39-.03.89-.76,1.59-1.64,1.56Z"/>
  <path class="cls-1" d="m205.76,21.04c0-.86.49-1.45,1.23-1.48.84-.03,1.55.63,1.57,1.48.02.78-.65,1.56-1.34,1.58-.8.03-1.45-.68-1.45-1.58Z"/>
  <path class="cls-1" d="m83.45,59.97c.87,0,1.59.67,1.58,1.47,0,.79-.68,1.47-1.44,1.45-.86-.02-1.5-.69-1.47-1.55.03-.84.55-1.38,1.33-1.37Z"/>
  <path class="cls-1" d="m175.08,13.74c0,.86-.68,1.51-1.53,1.48-.75-.03-1.27-.54-1.29-1.28-.02-.82.74-1.71,1.5-1.75.69-.03,1.33.71,1.33,1.55Z"/>
  <path class="cls-1" d="m80.66,64.59c0,.83-.63,1.51-1.39,1.5-.85-.01-1.5-.7-1.48-1.56.02-.82.55-1.39,1.32-1.41.88-.02,1.55.62,1.55,1.48Z"/>
  <path class="cls-1" d="m149.58,361.46c-.81,0-1.43-.56-1.44-1.29-.02-.87.6-1.47,1.53-1.48.89,0,1.52.47,1.55,1.17.03.77-.82,1.61-1.64,1.6Z"/>
  <path class="cls-1" d="m370.27,206.2c.03.93-.61,1.65-1.49,1.68-.85.03-1.36-.51-1.36-1.45,0-.93.54-1.5,1.46-1.53.84-.02,1.37.46,1.39,1.29Z"/>
  <path class="cls-1" d="m266.98,29.8c-.79.03-1.54-.59-1.6-1.32-.07-.85.51-1.57,1.26-1.6.8-.03,1.69.86,1.71,1.7.02.68-.55,1.18-1.37,1.21Z"/>
  <path class="cls-1" d="m14.64,184.93c-.07.98-.59,1.57-1.34,1.49-.81-.08-1.52-.94-1.46-1.76.06-.75.68-1.25,1.51-1.2.92.05,1.35.54,1.29,1.48Z"/>
  <path class="cls-1" d="m364.48,140.48c.02.84-.58,1.45-1.39,1.45-.84,0-1.42-.57-1.44-1.41-.02-.85.53-1.43,1.38-1.45.82-.02,1.44.58,1.45,1.41Z"/>
  <path class="cls-1" d="m313.36,61.44c-.81,0-1.41-.55-1.41-1.3,0-.79.67-1.34,1.65-1.34.9,0,1.44.48,1.41,1.25-.03.77-.76,1.39-1.65,1.39Z"/>
  <path class="cls-1" d="m245.35,22.86c-.9,0-1.5-.56-1.49-1.38.01-.82.59-1.28,1.57-1.27.9.01,1.53.56,1.54,1.35,0,.69-.75,1.29-1.62,1.3Z"/>
  <path class="cls-1" d="m249.02,22.18c.03-.86.65-1.55,1.38-1.53.73.02,1.46.86,1.43,1.66-.02.74-.7,1.33-1.46,1.29-.77-.05-1.38-.68-1.35-1.41Z"/>
  <path class="cls-1" d="m56.82,298.58c0,.73-.62,1.33-1.39,1.36-.78.03-1.5-.64-1.48-1.39.02-.81.77-1.56,1.53-1.53.74.03,1.34.73,1.34,1.56Z"/>
  <path class="cls-1" d="m366.33,146.18c.02.85-.49,1.39-1.31,1.38-.91-.01-1.52-.59-1.56-1.49-.04-.83.46-1.35,1.32-1.36.91-.01,1.53.58,1.55,1.47Z"/>
  <path class="cls-1" d="m349.97,259.38c.83.07,1.49.8,1.45,1.61-.03.75-.6,1.3-1.31,1.26-.9-.04-1.55-.78-1.49-1.68.05-.78.58-1.25,1.35-1.19Z"/>
  <path class="cls-1" d="m354.68,111.93c-.01.93-.53,1.5-1.35,1.48-.78-.02-1.38-.66-1.38-1.51,0-.75.69-1.49,1.42-1.5.75-.02,1.32.65,1.31,1.54Z"/>
  <path class="cls-1" d="m351.63,105.46c0,.87-.58,1.5-1.36,1.52-.85.02-1.5-.6-1.45-1.39.04-.78.83-1.52,1.6-1.5.68.02,1.23.64,1.22,1.38Z"/>
  <path class="cls-1" d="m235.69,357.22c-.02.74-.58,1.31-1.29,1.32-.82,0-1.67-.8-1.68-1.58,0-.77.59-1.29,1.44-1.26.9.03,1.55.67,1.53,1.52Z"/>
  <path class="cls-1" d="m366.28,217.86c0-.83.51-1.27,1.42-1.24.87.03,1.44.53,1.46,1.28.02.78-.65,1.52-1.4,1.52-.86,0-1.49-.67-1.48-1.56Z"/>
  <path class="cls-1" d="m127.06,353.04c.02.89-.68,1.62-1.56,1.61-.7,0-1.22-.48-1.27-1.17-.06-.85.77-1.7,1.66-1.69.67,0,1.15.52,1.17,1.25Z"/>
  <path class="cls-1" d="m42.15,99.39c.82-.02,1.33.42,1.35,1.19.03.9-.56,1.55-1.43,1.59-.83.04-1.46-.5-1.46-1.24,0-.83.69-1.51,1.54-1.54Z"/>
  <path class="cls-1" d="m41.09,288.07c-.02.72-.59,1.29-1.3,1.3-.86.01-1.69-.76-1.65-1.56.03-.7.68-1.21,1.53-1.2.83.01,1.45.64,1.43,1.45Z"/>
  <path class="cls-1" d="m352.93,283.27c-.88.03-1.46-.49-1.5-1.34-.04-.83.46-1.48,1.18-1.53.83-.06,1.52.6,1.55,1.46.03.91-.38,1.39-1.23,1.41Z"/>
  <path class="cls-1" d="m302.98,50.7c.82,0,1.56.72,1.55,1.51,0,.72-.56,1.26-1.31,1.28-.87.02-1.53-.63-1.52-1.5.01-.77.52-1.29,1.27-1.29Z"/>
  <path class="cls-1" d="m87.82,58.46c-.85-.02-1.61-.82-1.57-1.66.03-.71.51-1.13,1.29-1.12.91,0,1.58.65,1.56,1.48-.02.78-.55,1.31-1.28,1.3Z"/>
  <path class="cls-1" d="m189.95,21.53c-.79,0-1.24-.54-1.22-1.44.02-.84.57-1.46,1.28-1.43.83.03,1.42.64,1.4,1.47-.01.83-.61,1.4-1.47,1.4Z"/>
  <path class="cls-1" d="m363.96,210.42c-.86,0-1.4-.57-1.39-1.46,0-.85.52-1.37,1.34-1.36.85.01,1.45.63,1.43,1.45-.03.8-.6,1.37-1.37,1.37Z"/>
  <path class="cls-1" d="m324.38,63.85c-.8-.03-1.39-.62-1.36-1.35.03-.74.85-1.49,1.61-1.48.72,0,1.34.7,1.27,1.44-.07.76-.79,1.43-1.52,1.4Z"/>
  <path class="cls-1" d="m50.57,276.57c0,.85-.7,1.51-1.55,1.48-.72-.02-1.17-.55-1.17-1.39,0-.89.47-1.44,1.24-1.46.89-.02,1.48.53,1.48,1.36Z"/>
  <path class="cls-1" d="m363.61,246.38c.01.8-.59,1.41-1.44,1.44-.84.04-1.34-.44-1.36-1.3-.02-.89.61-1.56,1.46-1.56.72,0,1.33.64,1.34,1.41Z"/>
  <path class="cls-1" d="m225.66,363.15c.85.02,1.45.65,1.4,1.47-.04.73-.62,1.25-1.37,1.23-.85-.02-1.49-.64-1.48-1.43.01-.79.59-1.3,1.44-1.27Z"/>
  <path class="cls-1" d="m290.73,40.81c.02.82-.58,1.46-1.39,1.49-.79.02-1.3-.51-1.31-1.36,0-.85.56-1.45,1.37-1.49.75-.04,1.3.53,1.32,1.37Z"/>
  <path class="cls-1" d="m21.43,220.34c-.85.02-1.44-.49-1.45-1.26-.01-.83.61-1.46,1.43-1.45.76.01,1.39.61,1.42,1.36.03.72-.6,1.33-1.4,1.35Z"/>
  <path class="cls-1" d="m52.92,88.06c-.84,0-1.45-.55-1.43-1.29.02-.73.73-1.38,1.54-1.41.72-.03,1.34.55,1.35,1.25,0,.78-.68,1.46-1.46,1.46Z"/>
  <path class="cls-1" d="m30.87,128.09c-.02.86-.69,1.46-1.57,1.42-.76-.04-1.28-.58-1.25-1.3.04-.83.64-1.42,1.45-1.43.84,0,1.38.51,1.37,1.3Z"/>
  <path class="cls-1" d="m234.02,17.12c.73.02,1.14.54,1.11,1.4-.03.83-.67,1.49-1.43,1.45-.7-.03-1.26-.65-1.22-1.36.04-.87.71-1.52,1.54-1.49Z"/>
  <path class="cls-1" d="m164.19,364.18c0-.85.48-1.38,1.28-1.4.83-.02,1.41.58,1.39,1.44-.02.75-.62,1.34-1.39,1.36-.76.02-1.28-.55-1.29-1.4Z"/>
  <path class="cls-1" d="m52.27,303.82c-.8.02-1.33-.49-1.37-1.33-.04-.83.47-1.39,1.27-1.4.77,0,1.46.63,1.5,1.41.04.71-.59,1.3-1.39,1.32Z"/>
  <path class="cls-1" d="m77.7,59.12c.02.76-.58,1.49-1.25,1.52-.67.03-1.38-.73-1.42-1.51-.04-.84.56-1.49,1.37-1.48.67,0,1.28.69,1.3,1.47Z"/>
  <path class="cls-1" d="m319.01,308.15c.02.75-.68,1.46-1.43,1.46-.72,0-1.33-.64-1.35-1.39-.02-.83.58-1.45,1.41-1.43.77.01,1.36.6,1.37,1.36Z"/>
  <path class="cls-1" d="m314.69,314.04c0,.76-.51,1.29-1.26,1.29-.75,0-1.5-.69-1.52-1.41-.02-.73.62-1.37,1.37-1.36.78,0,1.4.66,1.41,1.48Z"/>
  <path class="cls-1" d="m20.34,141.32c-.81,0-1.36-.49-1.34-1.2.01-.79.66-1.49,1.41-1.52.79-.03,1.43.56,1.42,1.3-.01.76-.7,1.42-1.49,1.42Z"/>
  <path class="cls-1" d="m372.59,194.13c.01.85-.56,1.45-1.39,1.46-.83.01-1.33-.5-1.32-1.35.01-.84.51-1.37,1.31-1.4.83-.03,1.39.48,1.4,1.29Z"/>
  <path class="cls-1" d="m43.1,279.88c-.89.01-1.54-.52-1.57-1.3-.03-.67.56-1.25,1.29-1.3.82-.05,1.61.63,1.63,1.42.02.7-.52,1.16-1.36,1.18Z"/>
  <path class="cls-1" d="m103.07,48.56c-.79.02-1.38-.58-1.43-1.45-.04-.74.47-1.28,1.24-1.31.76-.02,1.49.64,1.53,1.39.05.75-.54,1.35-1.34,1.37Z"/>
  <path class="cls-1" d="m216.76,17.03c-.82,0-1.5-.55-1.53-1.22-.03-.74.69-1.41,1.49-1.38.85.03,1.6.68,1.56,1.35-.04.66-.76,1.25-1.53,1.25Z"/>
  <path class="cls-1" d="m26.04,146.94c-.01.79-.67,1.44-1.46,1.44-.8,0-1.3-.56-1.27-1.41.03-.8.58-1.36,1.36-1.38.78-.02,1.38.57,1.37,1.35Z"/>
  <path class="cls-1" d="m190.86,367.04c.01.82-.6,1.55-1.33,1.56-.75.01-1.31-.5-1.34-1.23-.04-.9.57-1.61,1.39-1.61.75,0,1.27.52,1.28,1.28Z"/>
  <path class="cls-1" d="m329.37,66.47c-.02.87-.4,1.26-1.24,1.25-.82-.01-1.42-.58-1.39-1.32.03-.75.74-1.53,1.42-1.54.72-.01,1.23.67,1.21,1.61Z"/>
  <path class="cls-1" d="m18.7,131.04c-.01.82-.55,1.4-1.3,1.4-.85,0-1.43-.57-1.4-1.42.03-.85.61-1.36,1.5-1.32.75.03,1.22.55,1.21,1.33Z"/>
  <path class="cls-1" d="m33.51,269.24c.03.78-.6,1.45-1.4,1.5-.73.04-1.25-.4-1.3-1.1-.06-.9.52-1.58,1.38-1.63.73-.04,1.3.49,1.32,1.24Z"/>
  <path class="cls-1" d="m111.93,36.58c-.72.02-1.2-.42-1.25-1.16-.06-.82.58-1.42,1.55-1.46.79-.03,1.34.39,1.35,1.03.02.81-.76,1.55-1.65,1.58Z"/>
  <path class="cls-1" d="m370,140.44c.97,0,1.62.5,1.62,1.22,0,.62-.79,1.37-1.42,1.36-.88-.01-1.62-.69-1.59-1.45.03-.72.54-1.14,1.4-1.13Z"/>
  <path class="cls-1" d="m57.19,80.44c0,.81-.55,1.38-1.34,1.39-.77.01-1.38-.6-1.37-1.37.02-.82.6-1.43,1.34-1.4.8.03,1.37.61,1.37,1.38Z"/>
  <path class="cls-1" d="m199.52,361.98c-.02.82-.63,1.33-1.55,1.31-.78-.02-1.26-.53-1.23-1.31.03-.77.74-1.38,1.55-1.34.77.04,1.25.56,1.22,1.34Z"/>
  <path class="cls-1" d="m94.28,340.5c.77,0,1.36.57,1.38,1.34.02.75-.57,1.38-1.32,1.41-.74.03-1.32-.63-1.33-1.52,0-.77.47-1.24,1.27-1.24Z"/>
  <path class="cls-1" d="m340.87,291.69c-.07.82-.74,1.39-1.56,1.32-.73-.06-1.23-.67-1.15-1.4.08-.78.79-1.38,1.59-1.33.72.04,1.19.63,1.12,1.42Z"/>
  <path class="cls-1" d="m323.69,300.46c0-.77.42-1.21,1.15-1.23.81-.02,1.38.63,1.39,1.59,0,.82-.45,1.32-1.2,1.3-.78-.02-1.35-.72-1.34-1.67Z"/>
  <path class="cls-1" d="m367.14,136.29c-.75-.03-1.31-.65-1.31-1.45,0-.79.72-1.45,1.5-1.39.76.06,1.21.63,1.19,1.52-.02.84-.55,1.35-1.38,1.32Z"/>
  <path class="cls-1" d="m76.1,320.61c0,.78-.57,1.38-1.33,1.38-.77,0-1.35-.56-1.37-1.35-.02-.78.53-1.36,1.33-1.38.76-.02,1.36.58,1.37,1.35Z"/>
  <path class="cls-1" d="m233.23,363.89c0,.82-.63,1.47-1.43,1.44-.69-.02-1.2-.53-1.23-1.23-.04-.82.59-1.49,1.39-1.5.77,0,1.27.49,1.28,1.28Z"/>
  <path class="cls-1" d="m324.58,71.79c-.02-.79.48-1.39,1.17-1.41.73-.01,1.34.62,1.36,1.4.02.77-.5,1.39-1.18,1.4-.77.01-1.32-.57-1.34-1.4Z"/>
  <path class="cls-1" d="m202.81,19.86c0,.74-.52,1.23-1.32,1.23-.82,0-1.35-.51-1.37-1.34-.02-.79.45-1.29,1.23-1.31.81-.02,1.46.61,1.46,1.42Z"/>
  <path class="cls-1" d="m197.46,20.06c-.03.77-.6,1.24-1.48,1.22-.83-.02-1.25-.47-1.21-1.29.03-.82.59-1.37,1.37-1.35.78.03,1.35.64,1.32,1.41Z"/>
  <path class="cls-1" d="m371.98,180.7c.88.02,1.45.61,1.41,1.45-.03.76-.57,1.21-1.38,1.17-.77-.04-1.29-.58-1.28-1.32,0-.82.49-1.32,1.25-1.3Z"/>
  <path class="cls-1" d="m311.21,320.74c.83-.02,1.42.49,1.46,1.24.03.76-.53,1.43-1.25,1.47-.76.05-1.41-.52-1.44-1.26-.04-.81.49-1.43,1.23-1.45Z"/>
  <path class="cls-1" d="m323.52,313.99c.02.76-.48,1.31-1.22,1.34-.84.03-1.46-.51-1.45-1.25,0-.6.68-1.47,1.17-1.51.71-.06,1.49.67,1.5,1.42Z"/>
  <path class="cls-1" d="m191.95,13.32c.8,0,1.4.57,1.39,1.31,0,.78-.58,1.33-1.37,1.32-.79-.01-1.32-.57-1.3-1.38.01-.76.52-1.26,1.29-1.25Z"/>
  <path class="cls-1" d="m61.2,76.88c-.06.71-.79,1.37-1.47,1.33-.72-.04-1.21-.66-1.14-1.42.08-.81.81-1.41,1.59-1.31.63.08,1.08.7,1.02,1.41Z"/>
  <path class="cls-1" d="m192.64,363c-.73-.02-1.21-.55-1.2-1.35,0-.81.55-1.44,1.28-1.45.73-.02,1.18.57,1.14,1.5-.03.86-.46,1.31-1.22,1.3Z"/>
  <path class="cls-1" d="m318.54,55.86c.45.24.79.37,1.07.58.52.4.63.93.37,1.48-.28.59-.88.97-1.43.91-.9-.1-1.4-1.07-.92-1.9.21-.37.56-.66.92-1.08Z"/>
  <path class="cls-1" d="m111.19,41.72c.02-.71.52-1.24,1.18-1.25.75-.01,1.39.69,1.37,1.51-.02.83-.51,1.34-1.23,1.29-.79-.05-1.35-.7-1.32-1.55Z"/>
  <path class="cls-1" d="m371.38,235.05c0-.77.42-1.24,1.13-1.24.88-.01,1.57.55,1.59,1.29.01.61-.66,1.35-1.25,1.39-.74.05-1.46-.66-1.47-1.43Z"/>
  <path class="cls-1" d="m166.28,16.5c.02-.78.62-1.28,1.45-1.22.83.05,1.39.63,1.34,1.37-.04.67-.66,1.18-1.41,1.18-.81,0-1.4-.57-1.38-1.32Z"/>
  <path class="cls-1" d="m347.19,290.75c.02.84-.55,1.49-1.36,1.53-.69.04-1.2-.44-1.24-1.16-.05-.89.56-1.58,1.42-1.59.68-.01,1.16.49,1.18,1.23Z"/>
  <path class="cls-1" d="m65.35,307.46c0,.75-.62,1.33-1.4,1.32-.74,0-1.26-.55-1.23-1.31.02-.75.62-1.31,1.41-1.32.72-.01,1.23.53,1.22,1.31Z"/>
  <path class="cls-1" d="m263.52,20.64c-.03.74-.51,1.25-1.18,1.26-.79,0-1.42-.67-1.38-1.5.04-.76.49-1.18,1.25-1.16.82.03,1.35.59,1.32,1.39Z"/>
  <path class="cls-1" d="m359.48,123.84c.02.82-.5,1.35-1.31,1.35-.8,0-1.36-.56-1.34-1.34.01-.69.62-1.26,1.33-1.26.73,0,1.31.55,1.33,1.25Z"/>
  <path class="cls-1" d="m361.7,227.71c-.83.02-1.36-.51-1.35-1.33,0-.75.53-1.26,1.29-1.28.77-.02,1.39.58,1.38,1.34-.02.71-.58,1.26-1.32,1.27Z"/>
  <path class="cls-1" d="m20.45,241.93c-.01.86-.53,1.44-1.26,1.43-.77-.02-1.31-.55-1.3-1.26,0-.77.7-1.51,1.39-1.52.72,0,1.18.53,1.16,1.35Z"/>
  <path class="cls-1" d="m95.93,42.49c.79,0,1.37.58,1.35,1.36-.02.76-.54,1.28-1.3,1.28-.79,0-1.33-.56-1.34-1.39,0-.76.49-1.25,1.29-1.26Z"/>
  <path class="cls-1" d="m291.74,43.8c.03-.79.54-1.32,1.26-1.29.7.03,1.38.83,1.35,1.57-.03.62-.66,1.11-1.36,1.06-.75-.05-1.27-.61-1.25-1.34Z"/>
  <path class="cls-1" d="m203.12,368.31c-.02.77-.48,1.31-1.11,1.31-.79,0-1.43-.65-1.43-1.46,0-.8.51-1.32,1.25-1.28.79.04,1.31.61,1.29,1.43Z"/>
  <path class="cls-1" d="m349.5,274.57c.69.02,1.53.74,1.49,1.29-.05.63-.75,1.33-1.34,1.34-.71.01-1.45-.76-1.42-1.5.03-.68.56-1.15,1.28-1.13Z"/>
  <path class="cls-1" d="m82.75,336.27c-.75,0-1.2-.5-1.21-1.33-.01-.8.49-1.34,1.22-1.32.66.02,1.4.66,1.42,1.21.02.85-.57,1.43-1.42,1.43Z"/>
  <path class="cls-1" d="m361.67,257.9c-.02-.83.52-1.44,1.27-1.45.74,0,1.36.62,1.36,1.39,0,.53-.77,1.2-1.42,1.23-.72.04-1.19-.42-1.21-1.18Z"/>
  <path class="cls-1" d="m26.52,240.57c.39.55.72.95.96,1.4.35.64.19,1.25-.33,1.58-.49.32-1.41.24-1.81-.16-.39-.4-.41-.94.01-1.52.31-.41.68-.77,1.16-1.3Z"/>
  <path class="cls-1" d="m26.85,124.61c.02.8-.53,1.39-1.31,1.44-.75.05-1.34-.56-1.33-1.38,0-.74.52-1.25,1.31-1.28.8-.03,1.31.43,1.33,1.22Z"/>
  <path class="cls-1" d="m26.42,258.74c-.03.71-.55,1.24-1.21,1.22-.77-.02-1.36-.8-1.3-1.7.05-.68.53-1.12,1.18-1.08.75.04,1.36.76,1.32,1.57Z"/>
  <path class="cls-1" d="m209.76,362.58c-.84.03-1.43-.42-1.45-1.1-.01-.71.73-1.47,1.46-1.5.65-.02,1.26.6,1.29,1.32.02.71-.53,1.25-1.3,1.27Z"/>
  <path class="cls-1" d="m80.72,54.49c-.03-.83.49-1.43,1.25-1.44.77-.01,1.27.46,1.32,1.24.04.62-.69,1.37-1.36,1.41-.66.04-1.18-.49-1.21-1.21Z"/>
  <path class="cls-1" d="m375.94,159.55c-.02.8-.56,1.33-1.37,1.32-.73,0-1.26-.5-1.23-1.16.03-.74.77-1.45,1.49-1.44.67,0,1.12.52,1.11,1.28Z"/>
  <path class="cls-1" d="m159.71,361.45c.83.02,1.36.56,1.34,1.36-.02.72-.56,1.18-1.38,1.16-.77-.01-1.27-.53-1.26-1.29,0-.77.52-1.25,1.31-1.23Z"/>
  <path class="cls-1" d="m27.93,118.2c-.75-.03-1.28-.49-1.28-1.14,0-.73.83-1.42,1.66-1.38.6.03,1.07.58,1.05,1.22-.03.76-.64,1.32-1.43,1.29Z"/>
  <path class="cls-1" d="m366.21,231.96c-.76,0-1.34-.53-1.34-1.23,0-.69.52-1.29,1.14-1.31.79-.02,1.51.66,1.49,1.4-.02.67-.54,1.13-1.29,1.14Z"/>
  <path class="cls-1" d="m7,168.3c0-.89.4-1.43,1.07-1.42.62,0,1.31.79,1.3,1.48-.02.78-.53,1.4-1.16,1.41-.74,0-1.2-.54-1.21-1.46Z"/>
  <path class="cls-1" d="m57.84,91.41c0,.85-.58,1.49-1.38,1.48-.69,0-1.11-.47-1.12-1.26-.01-.83.5-1.39,1.29-1.4.73,0,1.2.45,1.21,1.18Z"/>
  <path class="cls-1" d="m359.16,111.51c0-.85.52-1.4,1.3-1.4.7,0,1.27.6,1.27,1.33,0,.61-.78,1.32-1.47,1.33-.71.01-1.1-.43-1.1-1.26Z"/>
  <path class="cls-1" d="m357.26,263.75c0,.74-.52,1.28-1.26,1.29-.72.01-1.31-.47-1.32-1.09-.02-.73.6-1.42,1.3-1.46.73-.03,1.28.51,1.29,1.26Z"/>
  <path class="cls-1" d="m324.28,310.51c-.75-.02-1.25-.57-1.21-1.34.04-.75.62-1.32,1.3-1.29.62.03,1.25.81,1.24,1.54,0,.63-.59,1.1-1.34,1.09Z"/>
  <path class="cls-1" d="m241.47,18.5c.01.79-.62,1.44-1.42,1.45-.63.01-1.18-.51-1.17-1.1.02-.73.85-1.57,1.55-1.57.6,0,1.03.5,1.04,1.21Z"/>
  <path class="cls-1" d="m282.93,342.6c.75-.02,1.25.54,1.25,1.41,0,.7-.5,1.21-1.18,1.23-.62.01-1.39-.75-1.39-1.39,0-.68.57-1.23,1.33-1.25Z"/>
  <path class="cls-1" d="m199.62,13.68c-.23.53-.36.99-.61,1.37-.38.57-1.1.69-1.7.35-.55-.31-.76-1.03-.48-1.67.26-.6.75-.81,1.5-.59.38.11.73.3,1.29.53Z"/>
  <path class="cls-1" d="m113.23,351.22c-.02.76-.48,1.24-1.18,1.21-.67-.03-1.41-.75-1.43-1.4-.02-.65.65-1.21,1.4-1.17.75.04,1.22.58,1.21,1.36Z"/>
  <path class="cls-1" d="m179.1,14.69c.02-.84.57-1.39,1.35-1.35.67.03,1.17.58,1.15,1.28-.02.75-.65,1.35-1.41,1.35-.7,0-1.11-.48-1.09-1.28Z"/>
  <path class="cls-1" d="m121.8,356.32c0,.8-.57,1.38-1.35,1.35-.69-.02-1.16-.45-1.19-1.09-.03-.74.66-1.48,1.4-1.52.65-.03,1.13.49,1.14,1.26Z"/>
  <path class="cls-1" d="m144.87,22.04c-.79.02-1.29-.44-1.31-1.22-.01-.77.42-1.27,1.11-1.27.65,0,1.55.72,1.56,1.25.01.65-.61,1.22-1.36,1.24Z"/>
  <path class="cls-1" d="m341.85,89.53c.76,0,1.23.47,1.21,1.18-.03.74-.76,1.46-1.49,1.45-.66,0-1.12-.55-1.1-1.3.02-.8.58-1.34,1.39-1.33Z"/>
  <path class="cls-1" d="m363.16,118.04c0,.82-.46,1.35-1.17,1.38-.57.02-1.26-.78-1.29-1.49-.03-.75.51-1.27,1.28-1.24.75.03,1.18.52,1.18,1.36Z"/>
  <path class="cls-1" d="m285.73,37.63c0,.7-.49,1.24-1.16,1.26-.79.03-1.4-.53-1.42-1.29-.03-.82.41-1.3,1.2-1.3.81,0,1.37.54,1.38,1.33Z"/>
  <path class="cls-1" d="m364.21,234.59c.75-.02,1.31.53,1.3,1.27-.02.72-.59,1.26-1.34,1.26-.69,0-1.18-.5-1.23-1.23-.04-.72.51-1.29,1.27-1.3Z"/>
  <path class="cls-1" d="m72.25,325.2c1.22.46,1.52.84,1.42,1.7-.07.59-.41.93-.99,1.03-.58.1-1.21-.21-1.38-.71-.32-.94.28-1.47.96-2.02Z"/>
  <path class="cls-1" d="m226.9,18.65c-.82,0-1.26-.43-1.27-1.25,0-.82.37-1.24,1.12-1.26.86-.03,1.53.42,1.51.99-.04.93-.56,1.51-1.36,1.52Z"/>
  <path class="cls-1" d="m202.47,361.94c-.02-.79.52-1.39,1.29-1.43.68-.03,1.21.48,1.21,1.18,0,.75-.61,1.43-1.31,1.46-.67.03-1.17-.48-1.19-1.22Z"/>
  <path class="cls-1" d="m255.66,26.83c-.78-.02-1.35-.62-1.33-1.4.02-.67.47-1.09,1.16-1.09.8,0,1.47.7,1.42,1.47-.04.62-.55,1.04-1.25,1.02Z"/>
  <path class="cls-1" d="m13.13,190.48c.77,0,1.28.5,1.31,1.25.02.76-.56,1.33-1.36,1.33-.75,0-1.2-.43-1.21-1.17-.01-.85.49-1.41,1.26-1.4Z"/>
  <path class="cls-1" d="m334.91,286.12c0-.68.48-1.17,1.11-1.15.61.03,1.47.84,1.47,1.39,0,.57-.59,1.2-1.12,1.22-.73.02-1.46-.71-1.47-1.46Z"/>
  <path class="cls-1" d="m361.73,135.5c-.79,0-1.29-.51-1.27-1.28.02-.73.58-1.24,1.36-1.23.72.01,1.21.52,1.21,1.23,0,.76-.53,1.28-1.3,1.28Z"/>
  <path class="cls-1" d="m310.64,317.31c-.02.79-.56,1.33-1.27,1.28-.71-.05-1.18-.61-1.17-1.41,0-.79.51-1.3,1.27-1.27.7.03,1.2.62,1.18,1.39Z"/>
  <path class="cls-1" d="m71.81,66.54c-.29-.8-.54-1.39-.71-2-.18-.65.03-1.12.52-1.3.54-.2,1.05-.11,1.44.32.41.44.41.94.03,1.41-.37.47-.75.92-1.29,1.57Z"/>
  <path class="cls-1" d="m37.59,280.38c.71,0,1.49.67,1.52,1.3.03.64-.57,1.23-1.23,1.22-.76-.02-1.43-.66-1.42-1.36.01-.67.49-1.16,1.13-1.16Z"/>
  <path class="cls-1" d="m375.48,197.94c.81,0,1.48.66,1.46,1.44-.02.63-.46,1.09-1.04,1.09-.76,0-1.61-.78-1.62-1.5,0-.63.46-1.04,1.21-1.03Z"/>
  <path class="cls-1" d="m11.01,179.47c0-.85.46-1.39,1.17-1.4.74-.01,1.24.53,1.21,1.34-.03.74-.62,1.32-1.31,1.28-.64-.04-1.07-.54-1.06-1.22Z"/>
  <path class="cls-1" d="m45.07,293.88c-.73-.02-1.17-.49-1.15-1.26.02-.73.57-1.25,1.33-1.26.76,0,1.25.53,1.21,1.33-.04.73-.6,1.21-1.39,1.19Z"/>
  <path class="cls-1" d="m16.44,135.75c.03.73-.43,1.3-1.08,1.35-.76.05-1.3-.45-1.32-1.21-.01-.8.56-1.45,1.27-1.45.6,0,1.1.58,1.12,1.32Z"/>
  <path class="cls-1" d="m146.5,28.14c-.02.72-.51,1.21-1.21,1.21-.77,0-1.32-.61-1.28-1.41.04-.67.61-1.19,1.27-1.16.69.03,1.24.65,1.22,1.37Z"/>
  <path class="cls-1" d="m131.71,353.68c.84,0,1.47.54,1.47,1.26,0,.74-.5,1.31-1.14,1.29-.69-.02-1.42-.81-1.43-1.55-.01-.61.41-1,1.1-1Z"/>
  <path class="cls-1" d="m334.2,71.55c-.79,0-1.25-.49-1.23-1.3.02-.7.66-1.31,1.34-1.26.55.03,1.22.85,1.2,1.47-.01.68-.53,1.1-1.32,1.1Z"/>
  <path class="cls-1" d="m7.9,187.23c.02.72-.53,1.33-1.22,1.35-.65.03-1.21-.49-1.25-1.17-.05-.77.52-1.4,1.29-1.4.68,0,1.17.5,1.19,1.22Z"/>
  <path class="cls-1" d="m333.23,300.07c0,.7-.44,1.16-1.08,1.13-.71-.03-1.47-.81-1.46-1.49,0-.59.57-1.07,1.22-1.05.75.03,1.32.64,1.33,1.41Z"/>
  <path class="cls-1" d="m318.44,326.94c-.71,0-1.18-.49-1.18-1.21,0-.75.52-1.35,1.2-1.38.72-.03,1.23.51,1.23,1.3,0,.78-.49,1.29-1.25,1.29Z"/>
  <path class="cls-1" d="m26.42,133.85c0-.65.47-1.16,1.09-1.18.68-.03,1.35.65,1.36,1.39.01.65-.44,1.12-1.11,1.15-.76.03-1.35-.56-1.35-1.35Z"/>
  <path class="cls-1" d="m6.78,180c.79,0,1.27.46,1.29,1.25.02.75-.38,1.13-1.19,1.16-.82.03-1.36-.42-1.37-1.15-.02-.75.5-1.26,1.27-1.26Z"/>
  <path class="cls-1" d="m272.27,351.49c-.76.03-1.31-.46-1.36-1.22-.05-.72.38-1.19,1.14-1.25.76-.06,1.31.43,1.35,1.2.04.73-.42,1.24-1.13,1.27Z"/>
  <path class="cls-1" d="m34.47,104.52c.77.01,1.25.45,1.24,1.15,0,.69-.69,1.35-1.41,1.36-.66,0-1.17-.56-1.14-1.26.03-.78.53-1.25,1.31-1.24Z"/>
  <path class="cls-1" d="m197.71,368.29c-.78,0-1.28-.43-1.28-1.11,0-.74.53-1.31,1.25-1.34.74-.03,1.27.51,1.25,1.28-.02.74-.47,1.17-1.22,1.17Z"/>
  <path class="cls-1" d="m11.76,142.09c.02-.75.56-1.31,1.26-1.3.67,0,1.1.53,1.08,1.29-.02.77-.55,1.31-1.25,1.29-.69-.02-1.11-.52-1.09-1.28Z"/>
  <path class="cls-1" d="m375.42,164.63c.74,0,1.29.54,1.28,1.27-.01.59-.75,1.27-1.37,1.27-.67,0-1.13-.51-1.15-1.27-.03-.79.43-1.26,1.24-1.27Z"/>
  <path class="cls-1" d="m226.54,7.56c.63-.02,1.2.58,1.19,1.23-.01.51-.81,1.32-1.34,1.36-.59.05-1.11-.56-1.12-1.29-.01-.71.55-1.28,1.27-1.3Z"/>
  <path class="cls-1" d="m37,270.85c-.82,0-1.3-.45-1.28-1.23.01-.78.44-1.28,1.12-1.28.69,0,1.46.72,1.43,1.34-.04.69-.54,1.16-1.26,1.17Z"/>
  <path class="cls-1" d="m255.12,17.15c.66.03,1.49.91,1.43,1.52-.06.62-.62,1.09-1.23,1.06-.8-.05-1.35-.64-1.29-1.4.05-.71.51-1.19,1.1-1.17Z"/>
  <path class="cls-1" d="m266.68,353.62c-.77-.01-1.4-.48-1.4-1.04,0-.59.86-1.37,1.47-1.34.68.03,1.21.59,1.19,1.24-.02.71-.52,1.15-1.26,1.14Z"/>
  <path class="cls-1" d="m255.67,349.07c.8-.02,1.3.48,1.29,1.25-.01.68-.45,1.15-1.11,1.18-.78.04-1.32-.44-1.34-1.21-.02-.78.4-1.21,1.15-1.23Z"/>
  <path class="cls-1" d="m15.04,159.06c.02-.78.69-1.59,1.35-1.6.58-.02,1.06.63,1.02,1.37-.04.73-.61,1.28-1.33,1.28-.65,0-1.06-.41-1.05-1.04Z"/>
  <path class="cls-1" d="m99.57,338.43c-.02-.75.49-1.24,1.28-1.24.72,0,1.22.48,1.23,1.17.01.68-.58,1.25-1.31,1.25-.71,0-1.18-.46-1.21-1.19Z"/>
  <path class="cls-1" d="m91.37,46.7c.55.64,1.27,1.17.75,2.1-.29.52-.82.62-1.37.5-.59-.13-.87-.52-.89-1.12-.03-.8.28-1.13,1.51-1.49Z"/>
  <path class="cls-1" d="m375.55,207.81c-.67,0-1.46-.75-1.45-1.36.01-.51.64-1.03,1.28-1.05.54-.02,1.28.78,1.27,1.37-.01.57-.52,1.05-1.1,1.05Z"/>
  <path class="cls-1" d="m308.33,326.08c.71.03,1.15.52,1.12,1.25-.03.69-.56,1.16-1.26,1.14-.76-.02-1.22-.47-1.19-1.18.03-.73.58-1.24,1.34-1.21Z"/>
  <path class="cls-1" d="m16.94,146.65c.58.02,1.47.75,1.48,1.2.01.62-.72,1.26-1.38,1.21-.69-.05-1.22-.69-1.17-1.39.04-.63.48-1.05,1.08-1.02Z"/>
  <path class="cls-1" d="m271.79,343.67c-.02.75-.34,1.15-.93,1.13-.7-.01-1.49-.8-1.48-1.48,0-.61.55-1.05,1.24-1.01.77.04,1.2.53,1.18,1.36Z"/>
  <path class="cls-1" d="m289.05,341.33c-.02.73-.58,1.25-1.33,1.22-.7-.03-1.17-.5-1.12-1.12.05-.62.82-1.32,1.48-1.34.59-.01.99.5.97,1.24Z"/>
  <path class="cls-1" d="m14.02,214.83c0-.79.43-1.29,1.11-1.3.7-.01,1.16.48,1.16,1.24,0,.75-.46,1.3-1.12,1.31-.69.02-1.16-.5-1.15-1.26Z"/>
  <path class="cls-1" d="m267.86,24.41c-.82-.02-1.25-.48-1.23-1.3.02-.71.38-1.13.98-1.12.7,0,1.51.7,1.49,1.28-.02.75-.47,1.16-1.24,1.14Z"/>
  <path class="cls-1" d="m305.55,321.6c-.73,0-1.21-.51-1.17-1.22.03-.68.6-1.19,1.29-1.16.68.03,1.18.49,1.19,1.12.01.74-.54,1.27-1.31,1.27Z"/>
  <path class="cls-1" d="m34.99,118.13c0,.76-.45,1.28-1.13,1.28-.68,0-1.23-.52-1.26-1.2-.03-.69.48-1.23,1.17-1.26.73-.03,1.21.43,1.22,1.18Z"/>
  <path class="cls-1" d="m371.92,168.38c-.02.77-.58,1.33-1.28,1.3-.63-.03-1.03-.51-1.02-1.24.01-.77.56-1.33,1.28-1.29.65.03,1.05.51,1.03,1.23Z"/>
  <path class="cls-1" d="m307.67,332.94c0-.8.47-1.32,1.23-1.34.71-.02,1.18.35,1.17.92-.01.73-.77,1.55-1.43,1.56-.59,0-.96-.43-.97-1.13Z"/>
  <path class="cls-1" d="m188.06,14.43c0,.69-.61,1.28-1.32,1.26-.62-.02-1.08-.52-1.09-1.2,0-.71.47-1.2,1.19-1.23.74-.03,1.21.43,1.22,1.16Z"/>
  <path class="cls-1" d="m12.44,200.89c.71.02,1.3.62,1.28,1.29-.02.62-.46,1.07-1.04,1.07-.72,0-1.52-.8-1.46-1.45.05-.5.62-.93,1.22-.91Z"/>
  <path class="cls-1" d="m368.85,128.14c.02.66-.43,1.22-1.02,1.27-.68.05-1.25-.54-1.26-1.31,0-.74.47-1.27,1.16-1.26.67,0,1.1.5,1.13,1.3Z"/>
  <path class="cls-1" d="m69.57,68.11c-.03.7-.55,1.21-1.23,1.21-.67,0-1.24-.57-1.25-1.21,0-.68.63-1.21,1.4-1.17.68.04,1.11.49,1.08,1.17Z"/>
  <path class="cls-1" d="m335.94,308.21c-.76,0-1.23-.45-1.21-1.17.02-.68.53-1.12,1.29-1.13.74,0,1.24.48,1.21,1.18-.03.69-.51,1.11-1.29,1.11Z"/>
  <path class="cls-1" d="m293.96,337.17c-.02.8-.49,1.28-1.27,1.29-.62,0-1.17-.46-1.16-.98,0-.62.88-1.45,1.55-1.48.58-.02.9.4.88,1.17Z"/>
  <path class="cls-1" d="m176.27,367.52c0-.75.54-1.25,1.3-1.22.61.02,1.08.54,1.07,1.19,0,.59-.73,1.33-1.3,1.34-.63.01-1.08-.54-1.07-1.31Z"/>
  <path class="cls-1" d="m275.9,24.48c.01.61-.64,1.2-1.36,1.24-.61.03-1.13-.44-1.12-1,.02-.63.78-1.31,1.49-1.33.62-.02.98.38.99,1.09Z"/>
  <path class="cls-1" d="m373.36,147.21c-.02.7-.63,1.23-1.36,1.18-.63-.04-1.08-.49-1.06-1.06.02-.62.7-1.28,1.34-1.29.61,0,1.1.51,1.08,1.17Z"/>
  <path class="cls-1" d="m101.43,42.57c-.63.02-1.32-.62-1.36-1.27-.05-.63.42-1.12,1.1-1.16.65-.03,1.23.49,1.28,1.17.05.62-.46,1.24-1.01,1.26Z"/>
  <path class="cls-1" d="m127.49,360.19c.03.62-.39,1.13-.95,1.17-.69.05-1.43-.71-1.43-1.47,0-.54.4-.9,1.03-.93.73-.03,1.32.51,1.35,1.23Z"/>
  <path class="cls-1" d="m281.2,339.25c-.71-.03-1.19-.48-1.17-1.1.02-.58.69-1.31,1.2-1.31.65,0,1.27.71,1.21,1.39-.05.64-.55,1.05-1.25,1.02Z"/>
  <path class="cls-1" d="m7.65,206.68c-.01.71-.53,1.27-1.16,1.26-.61-.01-1.16-.65-1.12-1.3.04-.63.66-1.22,1.26-1.19.6.03,1.04.57,1.03,1.23Z"/>
  <path class="cls-1" d="m367.97,164.23c-.5-.01-1.16-.67-1.18-1.18-.02-.59.73-1.3,1.34-1.28.58.02,1.11.69,1.07,1.36-.03.48-.74,1.12-1.24,1.1Z"/>
  <path class="cls-1" d="m337.3,76.59c-.7-.02-1.15-.47-1.11-1.11.04-.62.66-1.25,1.22-1.27.58-.01,1.12.65,1.08,1.33-.04.66-.5,1.06-1.19,1.05Z"/>
  <path class="cls-1" d="m156.18,17.36c.03.71-.46,1.24-1.14,1.25-.66,0-1.18-.46-1.18-1.08,0-.62.57-1.25,1.19-1.29.6-.04,1.11.47,1.14,1.12Z"/>
  <path class="cls-1" d="m9.1,226.01c-.62.02-1.22-.58-1.22-1.23,0-.6.52-1.13,1.14-1.17.6-.04,1.15.46,1.2,1.09.05.64-.51,1.29-1.12,1.31Z"/>
  <path class="cls-1" d="m278.14,346.83c0,.66-.53,1.2-1.21,1.24-.6.03-1.2-.51-1.2-1.09,0-.61.59-1.2,1.25-1.23.67-.03,1.15.42,1.16,1.08Z"/>
  <path class="cls-1" d="m87.03,338.86c-.71.03-1.25-.48-1.23-1.17.01-.59.46-1.04,1.07-1.07.7-.03,1.3.48,1.32,1.12.01.61-.49,1.1-1.16,1.13Z"/>
  <path class="cls-1" d="m72.72,331.83c.66-.02,1.23.51,1.27,1.17.04.68-.41,1.23-1.01,1.24-.64.01-1.26-.63-1.28-1.33-.02-.62.4-1.06,1.02-1.08Z"/>
  <path class="cls-1" d="m363.71,272.61c-.37-.49-.71-.84-.93-1.25-.25-.46-.01-1.06.43-1.36.43-.3,1.11-.27,1.46.07.39.37.43.88.05,1.41-.25.35-.58.66-1.01,1.13Z"/>
  <path class="cls-1" d="m53.97,313.96c-.01.74-.51,1.21-1.21,1.18-.65-.04-1.04-.43-1.04-1.07,0-.71.6-1.37,1.24-1.36.59.01,1.03.55,1.02,1.25Z"/>
  <path class="cls-1" d="m138.93,358.51c0,.6-.46,1.13-.99,1.14-.61.01-1.3-.67-1.32-1.32-.02-.57.46-1.02,1.09-1.02.69,0,1.23.53,1.22,1.2Z"/>
  <path class="cls-1" d="m221.86,16.97c-.69.02-1.16-.4-1.17-1.06-.02-.71.49-1.32,1.09-1.32.59,0,1.17.62,1.2,1.26.02.65-.43,1.1-1.12,1.12Z"/>
  <path class="cls-1" d="m173.35,365.2c-.03.7-.69,1.27-1.39,1.21-.6-.05-.98-.53-.93-1.17.06-.67.66-1.22,1.29-1.18.57.04,1.05.57,1.02,1.14Z"/>
  <path class="cls-1" d="m293.73,28.91c0,.63-.53,1.14-1.16,1.13-.62-.01-1.12-.55-1.12-1.18,0-.64.53-1.16,1.14-1.13.62.03,1.13.57,1.13,1.18Z"/>
  <path class="cls-1" d="m150.14,368.01c-.64.03-1.17-.44-1.2-1.09-.03-.59.51-1.21,1.09-1.24.57-.03,1.16.53,1.21,1.13.05.62-.45,1.16-1.09,1.19Z"/>
  <path class="cls-1" d="m106.83,348.27c0,.59-.44,1.06-1.03,1.09-.7.04-1.34-.55-1.33-1.23.01-.58.47-1,1.1-1.01.71-.01,1.26.49,1.26,1.15Z"/>
  <path class="cls-1" d="m220.79,365.18c-.03.66-.54,1.18-1.12,1.13-.61-.05-1.14-.67-1.13-1.32.01-.64.52-1.07,1.2-1.02.65.05,1.08.54,1.05,1.2Z"/>
  <path class="cls-1" d="m255.66,364.7c-.63-.03-1.08-.48-1.06-1.06.02-.65.72-1.27,1.38-1.22.57.04,1.01.55.97,1.15-.05.67-.61,1.17-1.29,1.13Z"/>
  <path class="cls-1" d="m63.84,318.19c.03-.67.58-1.25,1.21-1.27.61-.01,1.05.53,1.02,1.23-.03.71-.59,1.23-1.25,1.18-.6-.04-1-.51-.98-1.15Z"/>
  <path class="cls-1" d="m383.72,202.37c.03.67-.51,1.27-1.14,1.28-.56.02-1.04-.46-1.05-1.06-.02-.69.5-1.26,1.14-1.28.59-.01,1.03.43,1.05,1.06Z"/>
  <path class="cls-1" d="m262.63,355.16c.02.72-.56,1.32-1.25,1.3-.55-.02-.99-.43-1.02-.96-.04-.67.55-1.33,1.22-1.36.62-.03,1.03.37,1.05,1.02Z"/>
  <path class="cls-1" d="m372.82,216.76c-.03-.68.5-1.31,1.1-1.33.56-.02,1.05.45,1.09,1.05.05.64-.49,1.29-1.11,1.32-.58.03-1.06-.43-1.08-1.04Z"/>
  <path class="cls-1" d="m136.7,23.95c.02-.63.63-1.18,1.28-1.17.6.01,1.01.47.98,1.11-.03.7-.58,1.21-1.25,1.16-.62-.04-1.03-.49-1.01-1.1Z"/>
  <path class="cls-1" d="m303.29,331.8c-.63-.03-1.2-.63-1.2-1.26,0-.62.47-1.1,1.04-1.07.54.03,1.24.76,1.24,1.27,0,.59-.51,1.08-1.07,1.05Z"/>
  <path class="cls-1" d="m22.87,134.27c0,.64-.4,1.12-.97,1.14-.61.02-1.09-.49-1.09-1.16,0-.71.43-1.27.98-1.29.61-.02,1.08.56,1.08,1.32Z"/>
  <path class="cls-1" d="m278.22,28.85c-.6-.02-1.05-.5-1.03-1.1.02-.6.59-1.17,1.16-1.17.6,0,1.07.54,1.07,1.22,0,.63-.51,1.07-1.2,1.05Z"/>
  <path class="cls-1" d="m84.38,46.43c-.62,0-1.1-.44-1.11-1.03,0-.65.55-1.2,1.24-1.21.65-.02,1.08.38,1.08,1.02,0,.7-.52,1.22-1.21,1.22Z"/>
  <path class="cls-1" d="m250.98,358.21c-.02.7-.57,1.24-1.21,1.2-.61-.03-1.06-.49-1.06-1.07,0-.66.55-1.18,1.25-1.18.64,0,1.04.41,1.03,1.05Z"/>
  <path class="cls-1" d="m318.52,62.66c0,.68-.64,1.37-1.27,1.36-.5,0-.96-.5-.95-1.04.01-.64.59-1.32,1.13-1.32.68,0,1.09.38,1.09,1Z"/>
  <path class="cls-1" d="m7.69,163.22c-.62,0-1.13-.48-1.15-1.12-.03-.63.48-1.16,1.1-1.16.58,0,1.16.56,1.18,1.13.01.6-.51,1.15-1.12,1.15Z"/>
  <path class="cls-1" d="m303.56,337.17c.57.03,1.23.65,1.2,1.13-.03.62-.59,1.09-1.22,1.04-.63-.05-1.16-.6-1.12-1.17.04-.55.57-1.03,1.14-1Z"/>
  <path class="cls-1" d="m219.45,8.35c.29.56.54.97.71,1.41.22.59.03,1.15-.42,1.34-.45.19-.86.11-1.21-.25-.44-.45-.48-.83-.07-1.37.26-.35.57-.66.99-1.13Z"/>
  <path class="cls-1" d="m1.92,174.55c.63,0,1.2.49,1.21,1.06,0,.54-.54,1.13-1.03,1.11-.54-.02-1.28-.71-1.31-1.21-.04-.53.47-.95,1.13-.96Z"/>
  <path class="cls-1" d="m204,12.01c.58-.01,1.13.45,1.16.99.03.48-.53,1.11-1.03,1.14-.67.05-1.25-.4-1.28-.99-.03-.58.53-1.13,1.15-1.15Z"/>
  <path class="cls-1" d="m233.18,10.49c0,.47-.57.91-1.19.92-.63.01-1.14-.41-1.17-.96-.03-.59.63-1.2,1.27-1.17.59.03,1.1.59,1.1,1.2Z"/>
  <path class="cls-1" d="m31.68,110.38c.54.03,1.12.68,1.08,1.23-.05.71-.43,1.15-.99,1.12-.59-.03-1.13-.7-1.09-1.36.04-.57.49-1.02,1-.99Z"/>
  <path class="cls-1" d="m255.1,355.9c.53-.03,1.03.45,1.1,1.06.07.62-.41,1.17-1.07,1.19-.49.02-1.03-.55-1.05-1.11-.02-.56.47-1.11,1.01-1.15Z"/>
  <path class="cls-1" d="m224.52,371.1c.6.02,1.2.57,1.21,1.12,0,.57-.59,1.07-1.24,1.03-.62-.03-1.07-.49-1.05-1.08.02-.55.57-1.09,1.08-1.08Z"/>
  <path class="cls-1" d="m381.21,164.23c-.27-.82-.52-1.35-.62-1.91-.09-.48.1-.96.6-1.18.39-.18.79-.13,1.08.24.33.43.31.88.01,1.32-.29.42-.58.84-1.07,1.54Z"/>
  <path class="cls-1" d="m8.29,192.75c.28.71.55,1.19.66,1.71.1.51,0,1.1-.58,1.28-.3.1-.81-.04-1.06-.26-.45-.39-.37-.92-.03-1.38.28-.38.57-.76,1.01-1.35Z"/>
  <path class="cls-1" d="m89.65,43.39c-.56,0-1-.5-.99-1.12,0-.66.51-1.21,1.08-1.19.57.02,1.01.57,1.01,1.27,0,.49-.59,1.05-1.1,1.04Z"/>
  <path class="cls-1" d="m27.29,262.42c.6,0,1.12.53,1.11,1.16,0,.54-.49.96-1.13,1-.61.03-1.09-.41-1.1-1-.02-.61.51-1.15,1.12-1.15Z"/>
  <path class="cls-1" d="m348.6,90.91c0,.63-.53,1.13-1.15,1.1-.55-.03-1.04-.59-1.01-1.14.03-.57.64-1.14,1.21-1.12.55.02.95.51.95,1.16Z"/>
  <path class="cls-1" d="m350.63,96.91c-.57,0-1.12-.61-1.08-1.19.03-.53.49-.96,1.02-.97.55,0,1.21.61,1.2,1.11,0,.46-.65,1.05-1.14,1.04Z"/>
  <path class="cls-1" d="m23.1,247.35c.02.61-.46,1.11-1.03,1.1-.52-.01-1.07-.57-1.1-1.11-.03-.56.55-1.15,1.15-1.18.44-.02.96.6.97,1.18Z"/>
  <path class="cls-1" d="m362.36,105.48c-.51-.02-1.01-.59-1.02-1.14,0-.61.46-1.02,1.1-.97.62.04,1.16.61,1.12,1.17-.04.54-.58.97-1.2.94Z"/>
  <path class="cls-1" d="m36.31,264.66c.03.59-.42,1.07-1.02,1.08-.57,0-1.17-.55-1.2-1.11-.03-.54.45-1.03,1.05-1.09.54-.05,1.14.53,1.16,1.12Z"/>
  <path class="cls-1" d="m181.55,372.08c-.02.53-.56,1.12-1.05,1.13-.61.01-1.23-.53-1.23-1.08,0-.58.55-1.07,1.21-1.07.65,0,1.08.41,1.06,1.03Z"/>
  <path class="cls-1" d="m63.67,70.6c.51-.01.99.49,1.03,1.09.04.63-.36,1.1-.97,1.12-.6.03-1.16-.48-1.2-1.09-.04-.6.48-1.11,1.14-1.12Z"/>
  <path class="cls-1" d="m316.8,46.4c-.03.59-.42.98-1,.96-.55-.02-1.32-.73-1.31-1.21,0-.42.61-.94,1.08-.93.74.01,1.26.51,1.23,1.18Z"/>
  <path class="cls-1" d="m239.7,355.83c0,.56-.59,1.16-1.15,1.18-.57.02-1.05-.46-1.06-1.06-.01-.6.54-1.18,1.11-1.17.57,0,1.1.52,1.09,1.06Z"/>
  <path class="cls-1" d="m230.27,370.36c-.57-.03-1.03-.57-.99-1.15.04-.57.56-1.03,1.13-1.01.66.03,1.1.45,1.07,1.04-.03.6-.63,1.15-1.2,1.11Z"/>
  <path class="cls-1" d="m360.71,264.43c-.01-.58.49-1.08,1.06-1.06.55.02,1.07.55,1.08,1.08,0,.54-.5,1.03-1.09,1.06-.5.02-1.04-.53-1.05-1.09Z"/>
  <path class="cls-1" d="m237.73,361.07c.54,0,1.17.54,1.17,1,0,.5-.58,1.06-1.12,1.07-.55.01-1.13-.5-1.15-1.03-.03-.55.49-1.04,1.1-1.04Z"/>
  <path class="cls-1" d="m373.35,199.79c-.56.24-.91.51-1.28.53-.44.03-.95-.06-1.34-.27-.43-.23-.49-.73-.24-1.14.25-.42.71-.58,1.14-.33.55.31,1.03.72,1.71,1.22Z"/>
  <path class="cls-1" d="m35.55,289.71c-.43.2-.7.39-1,.45-.59.13-1.07-.16-1.24-.69-.17-.51.02-1.11.44-1.38.44-.28.97-.2,1.26.28.22.37.33.79.55,1.34Z"/>
  <path class="cls-1" d="m88.21,345.73c.01.54-.51,1-1.12.98-.59-.01-1.09-.51-1.07-1.07.02-.51.6-1.03,1.15-1.02.58.01,1.03.49,1.04,1.1Z"/>
  <path class="cls-1" d="m12.51,154.76c-.54.4-.94.73-1.37,1-.45.27-.98.28-1.32-.14-.19-.24-.29-.69-.2-.97.17-.52.71-.69,1.2-.58.53.12,1.02.41,1.7.7Z"/>
  <path class="cls-1" d="m249.68,364.11c.01.57-.38,1.01-.94,1.04-.58.03-1.18-.53-1.2-1.11-.02-.54.52-1.05,1.1-1.05.51,0,1.02.55,1.04,1.12Z"/>
  <path class="cls-1" d="m328.12,54.56c.03.49-.4.9-1,.94-.62.05-1.1-.35-1.13-.95-.03-.58.52-1.2,1.07-1.22.54-.01,1.03.55,1.07,1.22Z"/>
  <path class="cls-1" d="m85.85,48.24c.39,1.28,1.36,2.29.12,3.35-1.3-.56-1.34-.66-.79-1.9.18-.39.36-.78.67-1.45Z"/>
  <path class="cls-1" d="m154.1,363.08c-.61-.01-1.08-.48-1.05-1.06.02-.5.62-1.08,1.1-1.07.57.01,1.15.63,1.12,1.18-.03.54-.55.96-1.17.95Z"/>
  <path class="cls-1" d="m214.73,6.88c-.47.34-.76.61-1.11.79-.58.29-1.23,0-1.44-.61-.17-.48.18-1.2.7-1.32.2-.05.49.01.66.13.38.27.72.6,1.2,1.02Z"/>
  <path class="cls-1" d="m118.49,364.94c-.62-.01-1.09-.49-1.04-1.05.04-.53.59-.96,1.18-.95.57.02,1.09.53,1.06,1.06-.02.45-.66.95-1.2.94Z"/>
  <path class="cls-1" d="m336.11,65.6c0,.51-.59,1.08-1.09,1.07-.58-.02-1.1-.61-1.07-1.21.03-.57.43-.92,1.04-.89.54.03,1.13.57,1.13,1.03Z"/>
  <path class="cls-1" d="m249.82,14.31c.4.33.75.55,1.01.84.38.44.33,1.03-.09,1.4-.32.28-.68.43-1.1.16-.47-.3-.69-.84-.46-1.34.14-.32.37-.61.64-1.06Z"/>
  <path class="cls-1" d="m49.23,308.77c-.69,0-1.16-.4-1.13-.96.02-.57.63-1.07,1.25-1.05.57.02,1.01.45,1,.98-.01.54-.55,1.04-1.11,1.03Z"/>
  <path class="cls-1" d="m243.31,15.87c-.37-.27-.72-.47-.99-.74-.38-.38-.39-.93-.08-1.28.29-.34.85-.39,1.31-.11.53.31.75.83.48,1.29-.17.29-.45.53-.72.85Z"/>
  <path class="cls-1" d="m54.06,75.64c-.42.34-.7.63-1.03.83-.47.28-1.18.18-1.42-.19-.26-.41-.24-.82.1-1.18.36-.39.97-.5,1.4-.23.29.19.54.44.94.77Z"/>
  <path class="cls-1" d="m215.68,367.07c-.76,1.2-1.31,1.47-1.94,1-.47-.35-.52-1.01-.12-1.46.54-.59,1-.5,2.06.46Z"/>
  <path class="cls-1" d="m313.92,326.47c.67.39,1.42.62,1.25,1.48-.06.3-.45.64-.77.76-.5.19-.96-.1-1.2-.54-.41-.76.3-1.11.72-1.69Z"/>
  <path class="cls-1" d="m274.72,21.69c-.61-.5-1.38-.74-1.16-1.62.11-.45.48-.61.92-.61.54,0,.94.29,1.12.76.29.77-.41,1.01-.89,1.47Z"/>
  <path class="cls-1" d="m354.92,274.36c.4.36.77.61,1.04.94.33.4.41.89.07,1.32-.32.4-.76.4-1.19.15-.46-.27-.73-.86-.54-1.31.15-.36.38-.68.63-1.09Z"/>
  <path class="cls-1" d="m132.71,13.53c.42.33.81.56,1.08.88.35.4.35.88-.05,1.28-.36.35-.79.41-1.2.11-.4-.29-.73-.66-.48-1.21.17-.35.4-.67.64-1.06Z"/>
  <path class="cls-1" d="m170.21,9.35c-.3-.42-.58-.71-.75-1.06-.25-.47-.07-.99.36-1.24.46-.27.85-.12,1.2.21.38.36.46.93.15,1.28-.23.26-.54.46-.95.8Z"/>
  <path class="cls-1" d="m362.65,239.13c.29.35.54.59.73.88.31.49.2,1.03-.24,1.36-.35.26-.74.32-1.1.04-.37-.28-.51-.99-.22-1.4.21-.31.52-.56.84-.89Z"/>
  <path class="cls-1" d="m324.04,327.41c-.31.41-.49.72-.75.97-.39.36-.86.46-1.32.13-.41-.3-.47-.72-.25-1.17.26-.51.81-.75,1.31-.53.33.14.61.36,1.01.6Z"/>
  <path class="cls-1" d="m382.43,215.82c-.41.55-.63,1.28-1.52,1.15-.48-.07-.68-.42-.69-.85-.02-.53.24-.94.74-1.12.76-.26,1.06.35,1.47.81Z"/>
  <path class="cls-1" d="m319.31,51.44c.74-1.32,1.25-1.5,1.94-.88.48.42.51,1,.09,1.49-.37.43-.61.43-1.24-.03-.26-.19-.52-.37-.79-.57Z"/>
  <path class="cls-1" d="m76.3,329.7c.57.4,1.34.57,1.17,1.48-.08.45-.43.65-.88.69-.56.05-.99-.19-1.15-.69-.23-.72.41-1.02.86-1.48Z"/>
  <path class="cls-1" d="m106.01,354.19c-.71,1.13-1.28,1.43-1.89,1.03-.45-.29-.53-.92-.18-1.36.5-.64,1-.57,2.07.33Z"/>
  <path class="cls-1" d="m362.18,253.5c-.48.24-.78.44-1.12.56-.52.19-.96.02-1.23-.45-.21-.38-.19-.79.18-1.07.42-.32.92-.37,1.34-.05.3.23.5.6.83,1.02Z"/>
  <path class="cls-1" d="m43.65,303.27c.34-.57.62-1.17,1.42-1.06.51.07.75.47.76.95.02.54-.28.94-.79,1.09-.82.23-.96-.54-1.39-.97Z"/>
  <path class="cls-1" d="m357.68,258.21c-.32.65-.61,1.31-1.44,1.23-.26-.03-.59-.39-.7-.67-.19-.46.15-1.05.64-1.26.77-.33,1.02.4,1.51.7Z"/>
  <path class="cls-1" d="m307.23,45.59c-.65,1.13-1.12,1.4-1.73,1.04-.51-.3-.62-.97-.23-1.43.48-.58.9-.5,1.96.39Z"/>
  <path class="cls-1" d="m350.85,285.7c-.39.69-.52,1.49-1.44,1.35-.28-.05-.62-.38-.73-.66-.21-.51.1-.93.52-1.21.7-.45,1.08.16,1.65.52Z"/>
  <path class="cls-1" d="m101.22,344.91c-.28.36-.47.67-.72.91-.39.36-.88.42-1.31.08-.39-.31-.41-.75-.16-1.18.29-.49.84-.69,1.31-.45.28.15.52.36.88.63Z"/>
  <path class="cls-1" d="m75.45,52.39c-.32.4-.52.71-.78.96-.36.34-1.03.37-1.33.08-.38-.35-.39-.81-.13-1.2.28-.42.69-.72,1.23-.48.32.14.6.38,1.01.65Z"/>
  <path class="cls-1" d="m375.18,154.12c-.39.31-.65.55-.96.73-.48.29-.95.18-1.31-.23-.28-.32-.4-.7-.11-1.09.28-.37,1.01-.51,1.44-.24.3.19.54.47.93.83Z"/>
  <path class="cls-1" d="m184.9,365.73c-.3.38-.49.69-.75.93-.41.39-.95.39-1.3.06-.32-.3-.36-.92-.09-1.32.3-.44.81-.62,1.25-.42.11.05.2.13.29.2.18.15.35.32.59.54Z"/>
  <path class="cls-1" d="m368.06,113.56c-.41.67-.52,1.46-1.38,1.25-.3-.07-.61-.48-.73-.8-.17-.45.1-.84.52-1.07.76-.41,1.02.31,1.59.62Z"/>
  <path class="cls-1" d="m163.26,371.91c-1.08.79-1.71.85-2.11.23-.28-.45-.12-1.05.36-1.33.71-.4,1.15-.14,1.75,1.1Z"/>
  <path class="cls-1" d="m41.62,306.47c-.54.1-.93.22-1.32.24-.54.02-.94-.26-1.05-.79-.09-.43.13-.78.57-.92.49-.15.97-.13,1.28.35.19.3.3.64.52,1.11Z"/>
  <path class="cls-1" d="m162.08,14.82c.25.46.45.76.57,1.09.18.5-.04,1.05-.47,1.22-.41.16-.82.13-1.08-.27-.27-.42-.41-.9,0-1.32.24-.25.57-.42.98-.72Z"/>
  <path class="cls-1" d="m287.92,349.88c-1.01-.57-1.21-.85-1.05-1.41.13-.44.45-.65.89-.67.5-.03.87.23,1,.69.21.75-.42,1.01-.84,1.39Z"/>
  <path class="cls-1" d="m234.76,366.53c.43.3.79.48,1.07.76.34.34.38.8.07,1.19-.31.41-.77.43-1.19.2-.41-.22-.69-.59-.53-1.08.11-.33.33-.62.58-1.07Z"/>
  <path class="cls-1" d="m238.79,13.36c-.52.1-.94.22-1.36.23-.49.02-.84-.25-.91-.75-.06-.42.05-.8.49-.96.48-.17.97-.16,1.27.32.2.32.31.69.51,1.16Z"/>
  <path class="cls-1" d="m210.16,12.77c.23.39.44.68.56,1,.2.53-.06.93-.51,1.18-.41.23-.89.23-1.16-.21-.26-.42-.31-.92.09-1.3.28-.26.64-.42,1.02-.67Z"/>
  <path class="cls-1" d="m178.29,8.13c-.94,1.12-1.73,1.19-2.35-.12.98-1.2,1.22-1.18,2.35.12Z"/>
  <path class="cls-1" d="m105.51,37.82c-.38.22-.68.43-1,.56-.49.2-.96.15-1.29-.31-.28-.4-.16-.76.15-1.07.34-.34,1.08-.38,1.45-.05.26.23.43.55.69.88Z"/>
  <path class="cls-1" d="m4.99,198.64c.23.17.39.28.54.41.18.15.35.31.57.5-.18.56-.2,1.23-.93,1.33-.27.04-.71-.2-.85-.44-.44-.74.1-1.24.67-1.8Z"/>
  <path class="cls-1" d="m381,155.17c.02.59-.34,1.01-.91,1.02-.49.01-.93-.45-.97-1.01-.03-.53.41-1.01.94-1.03.52-.02.92.42.94,1.02Z"/>
  <path class="cls-1" d="m140.43,371.02c-.36.55-.61,1.18-1.43,1.07-.45-.06-.7-.35-.77-.78-.08-.5.16-.86.59-1.05.8-.35,1.1.37,1.6.76Z"/>
  <path class="cls-1" d="m315.27,342.7c-.51.35-.85.66-1.24.84-.38.17-.9.17-1.04-.28-.1-.31.03-.77.21-1.07.2-.33.59-.61,1.03-.34.33.2.61.5,1.05.86Z"/>
  <path class="cls-1" d="m34.6,274.45c1.27,1.19,1.27,1.39.05,2.32-1.31-.52-1.31-1.54-.05-2.32Z"/>
  <path class="cls-1" d="m115.21,24.53c.72-1.17,1.4-1.21,2.31-.03-1.11,1.31-1.36,1.32-2.31.03Z"/>
  <path class="cls-1" d="m.48,185.94c-.71-1.13-.68-1.26.41-2.15.49.32,1.14.6,1,1.32-.13.67-.83.65-1.41.82Z"/>
  <path class="cls-1" d="m256.28,12.05c-.18-.27-.33-.51-.49-.73-.37-.5-.36-.84.07-1.24.43-.41.85-.43,1.27-.04.43.4.45.74.02,1.23-.2.23-.46.42-.87.78Z"/>
  <path class="cls-1" d="m126.72,366.32c-.3.26-.48.46-.7.61-.58.4-1.01.33-1.43-.21-.26-.34-.41-.78-.07-1.06.25-.21.71-.18,1.07-.23.09-.01.21.1.3.17.24.2.48.41.83.71Z"/>
  <path class="cls-1" d="m371.69,225.37c.64-1.42.85-1.46,2.2-.51-.8,1.44-.98,1.49-2.2.51Z"/>
  <path class="cls-1" d="m128.69,21.79c-.48,0-.91-.43-.92-.9-.02-.52.65-1.08,1.24-1.03.46.03.77.4.76.89-.02.58-.51,1.06-1.07,1.05Z"/>
  <path class="cls-1" d="m376.25,170.98c1.28,1.09,1.29,1.25.08,2.2-1.36-.85-1.37-1.16-.08-2.2Z"/>
  <path class="cls-1" d="m212.15,371.68c-1.22,1.17-1.32,1.17-2.24-.05.86-1.3,1.32-1.29,2.24.05Z"/>
  <path class="cls-1" d="m12.46,149.34c-1.2-.63-1.4-.95-1.01-1.58.34-.54.8-.65,1.3-.29.58.42.52.82-.29,1.87Z"/>
  <path class="cls-1" d="m139.52,364.58c-.84.98-1.21,1.12-1.73.66-.46-.4-.45-.96,0-1.35.52-.43.91-.28,1.72.69Z"/>
  <path class="cls-1" d="m199.25,372.16c.42.48.69.72.88,1.01.3.45.09.83-.28,1.14-.37.31-.74.25-1.08-.05-.37-.33-.5-.71-.18-1.16.2-.29.41-.58.66-.94Z"/>
  <path class="cls-1" d="m291.49,344.16c.84-1.37,1.52-1.03,2.3.03-1.14,1.18-1.31,1.18-2.3-.03Z"/>
  <path class="cls-1" d="m33.86,98.02c1.27.79,1.08,1.47,0,2.3-1.16-1.07-1.17-1.34,0-2.3Z"/>
  <path class="cls-1" d="m45.12,90.82c-1.09.95-1.49,1.04-1.93.48-.34-.43-.28-.88.14-1.25.58-.5.9-.37,1.79.77Z"/>
  <path class="cls-1" d="m10.74,130.09c-.2.17-.31.29-.44.36-.45.25-.9.48-1.41.75-.2-.34-.39-.6-.49-.89-.22-.6.28-1.15.89-.95.48.16.91.45,1.45.73Z"/>
  <path class="cls-1" d="m279.63,353.35c-.95,1.28-1.67,1.16-2.22.07.84-1.32,1.07-1.33,2.22-.07Z"/>
  <path class="cls-1" d="m153.91,373.56c.45.03,1.02.62.99,1.03-.03.36-.54.82-.91.83-.49,0-1.04-.61-1.01-1.13.03-.43.43-.75.92-.72Z"/>
  <path class="cls-1" d="m25.07,104.98c.61-.33.97-.62,1.38-.7.28-.06.75.08.91.3.3.39.12.83-.23,1.17-.3.29-.61.36-.96.07-.31-.25-.63-.49-1.09-.84Z"/>
  <path class="cls-1" d="m369.25,118.73c-.42.23-.64.42-.9.48-.27.07-.69.13-.84-.02-.23-.22-.38-.61-.39-.94-.02-.47.66-.78,1.08-.5.35.24.63.57,1.06.97Z"/>
  <path class="cls-1" d="m33.35,300.29c-1.18-.63-1.14-1.46-.1-2.23,1.26,1.05,1.27,1.26.1,2.23Z"/>
  <path class="cls-1" d="m95.5,37.28c.89.94.98,1.34.44,1.78-.4.33-.83.31-1.17-.05-.49-.51-.34-.88.73-1.74Z"/>
  <path class="cls-1" d="m154.14,13.17c-.46.26-.78.53-1.14.61-.25.06-.65-.07-.81-.26-.25-.29-.41-.71-.09-1.09.26-.31.6-.43.95-.17.35.25.66.55,1.09.9Z"/>
  <path class="cls-1" d="m100.27,27.26c.43-.56.79-1.02,1.26-1.63.22.54.44.88.48,1.24.03.31-.05.72-.25.96-.29.35-.66.1-.95-.12-.16-.11-.3-.25-.54-.46Z"/>
  <path class="cls-1" d="m300.85,40.15c.2.46.46.81.5,1.18.03.3-.11.75-.33.91-.41.29-.85.09-1.16-.3-.27-.33-.27-.66.04-.96.28-.27.59-.51.96-.83Z"/>
  <path class="cls-1" d="m380.9,207.62c.25.41.45.66.57.95.27.62-.27,1.29-.95,1.21-.47-.05-.74-.61-.52-1.08.07-.14.16-.27.26-.39.17-.2.36-.39.63-.69Z"/>
  <path class="cls-1" d="m374.45,185.95c.42-.36.67-.62.96-.82.35-.24.73-.16.93.19.16.27.29.66.22.94-.09.35-.44.56-.86.35-.35-.17-.69-.36-1.25-.65Z"/>
  <path class="cls-1" d="m24.6,128.22c-.6.33-1.08.59-1.61.89-.21-.33-.43-.58-.51-.87-.06-.23-.03-.62.12-.73.21-.16.62-.24.86-.14.38.16.69.5,1.15.85Z"/>
  <path class="cls-1" d="m194.99,6.73c.51.45.9.78,1.36,1.18-.25.3-.43.62-.7.8-.19.12-.56.16-.75.05-.19-.11-.37-.45-.35-.66.05-.41.25-.8.44-1.37Z"/>
  <path class="cls-1" d="m106.43,31.81c-.6,1.09-.97,1.32-1.47,1.03-.52-.31-.51-.82.12-1.69.42.2.85.42,1.35.66Z"/>
  <path class="cls-1" d="m121.72,23.35c-.84-.79-.96-1.2-.45-1.61.39-.32.85-.28,1.16.11.44.54.28.88-.71,1.5Z"/>
  <path class="cls-1" d="m304.92,345.22c.55,1.13.52,1.52-.1,1.73-.47.16-.96-.11-1.12-.61-.18-.56.1-.82,1.22-1.12Z"/>
  <path class="cls-1" d="m354.15,89.47c0,.44-.39.89-.79.92-.43.03-.92-.48-.88-.95.03-.48.35-.7.8-.74.5-.04.88.31.88.77Z"/>
  <path class="cls-1" d="m209.28,366.91c-1.1.55-1.55.57-1.75.06-.38-.95.65-1.01,1.06-1.79.29.74.49,1.23.69,1.72Z"/>
  <path class="cls-1" d="m308.67,38.78c.02.51-.36.9-.9.91-.42,0-.75-.37-.78-.88-.02-.46.3-.77.84-.83.47-.05.81.28.84.8Z"/>
  <path class="cls-1" d="m316.38,50.7c.28.6.47.94.59,1.3.13.38,0,.69-.4.86-.4.17-.76.21-1.06-.19-.26-.36-.15-.65.09-.96.22-.27.43-.56.77-1.01Z"/>
  <path class="cls-1" d="m264.32,360.09c.45-.38.89-.64,1.34-.25.2.17.31.56.29.84-.05.56-.54.6-1.12.67-.17-.42-.34-.85-.5-1.26Z"/>
  <path class="cls-1" d="m359.25,95.61c-.35.49-.53,1.05-1.2.92-.22-.04-.5-.3-.58-.52-.19-.53.09-.91.64-1.25.36.27.73.54,1.14.84Z"/>
  <path class="cls-1" d="m321.45,332.99c-.84-.93-.93-1.25-.54-1.67.35-.37.61-.28,1.69.61-.37.34-.73.67-1.16,1.06Z"/>
  <path class="cls-1" d="m184.8,6.13c.03.43-.35.85-.81.87-.4.02-.83-.38-.86-.82-.03-.46.19-.76.66-.83.49-.08.97.31,1.01.79Z"/>
  <path class="cls-1" d="m166.04,8.51c-.42.29-.84.58-1.26.87-.67-.9-.74-1.33-.31-1.69.41-.34.73-.19,1.57.82Z"/>
  <path class="cls-1" d="m24.9,112.83c-.69-1.08-.7-1.34-.13-1.63.46-.23.91-.11,1.13.31.28.54.06.85-1,1.33Z"/>
  <path class="cls-1" d="m57.48,71.28c-.41.35-.78.83-1.35.53-.24-.13-.45-.59-.42-.87.05-.41.42-.67.89-.64.61.03.77.46.88.98Z"/>
  <path class="cls-1" d="m352.3,84.37c-.4.43-.75.87-1.27.49-.25-.18-.53-.67-.44-.87.13-.3.56-.63.88-.65.6-.04.73.51.83,1.02Z"/>
  <path class="cls-1" d="m150.08,18.3c-.28,1.18-.37,1.22-1.76.82.28-1.37.3-1.38,1.76-.82Z"/>
  <path class="cls-1" d="m240.94,365.89c.6.92.63,1.5.1,1.76-.43.21-.77.02-1.02-.33-.32-.46-.16-.7.92-1.43Z"/>
  <path class="cls-1" d="m263.15,13.32c.52,1.14.5,1.45-.06,1.65-.47.16-.9-.04-1.03-.51-.16-.56.1-.85,1.09-1.14Z"/>
  <path class="cls-1" d="m290.27,34.93c.19.28.31.43.4.61.11.21.2.43.29.63-.82.9-.96.86-1.68-.49.31-.23.63-.48.99-.75Z"/>
  <path class="cls-1" d="m189.74,6.53c-.79,1.13-.86,1.13-1.94.2.55-1.09.6-1.1,1.94-.2Z"/>
  <path class="cls-1" d="m66.65,329.57c.34.34.79.61.48,1.18-.2.36-.55.51-.9.33-.24-.12-.51-.44-.53-.68-.05-.6.46-.72.95-.83Z"/>
  <path class="cls-1" d="m90.89,347.86c.48-.15.89-.27,1.29-.39.44.95.4,1.34-.14,1.55-.53.21-.85-.08-1.15-1.16Z"/>
  <path class="cls-1" d="m148.98,9.29c-.22.44-.4.99-1.04.89-.23-.03-.54-.38-.58-.62-.03-.23.18-.62.4-.74.49-.27.9-.02,1.22.47Z"/>
  <path class="cls-1" d="m32.04,280.86c-.59-.13-1.08-.32-.98-.97.03-.21.32-.54.49-.53.31,0,.74.13.9.35.36.51-.07.83-.41,1.16Z"/>
  <path class="cls-1" d="m237.5,7.14c-.65,0-.96-.31-.93-.75.03-.47.31-.72.77-.72.49,0,.77.39.72.76-.04.29-.42.54-.56.71Z"/>
  <path class="cls-1" d="m95.61,352.45c-.28.39-.57.85-1.14.53-.22-.12-.46-.55-.39-.74.09-.27.44-.6.72-.64.57-.1.69.4.81.86Z"/>
  <path class="cls-1" d="m202.22,378.81c-.69-.72-.77-1.08-.37-1.42.35-.3.9-.21,1.15.19.28.44.1.75-.79,1.23Z"/>
  <path class="cls-1" d="m204.18,373.74c-.69-.71-.84-1.22-.45-1.55.32-.27.68-.24.97.05.42.42.3.76-.52,1.49Z"/>
  <path class="cls-1" d="m39.76,95.38c-.7.67-1.09.77-1.42.39-.27-.31-.22-.8.11-1.04.44-.33.72-.2,1.31.65Z"/>
  <path class="cls-1" d="m378.53,192c-.21.4-.39.73-.57,1.06-1.06-.54-1.25-.79-1.01-1.26.23-.47.47-.45,1.58.2Z"/>
  <path class="cls-1" d="m262.77,367.08c-.15-.16-.48-.38-.62-.68-.14-.3.31-.8.66-.8.44,0,.77.18.84.66.06.41-.25.78-.87.82Z"/>
  <path class="cls-1" d="m86.69,37.65c-.72.67-1.09.75-1.44.35-.28-.33-.22-.78.15-1.04.47-.33.74-.19,1.29.69Z"/>
  <path class="cls-1" d="m56.51,63.22c.1.17.18.3.27.44.09.13.18.25.35.49-.39.28-.76.55-1.13.81-.68-.99-.67-1.04.51-1.74Z"/>
  <path class="cls-1" d="m373.32,252.99c-.4.3-.74.56-1.13.85-.41-.4-.79-.75-.32-1.29.36-.42.65-.33,1.44.44Z"/>
  <path class="cls-1" d="m243.73,5.63c.81.49,1.03.87.76,1.26-.2.29-.76.34-1.08.11-.43-.32-.36-.69.32-1.36Z"/>
  <path class="cls-1" d="m332.82,320.28c-.16-.28-.34-.57-.56-.95.48-.19.87-.34,1.26-.5q.44,1.09-.7,1.45Z"/>
  <path class="cls-1" d="m217.69,372.32c.17.18.31.32.42.47.09.12.15.26.27.47-.45.21-.86.41-1.27.6q-.5-1.04.58-1.55Z"/>
  <path class="cls-1" d="m26.59,269.81c-1,.58-1.02.57-1.45-.5,1-.66,1.09-.62,1.45.5Z"/>
  <path class="cls-1" d="m93.22,30.83q.74-.98,1.68-.33c-.12.3-.25.62-.42,1.03-.44-.24-.81-.44-1.27-.69Z"/>
  <path class="cls-1" d="m364.95,287.66c-.48.19-.81.31-1.31.5-.06-.47-.18-.84-.11-1.16.03-.15.57-.36.68-.28.28.21.46.56.74.94Z"/>
  <path class="cls-1" d="m174.56,3.05c.83.53,1,.8.66,1.13-.17.17-.58.25-.81.17-.46-.17-.42-.5.15-1.3Z"/>
  <path class="cls-1" d="m216.66,2.16c.27-.25.49-.46.78-.74.22.22.49.39.55.6.05.2-.05.57-.22.68-.51.35-.79-.05-1.11-.55Z"/>
  <path class="cls-1" d="m148.72,377.16c.3.26.55.49.86.76-.42.3-.74.85-1.22.36-.41-.42.07-.74.36-1.13Z"/>
  <path class="cls-1" d="m119.03,18.64c-.42.44-.64.66-.94.98-.18-.31-.39-.55-.45-.81-.04-.18.18-.58.2-.57.34.08.68.22,1.19.4Z"/>
  <path class="cls-1" d="m144.07,7.43c-.2.28-.39.57-.62.89-.39-.38-.89-.7-.47-1.21.14-.16.66-.02,1.01,0,.03.11.05.22.08.33Z"/>
  <path class="cls-1" d="m249.03,4.39c-.46.04-.79.06-1.21.1-.05-.48-.19-1,.35-1.1.65-.13.62.51.86,1Z"/>
  <path class="cls-1" d="m187.94,377.09c.34.1.66.2,1.03.31-.16.48-.32.98-.83.84-.54-.15-.4-.65-.2-1.15Z"/>
  <path class="cls-1" d="m197.91,1.21c-.32-.19-.59-.34-.95-.54.19-.23.31-.44.49-.55.14-.09.42-.15.53-.08.42.31.25.68-.07,1.17Z"/>
  <path class="cls-1" d="m253.22,370.41c-.3-.26-.53-.46-.83-.71.17-.23.31-.43.5-.69.2.16.37.25.48.4.22.29.2.3-.15,1.01Z"/>
  <path class="cls-1" d="m231.3,5.85c-.54-.52-.33-.85.13-1.08.12-.06.43.02.48.12.29.57-.2.72-.61.95Z"/>
  <path class="cls-1" d="m215.71,377.67c.24.23.52.37.53.52,0,.17-.23.44-.4.48-.14.03-.45-.21-.48-.36-.03-.16.19-.37.35-.64Z"/>
  <path class="cls-1" d="m159.01,376.42c.25.09.57.12.72.3.09.11-.08.44-.18.88-.34-.41-.52-.63-.7-.85.05-.11.11-.22.16-.33Z"/>
  <path class="cls-1" d="m195.22,163.16c.57-.74,1.02-1.29,1.43-1.86.89-1.23,1.99-2.01,3.59-2.12,1.35-.1,2.13-1.08,2.07-2.34-.07-1.4-.97-2.38-2.29-2.48-2.49-.2-4.62,1.31-5.24,3.69-.43,1.64-.16,3.23.45,5.11Zm-7.77.2c.78-2.64,1-5.02-.56-7.23-1.11-1.57-2.76-1.99-4.61-1.69-1.18.19-1.81,1.12-1.82,2.46,0,1.3.47,1.96,1.76,2.15,1.9.29,3.24,1.33,4.27,2.85.29.42.56.85.96,1.46Z"/>
  <path class="cls-1" d="m195.22,163.16c-.61-1.88-.88-3.47-.45-5.11.63-2.38,2.76-3.88,5.24-3.69,1.32.1,2.23,1.08,2.29,2.48.06,1.25-.72,2.24-2.07,2.34-1.6.11-2.71.9-3.59,2.12-.41.57-.86,1.12-1.43,1.86Z"/>
  <path class="cls-1" d="m187.45,163.36c-.4-.61-.68-1.04-.96-1.46-1.03-1.52-2.37-2.56-4.27-2.85-1.29-.19-1.76-.85-1.76-2.15,0-1.34.64-2.27,1.82-2.46,1.84-.3,3.49.12,4.61,1.69,1.56,2.21,1.35,4.59.56,7.23Z"/>
</svg>