<?xml version="1.0" standalone="no"?>
<!DOCTYPE svg PUBLIC "-//W3C//DTD SVG 1.1//EN" "http://www.w3.org/Graphics/SVG/1.1/DTD/svg11.dtd" >
<svg xmlns="http://www.w3.org/2000/svg">
    <metadata>Generated by IcoMoon</metadata>
    <defs>
        <font id="icomoon" horiz-adv-x="1024">
            <font-face units-per-em="1024" ascent="960" descent="-64"/>
            <missing-glyph horiz-adv-x="1024"/>
            <glyph unicode="&#x20;" horiz-adv-x="512" d=""/>
            <glyph unicode="&#xe900;" glyph-name="Group-2092"
                   d="M328.837 350.17c16.662-16.661 16.662-43.678 0-60.339l-140.497-140.497 140.497-140.497c16.662-16.661 16.662-43.678 0-60.339s-43.677-16.661-60.34 0l-170.667 170.667c-16.662 16.661-16.662 43.678 0 60.339l170.667 170.667c16.663 16.661 43.677 16.661 60.34 0zM896 448c23.565 0 42.667-19.102 42.667-42.667v-85.333c0-56.58-22.477-110.844-62.485-150.848-40.004-40.009-94.268-62.485-150.848-62.485h-597.333c-23.564 0-42.667 19.102-42.667 42.667s19.103 42.667 42.667 42.667h597.333c33.946 0 66.505 13.487 90.509 37.491s37.491 56.563 37.491 90.509v85.333c0 23.565 19.102 42.667 42.667 42.667zM695.164 947.503c16.661 16.662 43.678 16.662 60.339 0l170.667-170.667c16.661-16.663 16.661-43.677 0-60.34l-170.667-170.667c-16.661-16.661-43.678-16.661-60.339 0-16.661 16.663-16.661 43.677 0 60.34l140.497 140.497-140.497 140.497c-16.661 16.663-16.661 43.678 0 60.34zM298.667 704c-33.948 0-66.505-13.486-90.51-37.49s-37.49-56.562-37.49-90.51v-85.333c0-23.565-19.103-42.667-42.667-42.667s-42.667 19.102-42.667 42.667v85.333c0 56.579 22.476 110.842 62.484 150.849s94.27 62.484 150.849 62.484h597.333c23.565 0 42.667-19.103 42.667-42.667s-19.102-42.667-42.667-42.667h-597.333z"/>
            <glyph unicode="&#xe901;" glyph-name="Group-2093"
                   d="M957.414 784.995c14.635-7.16 23.919-22.032 23.919-38.328v-597.333c0-16.294-9.284-31.168-23.919-38.327-14.639-7.159-32.081-5.355-44.941 4.646l-384 298.667c-10.394 8.085-16.474 20.514-16.474 33.681s6.080 25.596 16.474 33.677l384 298.668c12.86 10.005 30.302 11.809 44.941 4.649zM624.162 448l271.838-211.43v422.859l-271.838-211.428zM488.081 784.995c14.635-7.16 23.919-22.032 23.919-38.328v-597.333c0-16.294-9.284-31.168-23.919-38.327-14.639-7.159-32.081-5.355-44.941 4.646l-384.002 298.667c-10.393 8.085-16.472 20.514-16.472 33.681s6.079 25.596 16.472 33.677l384.002 298.668c12.86 10.005 30.302 11.809 44.941 4.649zM154.83 448l271.837-211.43v422.859l-271.837-211.428z"/>
            <glyph unicode="&#xe902;" glyph-name="Group-2094"
                   d="M42.667 832c23.564 0 42.667-19.103 42.667-42.667v-213.333h213.333c23.564 0 42.667-19.103 42.667-42.667s-19.103-42.667-42.667-42.667h-256c-23.564 0-42.667 19.102-42.667 42.667v256c0 23.564 19.103 42.667 42.667 42.667zM452.497 870.106c91.601 12.888 184.909-4.343 265.865-49.097 80.96-44.754 145.178-114.607 182.985-199.032s47.151-178.849 26.624-269.051c-20.527-90.197-69.811-171.281-140.425-231.031-70.618-59.755-158.737-94.942-251.089-100.254-92.352-5.316-183.929 19.524-260.934 70.784-77.005 51.255-135.266 126.148-166.004 213.397-7.83 22.225 3.839 46.588 26.064 54.421 22.225 7.829 46.59-3.84 54.42-26.065 24.591-69.798 71.2-129.715 132.803-170.718 61.604-41.007 134.867-60.881 208.748-56.627 73.877 4.25 144.375 32.397 200.87 80.201 56.491 47.804 95.919 112.67 112.341 184.828 16.418 72.158 8.943 147.699-21.299 215.241-30.246 67.54-81.621 123.422-146.389 159.226-64.764 35.803-139.413 49.588-212.693 39.278-73.281-10.31-141.227-44.157-193.6-96.442-0.305-0.304-0.614-0.603-0.927-0.898l-197.973-186.028c-17.172-16.137-44.174-15.296-60.311 1.877s-15.296 44.175 1.876 60.311l197.515 185.596c65.402 65.089 150.147 107.227 241.532 120.084z"/>
            <glyph unicode="&#xe903;" glyph-name="Group-2095"
                   d="M981.333 832c23.565 0 42.667-19.103 42.667-42.667v-256c0-23.565-19.102-42.667-42.667-42.667h-256c-23.565 0-42.667 19.102-42.667 42.667s19.102 42.667 42.667 42.667h213.333v213.333c0 23.564 19.102 42.667 42.667 42.667zM560.102 785.867c-73.276 10.394-147.941-3.31-212.749-39.045s-116.247-91.565-146.565-159.078c-30.317-67.514-37.871-143.051-21.523-215.23s55.713-137.088 112.162-184.947c56.449-47.863 126.924-76.079 200.805-80.401s147.166 15.484 208.811 56.435c61.645 40.951 108.309 100.83 132.962 170.611 7.851 22.217 32.226 33.865 54.443 26.018 22.217-7.851 33.865-32.226 26.018-54.443-30.818-87.228-89.148-162.074-166.204-213.265-77.056-51.187-168.661-75.947-261.013-70.545s-180.445 40.674-251.006 100.501c-70.561 59.823-119.767 140.962-140.202 231.185-20.435 90.227-10.993 184.647 26.903 269.038s102.195 154.179 183.206 198.847c81.011 44.668 174.345 61.797 265.938 48.806 91.371-12.96 176.077-55.197 241.404-120.366l197.086-185.594c17.156-16.155 17.967-43.157 1.813-60.314-16.154-17.152-43.157-17.967-60.314-1.809l-197.547 186.025c-0.311 0.296-0.623 0.596-0.926 0.902-52.318 52.348-120.226 86.275-193.502 96.668z"/>
            <glyph unicode="&#xe904;" glyph-name="Group-2096"
                   d="M128 490.667c0 23.565 19.103 42.667 42.667 42.667 113.159 0 221.683-44.954 301.7-124.966 80.013-80.017 124.966-188.54 124.966-301.7 0-23.565-19.102-42.667-42.667-42.667s-42.667 19.102-42.667 42.667c0 90.526-35.964 177.348-99.974 241.361-64.012 64.009-150.832 99.972-241.359 99.972-23.564 0-42.667 19.102-42.667 42.667zM128 789.333c0 23.564 19.103 42.667 42.667 42.667 192.37 0 376.862-76.419 512.887-212.445s212.446-320.517 212.446-512.888c0-23.565-19.102-42.667-42.667-42.667s-42.667 19.102-42.667 42.667c0 169.737-67.43 332.527-187.452 452.548-120.021 120.023-282.81 187.452-452.548 187.452-23.564 0-42.667 19.103-42.667 42.667zM128 149.333c0 47.13 38.205 85.333 85.333 85.333s85.333-38.204 85.333-85.333c0-47.13-38.205-85.333-85.333-85.333s-85.333 38.204-85.333 85.333z"/>
            <glyph unicode="&#xe905;" glyph-name="Group-2097"
                   d="M213.333 789.333c-11.316 0-22.168-4.495-30.17-12.497s-12.497-18.854-12.497-30.17v-597.333c0-11.315 4.495-22.17 12.497-30.17s18.854-12.497 30.17-12.497h597.333c11.315 0 22.17 4.497 30.17 12.497s12.497 18.854 12.497 30.17v451.66l-188.339 188.34h-451.661zM122.824 837.176c24.005 24.005 56.562 37.49 90.51 37.49h469.333c11.315 0 22.17-4.495 30.17-12.497l213.333-213.333c8-8.002 12.497-18.854 12.497-30.17v-469.333c0-33.95-13.487-66.505-37.491-90.509s-56.559-37.491-90.509-37.491h-597.333c-33.948 0-66.505 13.487-90.51 37.491s-37.49 56.559-37.49 90.509v597.333c0 33.948 13.486 66.505 37.49 90.51zM256 405.333c0 23.565 19.103 42.667 42.667 42.667h426.667c23.565 0 42.667-19.102 42.667-42.667v-341.333c0-23.565-19.102-42.667-42.667-42.667s-42.667 19.102-42.667 42.667v298.667h-341.333v-298.667c0-23.565-19.103-42.667-42.667-42.667s-42.667 19.102-42.667 42.667v341.333zM298.667 874.667c23.564 0 42.667-19.103 42.667-42.667v-170.667h298.667c23.565 0 42.667-19.103 42.667-42.667s-19.102-42.667-42.667-42.667h-341.333c-23.564 0-42.667 19.103-42.667 42.667v213.333c0 23.564 19.103 42.667 42.667 42.667z"/>
            <glyph unicode="&#xe906;" glyph-name="Group-2098"
                   d="M256 277.333c-47.128 0-85.333-38.204-85.333-85.333s38.205-85.333 85.333-85.333c47.128 0 85.333 38.204 85.333 85.333s-38.205 85.333-85.333 85.333zM85.333 192c0 94.255 76.41 170.667 170.667 170.667s170.667-76.412 170.667-170.667c0-94.255-76.41-170.667-170.667-170.667s-170.667 76.412-170.667 170.667zM256 789.333c-47.128 0-85.333-38.205-85.333-85.333s38.205-85.333 85.333-85.333c47.128 0 85.333 38.205 85.333 85.333s-38.205 85.333-85.333 85.333zM85.333 704c0 94.257 76.41 170.667 170.667 170.667s170.667-76.41 170.667-170.667c0-94.257-76.41-170.667-170.667-170.667s-170.667 76.41-170.667 170.667zM883.507 819.503c16.661-16.663 16.661-43.677 0-60.34l-506.879-506.88c-16.662-16.661-43.677-16.661-60.34 0s-16.662 43.678 0 60.339l506.88 506.88c16.661 16.662 43.678 16.662 60.339 0zM587.179 372.331c16.649 16.678 43.661 16.7 60.339 0.055l235.947-235.52c16.678-16.649 16.7-43.665 0.055-60.339-16.649-16.678-43.665-16.704-60.339-0.055l-235.947 235.52c-16.678 16.644-16.704 43.661-0.055 60.339zM316.288 643.717c16.662 16.663 43.677 16.663 60.34 0l165.546-165.547c16.661-16.661 16.661-43.678 0-60.339s-43.678-16.661-60.339 0l-165.546 165.547c-16.662 16.662-16.662 43.677 0 60.34z"/>
            <glyph unicode="&#xe907;" glyph-name="Group-2099"
                   d="M469.333 789.333c-164.949 0-298.667-133.718-298.667-298.667s133.718-298.667 298.667-298.667c164.949 0 298.667 133.717 298.667 298.667s-133.717 298.667-298.667 298.667zM85.333 490.667c0 212.077 171.923 384 384 384 212.079 0 384-171.923 384-384 0-212.079-171.921-384-384-384-212.077 0-384 171.921-384 384zM680.247 279.77c16.661 16.661 43.678 16.661 60.339 0l185.6-185.6c16.661-16.661 16.661-43.678 0-60.339-16.661-16.666-43.678-16.666-60.339 0l-185.6 185.6c-16.661 16.661-16.661 43.678 0 60.339z"/>
            <glyph unicode="&#xe908;" glyph-name="Group-2100"
                   d="M968.836 904.837c16.661-16.663 16.661-43.677 0-60.34l-469.333-469.333c-16.661-16.661-43.678-16.661-60.339 0-16.663 16.661-16.663 43.678 0 60.339l469.333 469.334c16.661 16.662 43.678 16.662 60.339 0zM968.836 904.835c11.593-11.59 15.518-28.794 10.103-44.265l-298.667-853.334c-5.781-16.512-21.056-27.823-38.532-28.535-17.481-0.713-33.626 9.318-40.73 25.301l-164.002 369.007-369.004 164c-15.986 7.105-26.016 23.249-25.303 40.729s12.024 32.753 28.536 38.532l853.335 298.667c15.467 5.415 32.674 1.489 44.262-10.101zM201.006 571.28l285.654-126.958c9.655-4.292 17.374-12.011 21.662-21.662l126.959-285.658 233.839 668.117-668.114-233.84z"/>
            <glyph unicode="&#xe909;" glyph-name="Group-2101"
                   d="M170.667 320c-23.564 0-42.667-19.102-42.667-42.667v-170.667c0-23.565 19.103-42.667 42.667-42.667h682.667c23.565 0 42.667 19.102 42.667 42.667v170.667c0 23.565-19.102 42.667-42.667 42.667h-682.667zM42.667 277.333c0 70.694 57.308 128 128 128h682.667c70.694 0 128-57.306 128-128v-170.667c0-70.694-57.306-128-128-128h-682.667c-70.692 0-128 57.306-128 128v170.667zM213.333 192c0 23.565 19.103 42.667 42.667 42.667h0.427c23.564 0 42.667-19.102 42.667-42.667s-19.102-42.667-42.667-42.667h-0.427c-23.564 0-42.667 19.102-42.667 42.667zM170.667 832c-23.564 0-42.667-19.103-42.667-42.667v-170.667c0-23.564 19.103-42.667 42.667-42.667h682.667c23.565 0 42.667 19.103 42.667 42.667v170.667c0 23.564-19.102 42.667-42.667 42.667h-682.667zM42.667 789.333c0 70.692 57.308 128 128 128h682.667c70.694 0 128-57.308 128-128v-170.667c0-70.692-57.306-128-128-128h-682.667c-70.692 0-128 57.308-128 128v170.667zM213.333 704c0 23.564 19.103 42.667 42.667 42.667h0.427c23.564 0 42.667-19.103 42.667-42.667s-19.102-42.667-42.667-42.667h-0.427c-23.564 0-42.667 19.103-42.667 42.667z"/>
            <glyph unicode="&#xe90a;" glyph-name="Group-2102"
                   d="M512 533.333c-47.13 0-85.333-38.204-85.333-85.333s38.204-85.333 85.333-85.333c47.13 0 85.333 38.204 85.333 85.333s-38.204 85.333-85.333 85.333zM341.333 448c0 94.257 76.41 170.667 170.667 170.667 94.255 0 170.667-76.41 170.667-170.667 0-94.255-76.412-170.667-170.667-170.667-94.257 0-170.667 76.412-170.667 170.667zM512 874.667c-11.315 0-22.17-4.495-30.17-12.497s-12.497-18.854-12.497-30.17v-7.424c-0.090-22.051-6.622-43.594-18.799-61.978-12.173-18.385-29.459-32.808-49.727-41.495-3.607-1.546-7.403-2.583-11.278-3.090-18.416-6.449-38.241-8.039-57.541-4.539-22.229 4.031-42.741 14.628-58.892 30.426l-0.336 0.329-2.558 2.562c-3.962 3.967-8.685 7.131-13.865 9.278s-10.732 3.252-16.339 3.252c-5.607 0-11.159-1.105-16.339-3.252s-9.885-5.295-13.848-9.261l-0.034-0.034c-3.967-3.962-7.114-8.668-9.261-13.848s-3.252-10.732-3.252-16.339c0-5.607 1.105-11.159 3.252-16.339s5.295-9.885 9.261-13.848l2.91-2.909c15.797-16.15 26.393-36.664 30.423-58.893 3.951-21.787 1.415-44.244-7.275-64.588-7.917-20.759-21.78-38.738-39.868-51.674-18.454-13.197-40.451-20.54-63.133-21.069l-0.998-0.013h-3.84c-11.316 0-22.168-4.497-30.17-12.497s-12.497-18.854-12.497-30.17c0-11.315 4.495-22.17 12.497-30.17s18.854-12.497 30.17-12.497h7.424c22.051-0.090 43.594-6.622 61.978-18.799 18.321-12.13 32.708-29.338 41.404-49.515 9.048-20.617 11.738-43.465 7.721-65.617-4.031-22.229-14.628-42.739-30.426-58.893l-0.329-0.337-2.562-2.556c-3.967-3.964-7.13-8.687-9.278-13.867s-3.252-10.731-3.252-16.337c0-5.606 1.105-11.157 3.252-16.337s5.295-9.886 9.261-13.85l0.034-0.034c3.962-3.968 8.668-7.113 13.848-9.259 5.18-2.15 10.732-3.255 16.339-3.255s11.159 1.105 16.339 3.255c5.18 2.146 9.885 5.291 13.848 9.259l2.909 2.91c16.15 15.799 36.664 26.394 58.893 30.426 21.787 3.947 44.244 1.412 64.588-7.275 20.759-7.919 38.738-21.781 51.675-39.872 13.197-18.453 20.54-40.448 21.069-63.13l0.013-0.998v-3.84c0-11.315 4.497-22.17 12.497-30.17s18.854-12.497 30.17-12.497c11.315 0 22.17 4.497 30.17 12.497s12.497 18.854 12.497 30.17v7.424c0.090 22.050 6.622 43.593 18.799 61.978 12.134 18.321 29.342 32.713 49.519 41.408 20.612 9.045 43.46 11.733 65.613 7.718 22.229-4.032 42.739-14.63 58.893-30.426l2.893-2.893c3.964-3.968 8.687-7.13 13.867-9.276 5.18-2.15 10.731-3.255 16.337-3.255s11.157 1.105 16.337 3.255c5.18 2.146 9.886 5.291 13.85 9.259l0.034 0.034c3.968 3.964 7.113 8.67 9.259 13.85 2.15 5.18 3.255 10.731 3.255 16.337s-1.105 11.157-3.255 16.337c-2.146 5.18-5.291 9.886-9.259 13.85l-2.91 2.91c-15.799 16.149-26.394 36.663-30.426 58.893-4.015 22.153-1.327 45.001 7.718 65.613 8.695 20.177 23.087 37.385 41.408 49.519 18.385 12.177 39.927 18.709 61.978 18.799h4.011c11.315 0 22.17 4.497 30.17 12.497s12.497 18.854 12.497 30.17c0 11.315-4.497 22.17-12.497 30.17s-18.854 12.497-30.17 12.497h-7.424c-22.050 0.090-43.593 6.622-61.978 18.799-18.385 12.173-32.806 29.459-41.493 49.727-1.549 3.607-2.586 7.403-3.093 11.278-6.447 18.417-8.038 38.242-4.54 57.541 4.032 22.229 14.63 42.741 30.426 58.892l0.329 0.336 2.564 2.558c3.968 3.963 7.13 8.685 9.276 13.865 2.15 5.18 3.255 10.732 3.255 16.339s-1.105 11.159-3.255 16.339c-2.146 5.18-5.291 9.885-9.259 13.848l-0.034 0.034c-3.964 3.967-8.67 7.114-13.85 9.261s-10.731 3.252-16.337 3.252c-5.606 0-11.157-1.105-16.337-3.252s-9.886-5.295-13.85-9.261l-2.91-2.91c-16.149-15.797-36.663-26.393-58.893-30.423-22.153-4.017-45.001-1.328-65.617 7.721-20.177 8.696-37.385 23.083-49.515 41.404-12.177 18.385-18.709 39.928-18.799 61.978v4.010c0 11.316-4.497 22.168-12.497 30.17s-18.854 12.497-30.17 12.497zM827.733 320l39.036-17.229c-2.24-5.069-2.906-10.692-1.916-16.145 0.977-5.393 3.529-10.372 7.334-14.315l2.338-2.338c0.004-0.004-0.004 0.004 0 0 11.895-11.883 21.346-26.014 27.785-41.545 6.443-15.539 9.758-32.196 9.758-49.015s-3.315-33.476-9.758-49.015c-6.443-15.539-15.885-29.658-27.785-41.545l-30.153 30.187 30.187-30.153c-11.887-11.9-26.005-21.342-41.545-27.785s-32.196-9.758-49.015-9.758c-16.819 0-33.476 3.315-49.015 9.758-15.531 6.438-29.645 15.872-41.527 27.767-0.004 0.004 0.004-0.004 0 0l-2.355 2.355c-3.942 3.806-8.922 6.357-14.315 7.334-5.453 0.99-11.076 0.324-16.145-1.916l-0.418-0.183c-4.975-2.129-9.216-5.666-12.198-10.176-2.978-4.493-4.578-9.754-4.612-15.138v-7.147c0-33.95-13.487-66.505-37.491-90.509s-56.559-37.491-90.509-37.491c-33.95 0-66.505 13.487-90.51 37.491s-37.49 56.559-37.49 90.509v3.226c-0.202 5.427-1.994 10.679-5.157 15.104-3.238 4.523-7.761 7.97-12.984 9.894-0.844 0.307-1.677 0.644-2.499 1.007-5.070 2.24-10.694 2.906-16.146 1.916-5.393-0.977-10.374-3.529-14.316-7.334l-2.338-2.338c-0.006-0.004 0.006 0.004 0 0-11.884-11.895-26.012-21.346-41.544-27.785-15.539-6.443-32.195-9.758-49.016-9.758s-33.478 3.315-49.016 9.758c-15.524 6.434-29.629 15.863-41.51 27.75-11.901 11.887-21.342 26.005-27.784 41.545s-9.757 32.196-9.757 49.015c0 16.819 3.315 33.476 9.757 49.015s15.883 29.658 27.784 41.545l2.339 2.338c3.805 3.942 6.358 8.922 7.336 14.315 0.989 5.453 0.321 11.076-1.916 16.145l-0.185 0.418c-2.131 4.975-5.666 9.216-10.176 12.198-4.492 2.978-9.753 4.578-15.139 4.612h-7.147c-33.948 0-66.505 13.487-90.51 37.491s-37.49 56.563-37.49 90.509c0 33.946 13.486 66.505 37.49 90.51s56.562 37.49 90.51 37.49h3.227c5.427 0.202 10.678 1.994 15.1 5.157 4.527 3.237 7.974 7.761 9.895 12.984 0.311 0.844 0.647 1.677 1.010 2.499 2.237 5.070 2.905 10.694 1.916 16.146-0.978 5.393-3.532 10.374-7.337 14.315l-2.339 2.339c-11.901 11.888-21.342 26.004-27.784 41.544s-9.757 32.195-9.757 49.016c0 16.821 3.315 33.478 9.757 49.016 6.438 15.532 15.874 29.643 27.767 41.527 11.884 11.893 25.996 21.328 41.527 27.767 15.539 6.442 32.195 9.757 49.016 9.757s33.478-3.315 49.016-9.757c15.539-6.441 29.656-15.883 41.544-27.784l2.339-2.339c3.941-3.805 8.922-6.359 14.315-7.337 5.452-0.989 11.076-0.321 16.146 1.916 2.732 1.206 5.576 2.118 8.483 2.727 2.975 2.019 5.543 4.608 7.547 7.633 2.975 4.492 4.576 9.753 4.61 15.139v7.147c0 33.948 13.486 66.505 37.49 90.51s56.564 37.49 90.51 37.49c33.946 0 66.505-13.486 90.509-37.49s37.491-56.562 37.491-90.51v-3.733c0.034-5.386 1.634-10.647 4.612-15.139 2.982-4.509 7.223-8.047 12.194-10.178l0.422-0.18c5.069-2.237 10.692-2.907 16.145-1.919 5.393 0.978 10.372 3.532 14.315 7.336l2.338 2.339c11.887 11.901 26.005 21.342 41.545 27.784s32.196 9.757 49.015 9.757c16.819 0 33.476-3.315 49.015-9.757s29.658-15.883 41.545-27.784c11.887-11.881 21.316-25.986 27.75-41.51 6.443-15.539 9.758-32.195 9.758-49.016s-3.315-33.478-9.758-49.016c-6.438-15.532-15.872-29.643-27.767-41.527-0.004-0.006 0.004 0.006 0 0l-2.355-2.356c-3.806-3.941-6.357-8.922-7.334-14.315-0.99-5.452-0.324-11.076 1.916-16.146 1.203-2.732 2.116-5.576 2.726-8.483 2.018-2.975 4.608-5.543 7.633-7.547 4.493-2.975 9.754-4.576 15.138-4.61h7.147c33.95 0 66.505-13.486 90.509-37.49s37.491-56.56 37.491-90.51c0-33.95-13.487-66.505-37.491-90.509s-56.559-37.491-90.509-37.491h-3.733c-5.385-0.034-10.645-1.634-15.138-4.612-4.51-2.982-8.047-7.223-10.18-12.194l-39.215 16.806z"/>
            <glyph unicode="&#xe90b;" glyph-name="Group-2103"
                   d="M170.667 490.667c23.564 0 42.667-19.102 42.667-42.667v-341.333c0-11.315 4.495-22.17 12.497-30.17s18.854-12.497 30.17-12.497h512c11.315 0 22.17 4.497 30.17 12.497s12.497 18.854 12.497 30.17v341.333c0 23.565 19.102 42.667 42.667 42.667s42.667-19.102 42.667-42.667v-341.333c0-33.95-13.487-66.505-37.491-90.509s-56.559-37.491-90.509-37.491h-512c-33.948 0-66.505 13.487-90.51 37.491s-37.49 56.563-37.49 90.509v341.333c0 23.565 19.103 42.667 42.667 42.667zM481.83 904.837c16.661 16.662 43.678 16.662 60.339 0l170.667-170.667c16.661-16.663 16.661-43.677 0-60.34s-43.678-16.662-60.339 0l-140.497 140.497-140.497-140.497c-16.663-16.662-43.677-16.662-60.34 0s-16.662 43.677 0 60.34l170.667 170.667zM512 917.333c23.565 0 42.667-19.103 42.667-42.667v-554.667c0-23.565-19.102-42.667-42.667-42.667s-42.667 19.102-42.667 42.667v554.667c0 23.564 19.102 42.667 42.667 42.667z"/>
            <glyph unicode="&#xe90c;" glyph-name="Group-2104"
                   d="M768 234.667c-47.13 0-85.333-38.204-85.333-85.333s38.204-85.333 85.333-85.333c47.13 0 85.333 38.204 85.333 85.333s-38.204 85.333-85.333 85.333zM597.333 149.333c0 94.255 76.412 170.667 170.667 170.667s170.667-76.412 170.667-170.667c0-94.255-76.412-170.667-170.667-170.667s-170.667 76.412-170.667 170.667zM256 533.333c-47.128 0-85.333-38.204-85.333-85.333s38.205-85.333 85.333-85.333c47.128 0 85.333 38.204 85.333 85.333s-38.205 85.333-85.333 85.333zM85.333 448c0 94.257 76.41 170.667 170.667 170.667s170.667-76.41 170.667-170.667c0-94.255-76.41-170.667-170.667-170.667s-170.667 76.412-170.667 170.667zM329.643 405.056c11.864 20.361 37.987 27.247 58.346 15.381l291.414-169.813c20.361-11.861 27.247-37.986 15.381-58.347-11.861-20.356-37.986-27.247-58.347-15.381l-291.412 169.813c-20.36 11.866-27.247 37.986-15.383 58.347zM768 832c-47.13 0-85.333-38.205-85.333-85.333s38.204-85.333 85.333-85.333c47.13 0 85.333 38.205 85.333 85.333s-38.204 85.333-85.333 85.333zM597.333 746.667c0 94.257 76.412 170.667 170.667 170.667s170.667-76.41 170.667-170.667c0-94.257-76.412-170.667-170.667-170.667s-170.667 76.41-170.667 170.667zM694.345 703.746c11.878-20.352 5.005-46.479-15.347-58.356l-290.985-169.814c-20.352-11.874-46.479-5.005-58.356 15.347s-5.007 46.478 15.345 58.355l290.988 169.813c20.352 11.877 46.477 5.007 58.355-15.345z"/>
            <glyph unicode="&#xe90d;" glyph-name="Group-2105"
                   d="M497.020 914.617c9.66 3.622 20.301 3.622 29.961 0l341.333-128c16.653-6.245 27.686-22.165 27.686-39.95v-298.667c0-147.046-97.353-264.546-185.237-341.444-44.838-39.232-89.472-69.897-122.816-90.735-16.717-10.449-30.707-18.496-40.614-23.983-4.958-2.743-8.905-4.851-11.665-6.302-1.382-0.725-2.47-1.289-3.238-1.681l-0.917-0.469-0.277-0.137-0.094-0.047c-0.013-0.009-0.060-0.030-19.14 38.131-19.081-38.161-19.093-38.157-19.106-38.148l-0.128 0.064-0.277 0.137-0.917 0.469c-0.768 0.393-1.856 0.956-3.238 1.681-2.761 1.451-6.707 3.558-11.665 6.302-9.907 5.487-23.898 13.534-40.614 23.983-33.342 20.838-77.978 51.503-122.816 90.735-87.883 76.898-185.237 194.398-185.237 341.444v298.667c0 17.785 11.032 33.705 27.686 39.95l341.334 128zM512 21.333l-19.106-38.148c12.011-6.007 26.176-6.020 38.187-0.013l-19.081 38.161zM512 69.854c8.175 4.638 18.633 10.773 30.72 18.325 30.656 19.162 71.356 47.164 111.851 82.598 82.782 72.435 156.096 168.269 156.096 277.222v269.099l-298.667 112-298.667-112v-269.099c0-108.954 73.312-204.787 156.096-277.222 40.496-35.435 81.195-63.437 111.851-82.598 12.087-7.552 22.545-13.687 30.72-18.325z"/>
            <glyph unicode="&#xe90e;" glyph-name="Group-2106"
                   d="M497.079 914.638c9.643 3.601 20.267 3.594 29.905-0.021l341.333-128c16.653-6.245 27.686-22.165 27.686-39.95v-298.948c-0.218-33.135-5.321-66.057-15.142-97.698-6.989-22.507-30.895-35.089-53.397-28.105-22.507 6.989-35.089 30.895-28.1 53.397 7.322 23.59 11.132 48.132 11.307 72.832v268.954l-298.697 112.012-119.87-44.762c-22.075-8.243-46.653 2.97-54.897 25.045s2.97 46.653 25.045 54.897l134.827 50.347zM241.83 772.987c8.175-22.101-3.115-46.644-25.216-54.818l-3.281-1.213v-268.956c0-108.954 73.312-204.787 156.096-277.222 40.496-35.435 81.195-63.437 111.851-82.598 12.058-7.535 22.49-13.658 30.656-18.287 77.939 43.904 148.25 100.245 208.119 166.844 15.757 17.527 42.731 18.961 60.258 3.204 17.523-15.753 18.957-42.731 3.204-60.254-71.646-79.693-156.83-146.078-251.605-196.087-12.169-6.421-26.688-6.579-38.993-0.427l19.081 38.161c-19.081-38.161-19.068-38.17-19.081-38.161l-0.154 0.077-0.277 0.137-0.917 0.469c-0.768 0.393-1.856 0.956-3.238 1.681-2.761 1.451-6.707 3.558-11.665 6.302-9.907 5.487-23.898 13.534-40.614 23.979-33.342 20.843-77.978 51.507-122.816 90.739-87.883 76.898-185.237 194.398-185.237 341.444v298.666c0 17.856 11.119 33.823 27.866 40.017l31.147 11.52c22.101 8.174 46.644-3.116 54.818-25.216zM12.497 947.503c16.662 16.662 43.677 16.662 60.34 0l938.666-938.667c16.661-16.661 16.661-43.678 0-60.339s-43.678-16.661-60.339 0l-938.667 938.666c-16.662 16.663-16.662 43.678 0 60.34z"/>
            <glyph unicode="&#xe90f;" glyph-name="Group-2107"
                   d="M221.867 900.267c8.058 10.744 20.704 17.067 34.133 17.067h512c13.431 0 26.074-6.323 34.133-17.067l128-170.667c5.538-7.386 8.533-16.368 8.533-25.6v-597.333c0-33.95-13.487-66.505-37.491-90.509s-56.559-37.491-90.509-37.491h-597.333c-33.948 0-66.505 13.487-90.51 37.491s-37.49 56.559-37.49 90.509v597.333c0 9.232 2.994 18.214 8.533 25.6l128 170.667zM277.333 832l-106.667-142.222v-583.111c0-11.315 4.495-22.17 12.497-30.17s18.854-12.497 30.17-12.497h597.333c11.315 0 22.17 4.497 30.17 12.497s12.497 18.854 12.497 30.17v583.111l-106.667 142.222h-469.333zM341.333 576c23.564 0 42.667-19.103 42.667-42.667 0-33.946 13.486-66.505 37.49-90.509s56.564-37.491 90.51-37.491c33.946 0 66.505 13.487 90.509 37.491s37.491 56.563 37.491 90.509c0 23.564 19.102 42.667 42.667 42.667s42.667-19.103 42.667-42.667c0-56.58-22.477-110.844-62.485-150.848-40.004-40.009-94.268-62.485-150.848-62.485s-110.842 22.477-150.849 62.485c-40.008 40.004-62.484 94.268-62.484 150.848 0 23.564 19.103 42.667 42.667 42.667zM85.333 704c0 23.564 19.103 42.667 42.667 42.667h768c23.565 0 42.667-19.103 42.667-42.667s-19.102-42.667-42.667-42.667h-768c-23.564 0-42.667 19.103-42.667 42.667z"/>
            <glyph unicode="&#xe910;" glyph-name="Group-2108"
                   d="M768 64c0 47.13 38.204 85.333 85.333 85.333s85.333-38.204 85.333-85.333c0-47.13-38.204-85.333-85.333-85.333s-85.333 38.204-85.333 85.333zM298.667 64c0 47.13 38.205 85.333 85.333 85.333 47.13 0 85.333-38.204 85.333-85.333s-38.204-85.333-85.333-85.333c-47.128 0-85.333 38.204-85.333 85.333zM0 917.333c0 23.564 19.103 42.667 42.667 42.667h170.667c20.336 0 37.846-14.352 41.837-34.293l35.835-179.040h690.328c12.715 0 24.768-5.672 32.875-15.469s11.418-22.7 9.037-35.19l-68.326-358.292c-5.854-29.466-21.884-55.936-45.286-74.773-23.283-18.743-52.39-28.745-82.266-28.275h-413.984c-29.878-0.469-58.984 9.532-82.268 28.275-23.391 18.833-39.417 45.286-45.276 74.735-0.003 0.013 0.003-0.009 0 0l-71.276 356.117c-0.289 1.178-0.529 2.375-0.719 3.589l-35.483 177.283h-135.694c-23.564 0-42.667 19.103-42.667 42.667zM308.084 661.333l61.445-306.995c1.951-9.822 7.294-18.645 15.094-24.922 7.8-6.281 17.561-9.617 27.572-9.425l0.817 0.009 415.539-0.009c10.010-0.192 19.772 3.145 27.571 9.425 7.765 6.251 13.094 15.019 15.066 24.785l58.573 307.132h-621.678z"/>
            <glyph unicode="&#xe911;" glyph-name="Group-2109"
                   d="M640 832c0 23.564 19.102 42.667 42.667 42.667h213.333c23.565 0 42.667-19.103 42.667-42.667v-213.333c0-23.564-19.102-42.667-42.667-42.667s-42.667 19.103-42.667 42.667v170.667h-170.667c-23.565 0-42.667 19.103-42.667 42.667zM926.17 862.17c16.661-16.663 16.661-43.677 0-60.34l-725.333-725.333c-16.663-16.661-43.677-16.661-60.34 0s-16.662 43.678 0 60.339l725.334 725.334c16.661 16.662 43.678 16.662 60.339 0zM896 320c23.565 0 42.667-19.102 42.667-42.667v-213.333c0-23.565-19.102-42.667-42.667-42.667h-213.333c-23.565 0-42.667 19.102-42.667 42.667s19.102 42.667 42.667 42.667h170.667v170.667c0 23.565 19.102 42.667 42.667 42.667zM609.83 350.17c16.661 16.661 43.678 16.661 60.339 0l256-256c16.661-16.661 16.661-43.678 0-60.339s-43.678-16.661-60.339 0l-256 256c-16.661 16.661-16.661 43.678 0 60.339zM140.497 819.503c16.663 16.662 43.677 16.662 60.34 0l213.333-213.333c16.661-16.663 16.661-43.677 0-60.34-16.663-16.661-43.677-16.661-60.34 0l-213.333 213.333c-16.662 16.663-16.662 43.677 0 60.34z"/>
            <glyph unicode="&#xe912;" glyph-name="Group-2110"
                   d="M213.333 789.333c-23.564 0-42.667-19.103-42.667-42.667v-597.333c0-23.565 19.103-42.667 42.667-42.667h597.333c23.565 0 42.667 19.102 42.667 42.667v597.333c0 23.564-19.102 42.667-42.667 42.667h-597.333zM85.333 746.667c0 70.692 57.308 128 128 128h597.333c70.694 0 128-57.308 128-128v-597.333c0-70.694-57.306-128-128-128h-597.333c-70.692 0-128 57.306-128 128v597.333zM384 874.667c23.564 0 42.667-19.103 42.667-42.667v-768c0-23.565-19.103-42.667-42.667-42.667s-42.667 19.102-42.667 42.667v768c0 23.564 19.103 42.667 42.667 42.667z"/>
            <glyph unicode="&#xe913;" glyph-name="Group-2111"
                   d="M213.333 789.333c23.564 0 42.667-19.103 42.667-42.667v-597.333c0-23.565-19.103-42.667-42.667-42.667s-42.667 19.102-42.667 42.667v597.333c0 23.564 19.103 42.667 42.667 42.667zM829.15 827.788c14.784-7.105 24.183-22.054 24.183-38.455v-682.666c0-16.401-9.399-31.351-24.183-38.455s-32.329-5.107-45.137 5.137l-426.667 341.333c-10.121 8.098-16.013 20.356-16.013 33.318s5.892 25.22 16.013 33.318l426.667 341.332c12.809 10.246 30.353 12.243 45.137 5.138zM452.301 448l315.699-252.561v505.121l-315.699-252.56z"/>
            <glyph unicode="&#xe914;" glyph-name="Group-2112"
                   d="M810.667 789.333c23.565 0 42.667-19.103 42.667-42.667v-597.333c0-23.565-19.102-42.667-42.667-42.667s-42.667 19.102-42.667 42.667v597.333c0 23.564 19.102 42.667 42.667 42.667zM194.851 827.788c14.783 7.105 32.329 5.108 45.137-5.138l426.667-341.332c10.121-8.098 16.013-20.356 16.013-33.318s-5.892-25.22-16.013-33.318l-426.667-341.333c-12.807-10.244-30.354-12.241-45.137-5.137s-24.184 22.054-24.184 38.455v682.666c0 16.401 9.402 31.351 24.184 38.455zM256 700.56v-505.121l315.699 252.561-315.699 252.56z"/>
            <glyph unicode="&#xe915;" glyph-name="Group-2113"
                   d="M554.667 149.333c0 23.565 19.102 42.667 42.667 42.667h64c58.978 0 106.667-47.689 106.667-106.667s-47.689-106.667-106.667-106.667c-58.978 0-106.667 47.689-106.667 106.667v64zM640 106.667v-21.333c0-11.849 9.485-21.333 21.333-21.333s21.333 9.485 21.333 21.333c0 11.849-9.485 21.333-21.333 21.333h-21.333zM405.333 320c-11.849 0-21.333-9.485-21.333-21.333v-213.333c0-11.849 9.484-21.333 21.333-21.333s21.333 9.485 21.333 21.333v213.333c0 11.849-9.484 21.333-21.333 21.333zM298.667 298.667c0 58.978 47.689 106.667 106.667 106.667s106.667-47.689 106.667-106.667v-213.333c0-58.978-47.689-106.667-106.667-106.667s-106.667 47.689-106.667 106.667v213.333zM149.333 320c-11.849 0-21.333-9.485-21.333-21.333s9.484-21.333 21.333-21.333c11.849 0 21.333 9.485 21.333 21.333v21.333h-21.333zM42.667 298.667c0 58.978 47.689 106.667 106.667 106.667h64c23.564 0 42.667-19.102 42.667-42.667v-64c0-58.978-47.689-106.667-106.667-106.667s-106.667 47.689-106.667 106.667zM661.333 362.667c-11.849 0-21.333-9.485-21.333-21.333s9.485-21.333 21.333-21.333h213.333c11.849 0 21.333 9.485 21.333 21.333s-9.485 21.333-21.333 21.333h-213.333zM554.667 341.333c0 58.978 47.689 106.667 106.667 106.667h213.333c58.978 0 106.667-47.689 106.667-106.667s-47.689-106.667-106.667-106.667h-213.333c-58.978 0-106.667 47.689-106.667 106.667zM42.667 554.667c0 58.977 47.689 106.667 106.667 106.667h213.333c58.977 0 106.667-47.689 106.667-106.667s-47.689-106.667-106.667-106.667h-213.333c-58.977 0-106.667 47.689-106.667 106.667zM149.333 576c-11.849 0-21.333-9.484-21.333-21.333s9.484-21.333 21.333-21.333h213.333c11.849 0 21.333 9.484 21.333 21.333s-9.484 21.333-21.333 21.333h-213.333zM874.667 618.667c-11.849 0-21.333-9.484-21.333-21.333v-21.333h21.333c11.849 0 21.333 9.484 21.333 21.333s-9.485 21.333-21.333 21.333zM768 597.333c0 58.977 47.689 106.667 106.667 106.667s106.667-47.689 106.667-106.667c0-58.977-47.689-106.667-106.667-106.667h-64c-23.565 0-42.667 19.102-42.667 42.667v64zM618.667 832c-11.849 0-21.333-9.484-21.333-21.333v-213.333c0-11.849 9.485-21.333 21.333-21.333s21.333 9.484 21.333 21.333v213.333c0 11.849-9.485 21.333-21.333 21.333zM512 810.667c0 58.977 47.689 106.667 106.667 106.667s106.667-47.689 106.667-106.667v-213.333c0-58.977-47.689-106.667-106.667-106.667s-106.667 47.689-106.667 106.667v213.333zM256 810.667c0 58.977 47.689 106.667 106.667 106.667s106.667-47.689 106.667-106.667v-64c0-23.564-19.102-42.667-42.667-42.667h-64c-58.977 0-106.667 47.689-106.667 106.667zM362.667 832c-11.849 0-21.333-9.484-21.333-21.333s9.484-21.333 21.333-21.333h21.333v21.333c0 11.849-9.484 21.333-21.333 21.333z"/>
            <glyph unicode="&#xe916;" glyph-name="Group-2114"
                   d="M512 832c-212.077 0-384-171.923-384-384 0-212.079 171.923-384 384-384 212.079 0 384 171.921 384 384 0 212.077-171.921 384-384 384zM42.667 448c0 259.206 210.128 469.333 469.333 469.333 259.204 0 469.333-210.128 469.333-469.333 0-259.204-210.129-469.333-469.333-469.333-259.206 0-469.333 210.129-469.333 469.333zM180.163 779.823c16.662 16.663 43.677 16.663 60.34 0l603.307-603.307c16.661-16.661 16.661-43.678 0-60.339s-43.678-16.661-60.339 0l-603.308 603.307c-16.662 16.662-16.662 43.677 0 60.34z"/>
            <glyph unicode="&#xe917;" glyph-name="Group-2115"
                   d="M853.333 320c23.565 0 42.667-19.102 42.667-42.667v-213.333c0-23.565-19.102-42.667-42.667-42.667s-42.667 19.102-42.667 42.667v213.333c0 23.565 19.102 42.667 42.667 42.667zM682.667 277.333c0 23.565 19.102 42.667 42.667 42.667h256c23.565 0 42.667-19.102 42.667-42.667s-19.102-42.667-42.667-42.667h-256c-23.565 0-42.667 19.102-42.667 42.667zM170.667 405.333c23.564 0 42.667-19.102 42.667-42.667v-298.667c0-23.565-19.103-42.667-42.667-42.667s-42.667 19.102-42.667 42.667v298.667c0 23.565 19.103 42.667 42.667 42.667zM0 362.667c0 23.565 19.103 42.667 42.667 42.667h256c23.564 0 42.667-19.102 42.667-42.667s-19.103-42.667-42.667-42.667h-256c-23.564 0-42.667 19.102-42.667 42.667zM512 490.667c23.565 0 42.667-19.102 42.667-42.667v-384c0-23.565-19.102-42.667-42.667-42.667s-42.667 19.102-42.667 42.667v384c0 23.565 19.102 42.667 42.667 42.667zM341.333 618.667c0 23.564 19.103 42.667 42.667 42.667h256c23.565 0 42.667-19.103 42.667-42.667s-19.102-42.667-42.667-42.667h-256c-23.564 0-42.667 19.103-42.667 42.667zM853.333 874.667c23.565 0 42.667-19.103 42.667-42.667v-384c0-23.565-19.102-42.667-42.667-42.667s-42.667 19.102-42.667 42.667v384c0 23.564 19.102 42.667 42.667 42.667zM512 874.667c23.565 0 42.667-19.103 42.667-42.667v-213.333c0-23.564-19.102-42.667-42.667-42.667s-42.667 19.103-42.667 42.667v213.333c0 23.564 19.102 42.667 42.667 42.667zM170.667 874.667c23.564 0 42.667-19.103 42.667-42.667v-298.667c0-23.565-19.103-42.667-42.667-42.667s-42.667 19.102-42.667 42.667v298.667c0 23.564 19.103 42.667 42.667 42.667z"/>
            <glyph unicode="&#xe918;" glyph-name="Group-2116"
                   d="M298.667 832c-23.564 0-42.667-19.103-42.667-42.667v-682.667c0-23.565 19.103-42.667 42.667-42.667h426.667c23.565 0 42.667 19.102 42.667 42.667v682.667c0 23.564-19.102 42.667-42.667 42.667h-426.667zM170.667 789.333c0 70.692 57.308 128 128 128h426.667c70.694 0 128-57.308 128-128v-682.667c0-70.694-57.306-128-128-128h-426.667c-70.692 0-128 57.306-128 128v682.667zM469.333 192c0 23.565 19.102 42.667 42.667 42.667h0.427c23.565 0 42.667-19.102 42.667-42.667s-19.102-42.667-42.667-42.667h-0.427c-23.565 0-42.667 19.102-42.667 42.667z"/>
            <glyph unicode="&#xe919;" glyph-name="Group-2117"
                   d="M512 832c-212.077 0-384-171.923-384-384 0-212.079 171.923-384 384-384 212.079 0 384 171.921 384 384 0 212.077-171.921 384-384 384zM42.667 448c0 259.206 210.128 469.333 469.333 469.333 259.204 0 469.333-210.128 469.333-469.333 0-259.204-210.129-469.333-469.333-469.333-259.206 0-469.333 210.129-469.333 469.333zM375.335 388.446c-14.173 18.697-40.808 22.447-59.599 8.354-18.851-14.14-22.672-40.883-8.533-59.733l34.133 25.6c-34.133-25.6-34.123-25.613-34.112-25.626l0.022-0.030 0.049-0.068 0.117-0.154 0.308-0.401 0.909-1.165c0.736-0.926 1.732-2.159 2.985-3.652 2.502-2.982 6.043-7.019 10.585-11.759 9.048-9.442 22.271-21.879 39.376-34.317 34.045-24.764 85.338-50.829 150.43-50.829 65.088 0 116.382 26.065 150.426 50.829 17.105 12.437 30.327 24.875 39.377 34.317 4.544 4.74 8.085 8.777 10.586 11.759 1.254 1.493 2.249 2.726 2.982 3.652l0.909 1.165 0.311 0.401 0.115 0.154 0.047 0.068 0.026 0.030c0.009 0.013 0.021 0.026-34.112 25.626l34.133-25.6c14.135 18.85 10.317 45.594-8.533 59.733-18.795 14.093-45.427 10.342-59.601-8.354l-0.196-0.256c-0.256-0.32-0.738-0.922-1.446-1.762-1.412-1.685-3.703-4.314-6.831-7.573-6.285-6.558-15.727-15.454-27.955-24.35-24.623-17.903-58.662-34.505-100.237-34.505-41.579 0-75.618 16.602-100.24 34.505-12.228 8.896-21.673 17.792-27.957 24.35-3.124 3.26-5.417 5.888-6.831 7.573-0.706 0.841-1.189 1.442-1.443 1.762l-0.198 0.256zM597.333 576c0 23.564 19.102 42.667 42.667 42.667h0.427c23.565 0 42.667-19.103 42.667-42.667s-19.102-42.667-42.667-42.667h-0.427c-23.565 0-42.667 19.103-42.667 42.667zM341.333 576c0 23.564 19.103 42.667 42.667 42.667h0.427c23.564 0 42.667-19.103 42.667-42.667s-19.102-42.667-42.667-42.667h-0.427c-23.564 0-42.667 19.103-42.667 42.667z"/>
            <glyph unicode="&#xe91a;" glyph-name="Group-2118"
                   d="M256 832c-23.564 0-42.667-19.103-42.667-42.667v-682.667c0-23.565 19.103-42.667 42.667-42.667h512c23.565 0 42.667 19.102 42.667 42.667v682.667c0 23.564-19.102 42.667-42.667 42.667h-512zM128 789.333c0 70.692 57.308 128 128 128h512c70.694 0 128-57.308 128-128v-682.667c0-70.694-57.306-128-128-128h-512c-70.692 0-128 57.306-128 128v682.667zM512 490.667c-70.694 0-128-57.306-128-128s57.306-128 128-128c70.694 0 128 57.306 128 128s-57.306 128-128 128zM298.667 362.667c0 117.82 95.513 213.333 213.333 213.333s213.333-95.514 213.333-213.333c0-117.82-95.514-213.333-213.333-213.333s-213.333 95.514-213.333 213.333zM469.333 704c0 23.564 19.102 42.667 42.667 42.667h0.427c23.565 0 42.667-19.103 42.667-42.667s-19.102-42.667-42.667-42.667h-0.427c-23.565 0-42.667 19.103-42.667 42.667z"/>
            <glyph unicode="&#xe91b;" glyph-name="Group-2119"
                   d="M213.333 789.333c-23.564 0-42.667-19.103-42.667-42.667v-597.333c0-23.565 19.103-42.667 42.667-42.667h597.333c23.565 0 42.667 19.102 42.667 42.667v597.333c0 23.564-19.102 42.667-42.667 42.667h-597.333zM85.333 746.667c0 70.692 57.308 128 128 128h597.333c70.694 0 128-57.308 128-128v-597.333c0-70.694-57.306-128-128-128h-597.333c-70.692 0-128 57.306-128 128v597.333z"/>
            <glyph unicode="&#xe91c;" glyph-name="Group-2120"
                   d="M512 917.333c16.239 0 31.074-9.219 38.259-23.782l121.924-247.001 272.657-39.852c16.064-2.348 29.406-13.613 34.415-29.059s0.815-32.395-10.816-43.724l-197.257-192.13 46.549-271.428c2.748-16.004-3.836-32.183-16.973-41.732-13.141-9.545-30.562-10.803-44.937-3.243l-243.823 128.226-243.82-128.226c-14.375-7.561-31.796-6.302-44.936 3.243-13.14 9.549-19.722 25.728-16.976 41.732l46.553 271.428-197.257 192.13c-11.632 11.329-15.825 28.279-10.817 43.724s18.349 26.71 34.416 29.059l272.656 39.852 121.921 247.001c7.189 14.563 22.020 23.782 38.259 23.782zM512 778.272l-93.579-189.584c-6.21-12.58-18.207-21.304-32.089-23.333l-209.332-30.597 151.438-147.499c10.064-9.805 14.658-23.932 12.283-37.777l-35.73-208.329 187.153 98.423c12.433 6.537 27.285 6.537 39.718 0l187.153-98.423-35.733 208.329c-2.372 13.845 2.219 27.972 12.284 37.777l151.437 147.499-209.331 30.597c-13.884 2.029-25.877 10.753-32.090 23.333l-93.581 189.584z"/>
            <glyph unicode="&#xe91d;" glyph-name="Group-2121"
                   d="M512 832c-212.077 0-384-171.923-384-384 0-212.079 171.923-384 384-384 212.079 0 384 171.921 384 384 0 212.077-171.921 384-384 384zM42.667 448c0 259.206 210.128 469.333 469.333 469.333 259.204 0 469.333-210.128 469.333-469.333 0-259.204-210.129-469.333-469.333-469.333-259.206 0-469.333 210.129-469.333 469.333zM341.333 576c0 23.564 19.103 42.667 42.667 42.667h256c23.565 0 42.667-19.103 42.667-42.667v-256c0-23.565-19.102-42.667-42.667-42.667h-256c-23.564 0-42.667 19.102-42.667 42.667v256zM426.667 533.333v-170.667h170.667v170.667h-170.667z"/>
            <glyph unicode="&#xe91e;" glyph-name="Group-2122"
                   d="M512 106.667c23.565 0 42.667-19.102 42.667-42.667v-85.333c0-23.565-19.102-42.667-42.667-42.667s-42.667 19.102-42.667 42.667v85.333c0 23.565 19.102 42.667 42.667 42.667zM753.203 206.81c16.666 16.661 43.678 16.661 60.343 0l60.587-60.587c16.661-16.661 16.661-43.678 0-60.339-16.666-16.661-43.678-16.661-60.343 0l-60.587 60.587c-16.661 16.661-16.661 43.678 0 60.339zM270.798 206.81c16.663-16.661 16.663-43.678 0-60.339l-60.587-60.587c-16.662-16.661-43.677-16.661-60.34 0s-16.662 43.678 0 60.339l60.587 60.587c16.662 16.661 43.677 16.661 60.34 0zM853.333 448c0 23.565 19.102 42.667 42.667 42.667h85.333c23.565 0 42.667-19.102 42.667-42.667s-19.102-42.667-42.667-42.667h-85.333c-23.565 0-42.667 19.102-42.667 42.667zM0 448c0 23.565 19.103 42.667 42.667 42.667h85.333c23.564 0 42.667-19.102 42.667-42.667s-19.103-42.667-42.667-42.667h-85.333c-23.564 0-42.667 19.102-42.667 42.667zM512 618.667c-94.257 0-170.667-76.41-170.667-170.667 0-94.255 76.41-170.667 170.667-170.667 94.255 0 170.667 76.412 170.667 170.667 0 94.257-76.412 170.667-170.667 170.667zM256 448c0 141.385 114.615 256 256 256s256-114.615 256-256c0-141.385-114.615-256-256-256s-256 114.615-256 256zM874.133 810.118c16.661-16.663 16.661-43.677 0-60.34l-60.587-60.587c-16.666-16.662-43.678-16.662-60.343 0-16.661 16.663-16.661 43.677 0 60.34l60.587 60.587c16.666 16.662 43.678 16.662 60.343 0zM149.872 810.118c16.662 16.662 43.677 16.662 60.34 0l60.587-60.587c16.663-16.663 16.663-43.677 0-60.34s-43.677-16.662-60.34 0l-60.587 60.587c-16.662 16.663-16.662 43.677 0 60.34zM512 960c23.565 0 42.667-19.103 42.667-42.667v-85.333c0-23.564-19.102-42.667-42.667-42.667s-42.667 19.103-42.667 42.667v85.333c0 23.564 19.102 42.667 42.667 42.667z"/>
            <glyph unicode="&#xe91f;" glyph-name="Group-2123"
                   d="M0 21.333c0 23.565 19.103 42.667 42.667 42.667h938.667c23.565 0 42.667-19.102 42.667-42.667s-19.102-42.667-42.667-42.667h-938.667c-23.564 0-42.667 19.102-42.667 42.667zM853.333 192c0 23.565 19.102 42.667 42.667 42.667h85.333c23.565 0 42.667-19.102 42.667-42.667s-19.102-42.667-42.667-42.667h-85.333c-23.565 0-42.667 19.102-42.667 42.667zM0 192c0 23.565 19.103 42.667 42.667 42.667h85.333c23.564 0 42.667-19.102 42.667-42.667s-19.103-42.667-42.667-42.667h-85.333c-23.564 0-42.667 19.102-42.667 42.667zM330.981 373.018c48.009 48.013 113.124 74.982 181.019 74.982s133.009-26.97 181.018-74.982c48.013-48.009 74.982-113.122 74.982-181.018 0-23.565-19.102-42.667-42.667-42.667s-42.667 19.102-42.667 42.667c0 45.265-17.98 88.674-49.988 120.678-32.004 32.009-75.413 49.988-120.678 49.988s-88.673-17.98-120.68-49.988c-32.006-32.004-49.987-75.413-49.987-120.678 0-23.565-19.103-42.667-42.667-42.667s-42.667 19.102-42.667 42.667c0 67.895 26.971 133.009 74.981 181.018zM874.133 554.118c16.661-16.663 16.661-43.68 0-60.341l-60.587-60.587c-16.666-16.661-43.678-16.661-60.343 0-16.661 16.661-16.661 43.678 0 60.339l60.587 60.588c16.666 16.662 43.678 16.662 60.343 0zM149.872 554.118c16.662 16.662 43.677 16.662 60.34 0l60.587-60.588c16.663-16.661 16.663-43.678 0-60.339s-43.677-16.661-60.34 0l-60.587 60.587c-16.662 16.661-16.662 43.678 0 60.341zM512 917.333c23.565 0 42.667-19.103 42.667-42.667v-298.667c0-23.564-19.102-42.667-42.667-42.667s-42.667 19.103-42.667 42.667v298.667c0 23.564 19.102 42.667 42.667 42.667zM481.83 904.837c16.661 16.662 43.678 16.662 60.339 0l170.667-170.667c16.661-16.663 16.661-43.677 0-60.34s-43.678-16.662-60.339 0l-140.497 140.497-140.497-140.497c-16.663-16.662-43.677-16.662-60.34 0s-16.662 43.677 0 60.34l170.667 170.667z"/>
            <glyph unicode="&#xe920;" glyph-name="Group-2124"
                   d="M0 21.333c0 23.565 19.103 42.667 42.667 42.667h938.667c23.565 0 42.667-19.102 42.667-42.667s-19.102-42.667-42.667-42.667h-938.667c-23.564 0-42.667 19.102-42.667 42.667zM853.333 192c0 23.565 19.102 42.667 42.667 42.667h85.333c23.565 0 42.667-19.102 42.667-42.667s-19.102-42.667-42.667-42.667h-85.333c-23.565 0-42.667 19.102-42.667 42.667zM0 192c0 23.565 19.103 42.667 42.667 42.667h85.333c23.564 0 42.667-19.102 42.667-42.667s-19.103-42.667-42.667-42.667h-85.333c-23.564 0-42.667 19.102-42.667 42.667zM330.981 373.018c48.009 48.013 113.124 74.982 181.019 74.982s133.009-26.97 181.018-74.982c48.013-48.009 74.982-113.122 74.982-181.018 0-23.565-19.102-42.667-42.667-42.667s-42.667 19.102-42.667 42.667c0 45.265-17.98 88.674-49.988 120.678-32.004 32.009-75.413 49.988-120.678 49.988s-88.673-17.98-120.68-49.988c-32.006-32.004-49.987-75.413-49.987-120.678 0-23.565-19.103-42.667-42.667-42.667s-42.667 19.102-42.667 42.667c0 67.895 26.971 133.009 74.981 181.018zM874.133 554.118c16.661-16.663 16.661-43.68 0-60.341l-60.587-60.587c-16.666-16.661-43.678-16.661-60.343 0-16.661 16.661-16.661 43.678 0 60.339l60.587 60.588c16.666 16.662 43.678 16.662 60.343 0zM149.872 554.118c16.662 16.662 43.677 16.662 60.34 0l60.587-60.588c16.663-16.661 16.663-43.678 0-60.339s-43.677-16.661-60.34 0l-60.587 60.587c-16.662 16.661-16.662 43.678 0 60.341zM512 917.333c23.565 0 42.667-19.103 42.667-42.667v-298.667c0-23.564-19.102-42.667-42.667-42.667s-42.667 19.103-42.667 42.667v298.667c0 23.564 19.102 42.667 42.667 42.667zM311.163 776.837c16.663 16.662 43.677 16.662 60.34 0l140.497-140.497 140.497 140.497c16.661 16.662 43.678 16.662 60.339 0s16.661-43.677 0-60.34l-170.667-170.667c-16.661-16.661-43.678-16.661-60.339 0l-170.667 170.667c-16.662 16.663-16.662 43.677 0 60.34z"/>
            <glyph unicode="&#xe921;" glyph-name="Group-2125"
                   d="M256 832c-23.564 0-42.667-19.103-42.667-42.667v-682.667c0-23.565 19.103-42.667 42.667-42.667h512c23.565 0 42.667 19.102 42.667 42.667v682.667c0 23.564-19.102 42.667-42.667 42.667h-512zM128 789.333c0 70.692 57.308 128 128 128h512c70.694 0 128-57.308 128-128v-682.667c0-70.694-57.306-128-128-128h-512c-70.692 0-128 57.306-128 128v682.667zM469.333 192c0 23.565 19.102 42.667 42.667 42.667h0.427c23.565 0 42.667-19.102 42.667-42.667s-19.102-42.667-42.667-42.667h-0.427c-23.565 0-42.667 19.102-42.667 42.667z"/>
            <glyph unicode="&#xe922;" glyph-name="Group-2126"
                   d="M42.667 874.667c0 23.564 19.103 42.667 42.667 42.667h426.667c11.315 0 22.17-4.495 30.17-12.497l366.596-366.597c23.842-23.983 37.222-56.422 37.222-90.24s-13.38-66.257-37.222-90.24l-30.259 30.080 30.17-30.17-305.903-305.903c-0.004-0.004 0.004 0.004 0 0-11.883-11.895-26.014-21.346-41.545-27.785-15.539-6.443-32.196-9.758-49.015-9.758s-33.476 3.315-49.015 9.758c-15.535 6.438-29.649 15.876-41.536 27.776-0.003 0 0.003-0.004 0 0l-366.481 366.054c-8.012 8.004-12.515 18.863-12.515 30.187v426.667zM848.247 417.92c0.013 0.013 0.026 0.026 0.038 0.038 7.923 7.991 12.369 18.786 12.369 30.042s-4.446 22.050-12.369 30.042c-0.013 0.013-0.026 0.026-0.038 0.038l-353.92 353.92h-366.327v-366.31l354.027-353.617c3.964-3.968 8.67-7.113 13.85-9.259 5.18-2.15 10.731-3.255 16.337-3.255s11.157 1.105 16.337 3.255c5.18 2.146 9.886 5.291 13.85 9.259l305.847 305.847zM256 661.333c0 23.564 19.103 42.667 42.667 42.667h0.427c23.564 0 42.667-19.103 42.667-42.667s-19.102-42.667-42.667-42.667h-0.427c-23.564 0-42.667 19.103-42.667 42.667z"/>
            <glyph unicode="&#xe923;" glyph-name="Group-2127"
                   d="M512 832c-212.077 0-384-171.923-384-384 0-212.079 171.923-384 384-384 212.079 0 384 171.921 384 384 0 212.077-171.921 384-384 384zM42.667 448c0 259.206 210.128 469.333 469.333 469.333 259.204 0 469.333-210.128 469.333-469.333 0-259.204-210.129-469.333-469.333-469.333-259.206 0-469.333 210.129-469.333 469.333zM512 661.333c-117.821 0-213.333-95.513-213.333-213.333s95.513-213.333 213.333-213.333c117.82 0 213.333 95.514 213.333 213.333s-95.514 213.333-213.333 213.333zM213.333 448c0 164.949 133.718 298.667 298.667 298.667s298.667-133.718 298.667-298.667c0-164.949-133.717-298.667-298.667-298.667s-298.667 133.717-298.667 298.667zM512 490.667c-23.565 0-42.667-19.102-42.667-42.667s19.102-42.667 42.667-42.667c23.565 0 42.667 19.102 42.667 42.667s-19.102 42.667-42.667 42.667zM384 448c0 70.694 57.306 128 128 128s128-57.306 128-128c0-70.694-57.306-128-128-128s-128 57.306-128 128z"/>
            <glyph unicode="&#xe924;" glyph-name="Group-2128"
                   d="M469.333 149.333c0 23.565 19.102 42.667 42.667 42.667h341.333c23.565 0 42.667-19.102 42.667-42.667s-19.102-42.667-42.667-42.667h-341.333c-23.565 0-42.667 19.102-42.667 42.667zM140.497 776.837c16.663 16.662 43.677 16.662 60.34 0l256-256c16.661-16.661 16.661-43.678 0-60.339l-256-256c-16.663-16.661-43.677-16.661-60.34 0s-16.662 43.678 0 60.339l225.83 225.83-225.83 225.83c-16.662 16.663-16.662 43.677 0 60.34z"/>
            <glyph unicode="&#xe925;" glyph-name="Group-2129"
                   d="M385.072 916.261c28.005 28.006 65.987 43.739 105.594 43.739s77.589-15.733 105.596-43.739c28.006-28.005 43.738-65.989 43.738-105.594v-459.051c32.512-26.82 57.318-62.007 71.616-101.961 16.96-47.403 18.227-98.999 3.614-147.179-14.613-48.175-44.335-90.377-84.77-120.367-40.439-29.99-89.446-46.182-139.793-46.182s-99.354 16.192-139.792 46.182c-40.437 29.99-70.157 72.192-84.771 120.367-14.614 48.179-13.347 99.776 3.615 147.179 14.297 39.953 39.104 75.14 71.615 101.961v459.051c0 39.606 15.733 77.589 43.739 105.594zM490.667 874.667c-16.973 0-33.254-6.743-45.257-18.745s-18.743-28.281-18.743-45.255v-480.427c0-14.251-7.114-27.558-18.963-35.477-26.639-17.796-46.847-43.691-57.641-73.856s-11.6-63.002-2.3-93.658c9.3-30.66 28.212-57.515 53.945-76.599 25.731-19.085 56.92-29.389 88.958-29.389s63.228 10.304 88.96 29.389c25.732 19.085 44.642 45.939 53.943 76.599 9.301 30.656 8.495 63.492-2.3 93.658s-31.002 56.060-57.643 73.856c-11.849 7.919-18.961 21.227-18.961 35.477v480.427c0 16.974-6.741 33.253-18.743 45.255s-28.284 18.745-45.257 18.745z"/>
            <glyph unicode="&#xe926;" glyph-name="Group-2130"
                   d="M877.402 818.534c-10.394 8.921-23.697 13.715-37.393 13.473l-0.755-0.007h-71.253v-384l72.009-0.009c13.696-0.239 26.999 4.553 37.393 13.474 9.766 8.384 16.32 19.866 18.598 32.482v292.106c-2.278 12.617-8.832 24.096-18.598 32.48zM682.667 414.387v417.613l-439.094 0.003c-10.29 0.116-20.275-3.49-28.116-10.155s-13.008-15.938-14.551-26.112l-58.885-384.029c0.001 0.009-0.001-0.009 0 0-0.923-6.11-0.51-12.343 1.213-18.274 1.724-5.939 4.72-11.435 8.778-16.102s9.083-8.397 14.726-10.931c5.643-2.53 11.769-3.806 17.954-3.738l241.975 0.004c23.565 0 42.667-19.102 42.667-42.667v-170.667c0-22.63 8.99-44.335 24.994-60.339 9.724-9.724 21.547-16.853 34.406-20.958l153.933 346.351zM838.912 917.334c34.458 0.509 67.917-11.598 94.071-34.049 26.257-22.54 43.328-53.937 47.966-88.232 0.256-1.896 0.384-3.806 0.384-5.719v-298.667c0-1.911-0.128-3.823-0.384-5.717-4.638-34.295-21.709-65.694-47.966-88.235-26.155-22.451-59.614-34.556-94.071-34.048h-85.85l-159.407-358.66c-6.848-15.411-22.127-25.34-38.989-25.34-45.261 0-88.674 17.98-120.678 49.988-32.006 32.004-49.987 75.413-49.987 120.678v128h-198.609c-18.464-0.171-36.748 3.657-53.595 11.217-16.928 7.599-32.003 18.786-44.178 32.785-12.176 14.003-21.161 30.485-26.335 48.303-5.173 17.822-6.411 36.553-3.626 54.899l58.879 383.993c0.002 0.013-0.002-0.013 0 0 4.636 30.507 20.143 58.351 43.654 78.336 23.454 19.936 53.305 30.75 84.080 30.466h594.641z"/>
            <glyph unicode="&#xe927;" glyph-name="Group-2131"
                   d="M430.345 891.995l-159.406-358.662h-100.272c-33.948 0-66.505-13.487-90.51-37.491s-37.49-56.563-37.49-90.509v-298.667c0-33.95 13.486-66.505 37.49-90.509s56.562-37.491 90.51-37.491h609.058c30.775-0.286 60.629 10.53 84.087 30.468 23.509 19.985 39.019 47.825 43.652 78.336 0 0.009 0-0.013 0 0l58.88 383.991c2.782 18.347 1.545 37.077-3.627 54.899-5.175 17.818-14.161 34.299-26.334 48.301-12.177 14.002-27.251 25.19-44.181 32.787-16.845 7.561-35.132 11.387-53.594 11.217h-198.609v128c0 45.264-17.98 88.673-49.988 120.68-32.004 32.006-75.413 49.987-120.678 49.987-16.862 0-32.141-9.93-38.989-25.338zM341.333 481.613l153.933 346.351c12.86-4.102 24.687-11.236 34.406-20.957 16.004-16.003 24.994-37.708 24.994-60.34v-170.667c0-23.564 19.102-42.667 42.667-42.667l241.975 0.003c6.187 0.070 12.314-1.206 17.954-3.736 5.645-2.534 10.667-6.263 14.729-10.931 4.058-4.668 7.053-10.159 8.777-16.102 1.724-5.931 2.138-12.169 1.212-18.278 0 0.004 0-0.009 0 0l-58.884-384.026c-1.545-10.172-6.711-19.447-14.549-26.112-7.842-6.665-17.826-10.27-28.117-10.155l-439.095 0.004v417.613zM256 64h-85.333c-11.316 0-22.168 4.497-30.17 12.497s-12.497 18.854-12.497 30.17v298.667c0 11.315 4.495 22.17 12.497 30.17s18.854 12.497 30.17 12.497h85.333v-384z"/>
            <glyph unicode="&#xe928;" glyph-name="Group-2132"
                   d="M341.333 704c-141.385 0-256-114.615-256-256s114.615-256 256-256h341.333c141.385 0 256 114.615 256 256s-114.615 256-256 256h-341.333zM0 448c0 188.513 152.82 341.333 341.333 341.333h341.333c188.514 0 341.333-152.82 341.333-341.333s-152.819-341.333-341.333-341.333h-341.333c-188.513 0-341.333 152.819-341.333 341.333zM341.333 533.333c-47.128 0-85.333-38.204-85.333-85.333s38.205-85.333 85.333-85.333c47.128 0 85.333 38.204 85.333 85.333s-38.205 85.333-85.333 85.333zM170.667 448c0 94.257 76.41 170.667 170.667 170.667 94.255 0 170.667-76.41 170.667-170.667 0-94.255-76.412-170.667-170.667-170.667-94.257 0-170.667 76.412-170.667 170.667z"/>
            <glyph unicode="&#xe929;" glyph-name="Group-2133"
                   d="M341.333 704c-141.385 0-256-114.615-256-256s114.615-256 256-256h341.333c141.385 0 256 114.615 256 256s-114.615 256-256 256h-341.333zM0 448c0 188.513 152.82 341.333 341.333 341.333h341.333c188.514 0 341.333-152.82 341.333-341.333s-152.819-341.333-341.333-341.333h-341.333c-188.513 0-341.333 152.819-341.333 341.333zM682.667 533.333c-47.13 0-85.333-38.204-85.333-85.333s38.204-85.333 85.333-85.333c47.13 0 85.333 38.204 85.333 85.333s-38.204 85.333-85.333 85.333zM512 448c0 94.257 76.412 170.667 170.667 170.667s170.667-76.41 170.667-170.667c0-94.255-76.412-170.667-170.667-170.667s-170.667 76.412-170.667 170.667z"/>
            <glyph unicode="&#xe92a;" glyph-name="Group-2134"
                   d="M706.479 830.807c-20.604 2.328-41.557 1.654-62.195-2.106-42.662-7.773-81.941-28.364-112.606-59.028s-51.255-69.946-59.029-112.609c-7.774-42.663-2.359-86.683 15.518-126.191 7.322-16.179 3.857-35.204-8.7-47.761l-294.829-294.827c-8.972-8.973-14.013-21.141-14.013-33.83s5.041-24.858 14.013-33.83c8.972-8.973 21.141-14.012 33.83-14.012s24.858 5.039 33.83 14.012l294.825 294.827c12.561 12.557 31.582 16.026 47.761 8.704 39.509-17.882 83.529-23.292 126.191-15.518 42.667 7.774 81.946 28.365 112.61 59.025 30.665 30.665 51.255 69.948 59.029 112.611 3.759 20.636 4.433 41.588 2.108 62.195l-109.739-109.74c-15.953-15.633-37.402-24.388-59.738-24.388s-43.78 8.755-59.733 24.393l-0.303 0.299-68.565 68.569c-15.637 15.951-24.393 37.399-24.393 59.735s8.755 43.782 24.393 59.733l0.299 0.305 109.436 109.435zM628.988 912.652c59.729 10.883 121.357 3.304 176.67-21.726 12.762-5.775 21.875-17.444 24.384-31.224 2.513-13.78-1.899-27.914-11.802-37.818l-160.55-160.55 67.657-67.66 160.55 160.55c9.907 9.904 24.038 14.316 37.82 11.805s25.451-11.625 31.223-24.385c25.028-55.312 32.61-116.94 21.726-176.669s-39.71-114.723-82.641-157.654c-42.927-42.927-97.924-71.757-157.653-82.637-49.809-9.079-100.941-5.312-148.629 10.705l-275.104-275.106c-24.975-24.973-58.849-39.006-94.17-39.006s-69.194 14.033-94.17 39.006c-24.975 24.977-39.007 58.85-39.007 94.17s14.031 69.197 39.007 94.17l275.104 275.106c-16.018 47.687-19.782 98.819-10.706 148.63 10.883 59.729 39.711 114.723 82.642 157.652 42.927 42.93 97.924 71.758 157.649 82.64z"/>
            <glyph unicode="&#xe92b;" glyph-name="Group-2135"
                   d="M85.333 704c0 23.564 19.103 42.667 42.667 42.667h768c23.565 0 42.667-19.103 42.667-42.667s-19.102-42.667-42.667-42.667h-768c-23.564 0-42.667 19.103-42.667 42.667zM426.667 832h170.667c11.315 0 22.17-4.495 30.17-12.497s12.497-18.854 12.497-30.17v-42.667h-256v42.667c0 11.316 4.495 22.168 12.497 30.17s18.854 12.497 30.17 12.497zM725.333 746.667h85.333c23.565 0 42.667-19.103 42.667-42.667v-597.333c0-33.95-13.487-66.505-37.491-90.509s-56.559-37.491-90.509-37.491h-426.667c-33.948 0-66.505 13.487-90.51 37.491s-37.49 56.559-37.49 90.509v597.333c0 23.564 19.103 42.667 42.667 42.667h85.333v42.667c0 33.948 13.486 66.505 37.49 90.51s56.562 37.49 90.51 37.49h170.667c33.946 0 66.505-13.486 90.509-37.49s37.491-56.562 37.491-90.51v-42.667zM256 661.333v-554.667c0-11.315 4.495-22.17 12.497-30.17s18.854-12.497 30.17-12.497h426.667c11.315 0 22.17 4.497 30.17 12.497s12.497 18.854 12.497 30.17v554.667h-512z"/>
            <glyph unicode="&#xe92c;" glyph-name="Group-2136"
                   d="M85.333 704c0 23.564 19.103 42.667 42.667 42.667h768c23.565 0 42.667-19.103 42.667-42.667s-19.102-42.667-42.667-42.667h-768c-23.564 0-42.667 19.103-42.667 42.667zM426.667 832h170.667c11.315 0 22.17-4.495 30.17-12.497s12.497-18.854 12.497-30.17v-42.667h-256v42.667c0 11.316 4.495 22.168 12.497 30.17s18.854 12.497 30.17 12.497zM725.333 746.667h85.333c23.565 0 42.667-19.103 42.667-42.667v-597.333c0-33.95-13.487-66.505-37.491-90.509s-56.559-37.491-90.509-37.491h-426.667c-33.948 0-66.505 13.487-90.51 37.491s-37.49 56.559-37.49 90.509v597.333c0 23.564 19.103 42.667 42.667 42.667h85.333v42.667c0 33.948 13.486 66.505 37.49 90.51s56.562 37.49 90.51 37.49h170.667c33.946 0 66.505-13.486 90.509-37.49s37.491-56.562 37.491-90.51v-42.667zM256 661.333v-554.667c0-11.315 4.495-22.17 12.497-30.17s18.854-12.497 30.17-12.497h426.667c11.315 0 22.17 4.497 30.17 12.497s12.497 18.854 12.497 30.17v554.667h-512zM597.333 533.333c23.565 0 42.667-19.102 42.667-42.667v-256c0-23.565-19.102-42.667-42.667-42.667s-42.667 19.102-42.667 42.667v256c0 23.565 19.102 42.667 42.667 42.667zM426.667 533.333c23.565 0 42.667-19.102 42.667-42.667v-256c0-23.565-19.102-42.667-42.667-42.667s-42.667 19.102-42.667 42.667v256c0 23.565 19.103 42.667 42.667 42.667z"/>
            <glyph unicode="&#xe92d;" glyph-name="Group-2137"
                   d="M213.333 789.333c-23.564 0-42.667-19.103-42.667-42.667v-597.333c0-23.565 19.103-42.667 42.667-42.667h597.333c23.565 0 42.667 19.102 42.667 42.667v597.333c0 23.564-19.102 42.667-42.667 42.667h-597.333zM85.333 746.667c0 70.692 57.308 128 128 128h597.333c70.694 0 128-57.308 128-128v-597.333c0-70.694-57.306-128-128-128h-597.333c-70.692 0-128 57.306-128 128v597.333zM554.667 661.333c0 23.564 19.102 42.667 42.667 42.667h128c23.565 0 42.667-19.103 42.667-42.667v-213.333c0-23.565-19.102-42.667-42.667-42.667h-128c-23.565 0-42.667 19.102-42.667 42.667v213.333zM640 618.667v-128h42.667v128h-42.667zM256 661.333c0 23.564 19.103 42.667 42.667 42.667h128c23.565 0 42.667-19.103 42.667-42.667v-384c0-23.565-19.102-42.667-42.667-42.667h-128c-23.564 0-42.667 19.102-42.667 42.667v384zM341.333 618.667v-298.667h42.667v298.667h-42.667z"/>
            <glyph unicode="&#xe92e;" glyph-name="Group-2138"
                   d="M12.497 734.17c16.662 16.662 43.677 16.662 60.34 0l289.83-289.831 183.164 183.164c16.661 16.662 43.678 16.662 60.339 0l405.333-405.334c16.661-16.661 16.661-43.678 0-60.339s-43.678-16.661-60.339 0l-375.164 375.163-183.163-183.163c-16.663-16.661-43.677-16.661-60.34 0l-320 320c-16.662 16.663-16.662 43.677 0 60.34zM981.333 490.667c23.565 0 42.667-19.102 42.667-42.667v-256c0-23.565-19.102-42.667-42.667-42.667h-256c-23.565 0-42.667 19.102-42.667 42.667s19.102 42.667 42.667 42.667h213.333v213.333c0 23.565 19.102 42.667 42.667 42.667z"/>
            <glyph unicode="&#xe92f;" glyph-name="Group-2139"
                   d="M1011.503 734.17c16.661-16.663 16.661-43.677 0-60.34l-405.333-405.333c-16.661-16.661-43.678-16.661-60.339 0l-183.164 183.164-289.83-289.83c-16.663-16.661-43.678-16.661-60.34 0s-16.662 43.678 0 60.339l320 320c16.663 16.662 43.677 16.662 60.34 0l183.163-183.164 375.164 375.164c16.661 16.662 43.678 16.662 60.339 0zM682.667 704c0 23.564 19.102 42.667 42.667 42.667h256c23.565 0 42.667-19.103 42.667-42.667v-256c0-23.565-19.102-42.667-42.667-42.667s-42.667 19.102-42.667 42.667v213.333h-213.333c-23.565 0-42.667 19.103-42.667 42.667z"/>
            <glyph unicode="&#xe930;" glyph-name="Group-2140"
                   d="M449.195 862.587c19.17 10.793 40.798 16.463 62.797 16.463s43.627-5.67 62.797-16.463c19.17-10.793 35.234-26.344 46.643-45.153l0.124-0.203 361.732-603.898c11.174-19.354 17.088-41.297 17.152-63.646 0.064-22.353-5.73-44.331-16.798-63.748-11.068-19.413-27.025-35.597-46.289-46.929-19.264-11.337-41.156-17.429-63.505-17.677l-0.469-0.004-723.243 0.004c-22.349 0.243-44.244 6.34-63.507 17.677-19.263 11.332-35.222 27.516-46.29 46.929-11.068 19.418-16.859 41.395-16.796 63.748 0.063 22.349 5.976 44.292 17.153 63.646l0.347 0.589 361.508 603.512c11.409 18.809 27.475 34.36 46.645 45.153zM511.991 793.716c-7.334 0-14.545-1.89-20.932-5.487-6.362-3.581-11.699-8.735-15.497-14.966l-361.111-602.843c-3.634-6.391-5.556-13.615-5.577-20.971-0.021-7.454 1.909-14.775 5.599-21.248s9.009-11.87 15.43-15.646c6.365-3.746 13.591-5.773 20.973-5.888h722.228c7.381 0.115 14.609 2.142 20.971 5.888 6.421 3.776 11.742 9.173 15.433 15.646 3.686 6.473 5.619 13.794 5.598 21.248-0.021 7.351-1.941 14.575-5.577 20.966l-361.058 602.763c-0.017 0.028-0.034 0.057-0.051 0.085-3.802 6.231-9.135 11.385-15.497 14.966-6.391 3.598-13.602 5.487-20.932 5.487z"/>
            <glyph unicode="&#xe931;" glyph-name="Group-2141"
                   d="M789.333 234.667c-35.345 0-64-28.655-64-64s28.655-64 64-64c35.345 0 64 28.655 64 64s-28.655 64-64 64zM640 170.667c0 82.475 66.859 149.333 149.333 149.333s149.333-66.859 149.333-149.333c0-82.475-66.859-149.333-149.333-149.333s-149.333 66.859-149.333 149.333zM234.667 234.667c-35.346 0-64-28.655-64-64s28.654-64 64-64c35.346 0 64 28.655 64 64s-28.654 64-64 64zM85.333 170.667c0 82.475 66.859 149.333 149.333 149.333s149.333-66.859 149.333-149.333c0-82.475-66.859-149.333-149.333-149.333s-149.333 66.859-149.333 149.333zM640 618.667c0 23.564 19.102 42.667 42.667 42.667h170.667c11.315 0 22.17-4.495 30.17-12.497l128-128c8-8 12.497-18.854 12.497-30.17v-213.333c0-23.565-19.102-42.667-42.667-42.667h-298.667c-23.565 0-42.667 19.102-42.667 42.667v341.333zM725.333 576v-256h213.333v152.994l-103.006 103.006h-110.327zM0 832c0 23.564 19.103 42.667 42.667 42.667h640c23.565 0 42.667-19.103 42.667-42.667v-554.667c0-23.565-19.102-42.667-42.667-42.667h-640c-23.564 0-42.667 19.102-42.667 42.667v554.667zM85.333 789.333v-469.333h554.667v469.333h-554.667z"/>
            <glyph unicode="&#xe932;" glyph-name="Group-2142"
                   d="M170.667 618.667c-23.564 0-42.667-19.103-42.667-42.667v-469.333c0-23.565 19.103-42.667 42.667-42.667h682.667c23.565 0 42.667 19.102 42.667 42.667v469.333c0 23.564-19.102 42.667-42.667 42.667h-682.667zM42.667 576c0 70.692 57.308 128 128 128h682.667c70.694 0 128-57.308 128-128v-469.333c0-70.694-57.306-128-128-128h-682.667c-70.692 0-128 57.306-128 128v469.333zM268.497 904.837c16.663 16.662 43.677 16.662 60.34 0l183.163-183.164 183.164 183.164c16.661 16.662 43.678 16.662 60.339 0s16.661-43.677 0-60.34l-213.333-213.333c-16.661-16.662-43.678-16.662-60.339 0l-213.334 213.333c-16.662 16.663-16.662 43.677 0 60.34z"/>
            <glyph unicode="&#xe933;" glyph-name="Group-2143"
                   d="M85.333 874.667c0 23.564 19.103 42.667 42.667 42.667h768c23.565 0 42.667-19.103 42.667-42.667v-512c0-11.315-4.497-22.17-12.497-30.17l-170.667-170.667c-8-8-18.854-12.497-30.17-12.497h-195.661l-158.169-158.17c-12.203-12.203-30.554-15.855-46.498-9.25s-26.339 22.161-26.339 39.42v128h-170.667c-23.564 0-42.667 19.102-42.667 42.667v682.667zM170.667 832v-597.333h170.667c23.564 0 42.667-19.102 42.667-42.667v-67.661l97.83 97.83c8 8 18.854 12.497 30.17 12.497h195.661l145.673 145.673v451.661h-682.667zM469.333 704c23.565 0 42.667-19.103 42.667-42.667v-170.667c0-23.565-19.102-42.667-42.667-42.667s-42.667 19.102-42.667 42.667v170.667c0 23.564 19.102 42.667 42.667 42.667zM682.667 704c23.565 0 42.667-19.103 42.667-42.667v-170.667c0-23.565-19.102-42.667-42.667-42.667s-42.667 19.102-42.667 42.667v170.667c0 23.564 19.102 42.667 42.667 42.667z"/>
            <glyph unicode="&#xe934;" glyph-name="Group-2144"
                   d="M619.759 859.723c44.749 17.080 93.662 20.004 140.13 8.378 36.949-9.245 70.933-27.337 99.106-52.534 34.654 12.737 67.52 29.975 97.749 51.297l24.593-34.866 41.455-10.095c-14.613-60.012-43.908-115.326-85.107-161.039 0.631-6.886 0.964-13.801 0.986-20.724v-0.141c0-260.265-125.308-451.202-305.284-546.997-178.944-95.241-407.639-94.187-611.436 19.034-17.272 9.596-25.696 29.794-20.361 48.819s23.035 31.898 42.778 31.113c71.971-2.863 143.216 11.447 208 41.293-64.134 39.573-110.307 86.558-142.408 137.246-42.822 67.61-58.987 139.238-61.911 203.556-2.915 64.133 7.273 121.878 17.982 163.287 5.38 20.804 10.963 37.754 15.266 49.657 2.154 5.958 3.995 10.672 5.34 13.993 0.673 1.661 1.223 2.976 1.626 3.925l0.494 1.149 0.126 0.288c0.3 0.69 0.62 1.375 0.96 2.054l38.162-19.081 34.917 24.521c39.063-55.623 91.276-100.723 151.989-131.282 48.292-24.307 100.77-38.814 154.415-42.846-0.316 47.345 13.751 93.686 40.358 132.879 26.901 39.629 65.327 70.040 110.076 87.119zM145.269 702.138c-7.837-34.192-14.096-77.552-11.976-124.202 2.41-53.012 15.578-109.387 48.756-161.773 33.007-52.117 87.439-102.874 176.616-142.507 14.157-6.293 23.791-19.763 25.169-35.196s-5.716-30.396-18.535-39.095c-47.4-32.175-99.304-56.384-153.665-72.034 135.261-34.462 270.801-18.005 381.658 40.998 150.669 80.196 260.023 241.233 260.045 471.599-0.034 9.22-0.922 18.417-2.654 27.473-2.675 13.989 1.809 28.39 11.947 38.39 9.506 9.373 18.308 19.363 26.364 29.888-9.664-3.565-19.443-6.839-29.329-9.815-16.068-4.839-33.481 0.192-44.497 12.855-19.959 22.951-46.485 39.218-75.994 46.601s-60.57 5.526-88.986-5.32c-28.42-10.846-52.817-30.159-69.901-55.324s-26.027-54.971-25.621-85.385l0.009-0.572h-0.004v-42.667c0-23.133-18.436-42.053-41.562-42.652-82.014-2.127-163.281 16.063-236.564 52.949-48.878 24.602-93.191 57.011-131.276 95.79z"/>
            <glyph unicode="&#xe935;" glyph-name="Group-2145"
                   d="M341.333 106.667c0 23.565 19.103 42.667 42.667 42.667h256c23.565 0 42.667-19.102 42.667-42.667s-19.102-42.667-42.667-42.667h-256c-23.564 0-42.667 19.102-42.667 42.667zM128 789.333c0 23.564 19.103 42.667 42.667 42.667h682.667c23.565 0 42.667-19.103 42.667-42.667v-128c0-23.564-19.102-42.667-42.667-42.667s-42.667 19.103-42.667 42.667v85.333h-597.333v-85.333c0-23.564-19.103-42.667-42.667-42.667s-42.667 19.103-42.667 42.667v128zM512 832c23.565 0 42.667-19.103 42.667-42.667v-682.667c0-23.565-19.102-42.667-42.667-42.667s-42.667 19.102-42.667 42.667v682.667c0 23.564 19.102 42.667 42.667 42.667z"/>
            <glyph unicode="&#xe936;" glyph-name="Group-2146"
                   d="M166.157 783.628c94.637 86.034 217.944 133.705 345.843 133.705s251.204-47.671 345.843-133.705 153.809-204.253 165.965-331.575c1.143-11.964-2.816-23.859-10.906-32.755-8.085-8.892-19.55-13.965-31.569-13.965h-426.667v-256c0-22.63 8.99-44.335 24.994-60.339s37.709-24.994 60.339-24.994c22.63 0 44.335 8.99 60.339 24.994s24.994 37.709 24.994 60.339c0 23.565 19.102 42.667 42.667 42.667s42.667-19.102 42.667-42.667c0-45.265-17.98-88.674-49.988-120.678-32.004-32.009-75.413-49.988-120.678-49.988s-88.674 17.98-120.678 49.988c-32.009 32.004-49.988 75.413-49.988 120.678v256h-426.667c-12.021 0-23.484 5.073-31.571 13.965-8.086 8.896-12.045 20.791-10.903 32.755 12.153 127.321 71.326 245.54 165.964 331.575zM931.785 490.667c-18.364 88.146-64.128 168.716-131.341 229.82-78.933 71.755-181.773 111.514-288.444 111.514s-209.512-39.759-288.442-111.514c-67.214-61.104-112.979-141.673-131.343-229.82h839.57z"/>
            <glyph unicode="&#xe937;" glyph-name="Group-2147"
                   d="M128 64c0 23.565 19.103 42.667 42.667 42.667h682.667c23.565 0 42.667-19.102 42.667-42.667s-19.102-42.667-42.667-42.667h-682.667c-23.564 0-42.667 19.102-42.667 42.667zM256 874.667c23.564 0 42.667-19.103 42.667-42.667v-298.667c0-56.58 22.476-110.844 62.484-150.848 40.008-40.009 94.269-62.485 150.849-62.485s110.844 22.477 150.848 62.485c40.009 40.004 62.485 94.268 62.485 150.848v298.667c0 23.564 19.102 42.667 42.667 42.667s42.667-19.103 42.667-42.667v-298.667c0-79.211-31.467-155.179-87.479-211.187-56.009-56.013-131.977-87.479-211.187-87.479s-155.178 31.467-211.189 87.479c-56.011 56.009-87.477 131.977-87.477 211.187v298.667c0 23.564 19.103 42.667 42.667 42.667z"/>
            <glyph unicode="&#xe938;" glyph-name="Group-2148"
                   d="M213.333 448c-23.564 0-42.667-19.102-42.667-42.667v-298.667c0-23.565 19.103-42.667 42.667-42.667h597.333c23.565 0 42.667 19.102 42.667 42.667v298.667c0 23.565-19.102 42.667-42.667 42.667h-597.333zM85.333 405.333c0 70.694 57.308 128 128 128h597.333c70.694 0 128-57.306 128-128v-298.667c0-70.694-57.306-128-128-128h-597.333c-70.692 0-128 57.306-128 128v298.667zM613.222 798.956c-34.078 25.102-76.267 36.647-118.374 32.393s-81.136-24.002-109.504-55.411c-28.368-31.409-44.053-72.239-44.011-114.563v-170.708c0-23.565-19.103-42.667-42.667-42.667s-42.667 19.102-42.667 42.667v170.647z"/>
            <glyph unicode="&#xe939;" glyph-name="Group-2149"
                   d="M128 362.667c23.564 0 42.667-19.102 42.667-42.667v-170.667c0-11.315 4.495-22.17 12.497-30.17s18.854-12.497 30.17-12.497h597.333c11.315 0 22.17 4.497 30.17 12.497s12.497 18.854 12.497 30.17v170.667c0 23.565 19.102 42.667 42.667 42.667s42.667-19.102 42.667-42.667v-170.667c0-33.95-13.487-66.505-37.491-90.509s-56.559-37.491-90.509-37.491h-597.333c-33.948 0-66.505 13.487-90.51 37.491s-37.49 56.563-37.49 90.509v170.667c0 23.565 19.103 42.667 42.667 42.667zM481.83 862.17c16.661 16.662 43.678 16.662 60.339 0l213.333-213.333c16.661-16.663 16.661-43.677 0-60.34s-43.678-16.662-60.339 0l-183.164 183.164-183.163-183.164c-16.663-16.662-43.677-16.662-60.34 0s-16.662 43.677 0 60.34l213.334 213.333zM512 874.667c23.565 0 42.667-19.103 42.667-42.667v-512c0-23.565-19.102-42.667-42.667-42.667s-42.667 19.102-42.667 42.667v512c0 23.564 19.102 42.667 42.667 42.667z"/>
            <glyph unicode="&#xe93a;" glyph-name="Group-2150"
                   d="M512 490.667c23.565 0 42.667-19.102 42.667-42.667v-384c0-23.565-19.102-42.667-42.667-42.667s-42.667 19.102-42.667 42.667v384c0 23.565 19.102 42.667 42.667 42.667zM369.653 874.302c58.003 2.137 115.74-8.903 168.864-32.291s100.254-58.514 137.847-102.738c30.357-35.709 53.854-76.599 69.427-120.605h22.225c56.879-0.038 112.149-19.015 157.043-53.937s76.877-83.801 90.91-138.918c14.029-55.121 9.301-113.34-13.431-165.474-22.737-52.134-62.187-95.215-112.124-122.441-20.689-11.277-46.605-3.652-57.886 17.041-11.277 20.689-3.648 46.605 17.041 57.882 33.293 18.15 59.593 46.869 74.748 81.626s18.308 73.57 8.956 110.319c-9.357 36.745-30.677 69.329-60.608 92.612-29.926 23.279-66.756 35.93-104.674 35.956h-53.734c-19.447 0-36.437 13.155-41.306 31.987-11.302 43.708-32.363 84.286-61.602 118.683s-65.899 61.717-107.217 79.908c-41.318 18.19-86.223 26.777-131.337 25.115s-89.265-13.53-129.134-34.712c-39.868-21.181-74.415-51.126-101.044-87.581s-44.648-78.473-52.701-122.894c-8.053-44.422-5.932-90.092 6.206-133.574s33.975-83.648 63.869-117.478c15.604-17.655 13.94-44.621-3.718-60.224s-44.621-13.939-60.225 3.716c-38.437 43.494-66.513 95.138-82.118 151.044s-18.333 114.624-7.979 171.738c10.354 57.113 33.521 111.136 67.759 158.007s78.656 85.37 129.915 112.604c51.259 27.234 108.024 42.493 166.029 44.63zM481.83 478.17c16.661 16.661 43.678 16.661 60.339 0l170.667-170.667c16.661-16.661 16.661-43.678 0-60.339s-43.678-16.661-60.339 0l-140.497 140.497-140.497-140.497c-16.663-16.661-43.677-16.661-60.34 0s-16.662 43.678 0 60.339l170.667 170.667z"/>
            <glyph unicode="&#xe93b;" glyph-name="Group-2151"
                   d="M190.484 300.181c40.008 40.009 94.27 62.485 150.849 62.485h341.333c56.58 0 110.844-22.477 150.848-62.485 40.009-40.004 62.485-94.268 62.485-150.848v-85.333c0-23.565-19.102-42.667-42.667-42.667s-42.667 19.102-42.667 42.667v85.333c0 33.946-13.487 66.505-37.491 90.509s-56.563 37.491-90.509 37.491h-341.333c-33.948 0-66.505-13.487-90.51-37.491s-37.49-56.563-37.49-90.509v-85.333c0-23.565-19.103-42.667-42.667-42.667s-42.667 19.102-42.667 42.667v85.333c0 56.58 22.476 110.844 62.484 150.848zM512 789.333c-70.694 0-128-57.308-128-128s57.306-128 128-128c70.694 0 128 57.308 128 128s-57.306 128-128 128zM298.667 661.333c0 117.821 95.513 213.333 213.333 213.333s213.333-95.513 213.333-213.333c0-117.821-95.514-213.333-213.333-213.333s-213.333 95.513-213.333 213.333z"/>
            <glyph unicode="&#xe93c;" glyph-name="Group-2152"
                   d="M62.484 300.181c40.008 40.009 94.27 62.485 150.849 62.485h298.667c56.58 0 110.844-22.477 150.848-62.485 40.009-40.004 62.485-94.268 62.485-150.848v-85.333c0-23.565-19.102-42.667-42.667-42.667s-42.667 19.102-42.667 42.667v85.333c0 33.946-13.487 66.505-37.491 90.509s-56.563 37.491-90.509 37.491h-298.667c-33.948 0-66.505-13.487-90.51-37.491s-37.49-56.563-37.49-90.509v-85.333c0-23.565-19.103-42.667-42.667-42.667s-42.667 19.102-42.667 42.667v85.333c0 56.58 22.476 110.844 62.484 150.848zM1011.503 606.17c16.661-16.663 16.661-43.677 0-60.34l-170.667-170.666c-16.661-16.661-43.678-16.661-60.339 0l-85.333 85.333c-16.661 16.661-16.661 43.678 0 60.339 16.661 16.663 43.678 16.663 60.339 0l55.164-55.164 140.497 140.497c16.661 16.662 43.678 16.662 60.339 0zM362.667 789.333c-70.692 0-128-57.308-128-128s57.308-128 128-128c70.694 0 128 57.308 128 128s-57.306 128-128 128zM149.333 661.333c0 117.821 95.513 213.333 213.333 213.333s213.333-95.513 213.333-213.333c0-117.821-95.514-213.333-213.333-213.333s-213.333 95.513-213.333 213.333z"/>
            <glyph unicode="&#xe93d;" glyph-name="Group-2153"
                   d="M62.484 300.181c40.008 40.009 94.27 62.485 150.849 62.485h298.667c56.58 0 110.844-22.477 150.848-62.485 40.009-40.004 62.485-94.268 62.485-150.848v-85.333c0-23.565-19.102-42.667-42.667-42.667s-42.667 19.102-42.667 42.667v85.333c0 33.946-13.487 66.505-37.491 90.509s-56.563 37.491-90.509 37.491h-298.667c-33.948 0-66.505-13.487-90.51-37.491s-37.49-56.563-37.49-90.509v-85.333c0-23.565-19.103-42.667-42.667-42.667s-42.667 19.102-42.667 42.667v85.333c0 56.58 22.476 110.844 62.484 150.848zM682.667 490.667c0 23.565 19.102 42.667 42.667 42.667h256c23.565 0 42.667-19.102 42.667-42.667s-19.102-42.667-42.667-42.667h-256c-23.565 0-42.667 19.102-42.667 42.667zM362.667 789.333c-70.692 0-128-57.308-128-128s57.308-128 128-128c70.694 0 128 57.308 128 128s-57.306 128-128 128zM149.333 661.333c0 117.821 95.513 213.333 213.333 213.333s213.333-95.513 213.333-213.333c0-117.821-95.514-213.333-213.333-213.333s-213.333 95.513-213.333 213.333z"/>
            <glyph unicode="&#xe93e;" glyph-name="Group-2154"
                   d="M62.484 300.181c40.008 40.009 94.27 62.485 150.849 62.485h298.667c56.58 0 110.844-22.477 150.848-62.485 40.009-40.004 62.485-94.268 62.485-150.848v-85.333c0-23.565-19.102-42.667-42.667-42.667s-42.667 19.102-42.667 42.667v85.333c0 33.946-13.487 66.505-37.491 90.509s-56.563 37.491-90.509 37.491h-298.667c-33.948 0-66.505-13.487-90.51-37.491s-37.49-56.563-37.49-90.509v-85.333c0-23.565-19.103-42.667-42.667-42.667s-42.667 19.102-42.667 42.667v85.333c0 56.58 22.476 110.844 62.484 150.848zM853.333 661.333c23.565 0 42.667-19.103 42.667-42.667v-256c0-23.565-19.102-42.667-42.667-42.667s-42.667 19.102-42.667 42.667v256c0 23.564 19.102 42.667 42.667 42.667zM682.667 490.667c0 23.565 19.102 42.667 42.667 42.667h256c23.565 0 42.667-19.102 42.667-42.667s-19.102-42.667-42.667-42.667h-256c-23.565 0-42.667 19.102-42.667 42.667zM362.667 789.333c-70.692 0-128-57.308-128-128s57.308-128 128-128c70.694 0 128 57.308 128 128s-57.306 128-128 128zM149.333 661.333c0 117.821 95.513 213.333 213.333 213.333s213.333-95.513 213.333-213.333c0-117.821-95.514-213.333-213.333-213.333s-213.333 95.513-213.333 213.333z"/>
            <glyph unicode="&#xe93f;" glyph-name="Group-2155"
                   d="M62.484 300.181c40.008 40.009 94.27 62.485 150.849 62.485h298.667c56.58 0 110.844-22.477 150.848-62.485 40.009-40.004 62.485-94.268 62.485-150.848v-85.333c0-23.565-19.102-42.667-42.667-42.667s-42.667 19.102-42.667 42.667v85.333c0 33.946-13.487 66.505-37.491 90.509s-56.563 37.491-90.509 37.491h-298.667c-33.948 0-66.505-13.487-90.51-37.491s-37.49-56.563-37.49-90.509v-85.333c0-23.565-19.103-42.667-42.667-42.667s-42.667 19.102-42.667 42.667v85.333c0 56.58 22.476 110.844 62.484 150.848zM737.83 648.837c16.661 16.662 43.678 16.662 60.339 0l213.333-213.334c16.661-16.661 16.661-43.678 0-60.339s-43.678-16.661-60.339 0l-213.333 213.333c-16.661 16.663-16.661 43.677 0 60.34zM1011.503 648.837c16.661-16.663 16.661-43.677 0-60.34l-213.333-213.333c-16.661-16.661-43.678-16.661-60.339 0s-16.661 43.678 0 60.339l213.333 213.334c16.661 16.662 43.678 16.662 60.339 0zM362.667 789.333c-70.692 0-128-57.308-128-128s57.308-128 128-128c70.694 0 128 57.308 128 128s-57.306 128-128 128zM149.333 661.333c0 117.821 95.513 213.333 213.333 213.333s213.333-95.513 213.333-213.333c0-117.821-95.514-213.333-213.333-213.333s-213.333 95.513-213.333 213.333z"/>
            <glyph unicode="&#xe940;" glyph-name="Group-2156"
                   d="M812.032 325.12c5.892 22.814 29.163 36.535 51.977 30.643 45.769-11.814 86.315-38.498 115.273-75.857 28.962-37.355 44.693-83.273 44.727-130.543v-85.363c0-23.565-19.102-42.667-42.667-42.667-23.561 0-42.667 19.102-42.667 42.667v85.303c0 0.004 0-0.004 0 0-0.021 28.356-9.463 55.915-26.833 78.323-17.378 22.417-41.707 38.426-69.167 45.517-22.814 5.888-36.535 29.158-30.643 51.977zM62.484 300.181c40.008 40.009 94.27 62.485 150.849 62.485h341.333c56.58 0 110.844-22.477 150.848-62.485 40.009-40.004 62.485-94.268 62.485-150.848v-85.333c0-23.565-19.102-42.667-42.667-42.667s-42.667 19.102-42.667 42.667v85.333c0 33.946-13.487 66.505-37.491 90.509s-56.563 37.491-90.509 37.491h-341.333c-33.948 0-66.505-13.487-90.51-37.491s-37.49-56.563-37.49-90.509v-85.333c0-23.565-19.103-42.667-42.667-42.667s-42.667 19.102-42.667 42.667v85.333c0 56.58 22.476 110.844 62.484 150.848zM641.344 837.036c5.845 22.828 29.090 36.595 51.917 30.75 45.888-11.75 86.562-38.438 115.605-75.857 29.047-37.419 44.813-83.441 44.813-130.81s-15.765-93.391-44.813-130.812c-29.043-37.419-69.717-64.107-115.605-75.857-22.827-5.841-46.071 7.923-51.917 30.754-5.845 22.827 7.923 46.071 30.75 51.915 27.533 7.049 51.938 23.062 69.363 45.514 17.429 22.452 26.889 50.065 26.889 78.486s-9.459 56.035-26.889 78.486c-17.425 22.451-41.83 38.464-69.363 45.514-22.827 5.845-36.595 29.088-30.75 51.916zM384 789.333c-70.692 0-128-57.308-128-128s57.308-128 128-128c70.694 0 128 57.308 128 128s-57.306 128-128 128zM170.667 661.333c0 117.821 95.513 213.333 213.333 213.333s213.333-95.513 213.333-213.333c0-117.821-95.514-213.333-213.333-213.333s-213.333 95.513-213.333 213.333z"/>
            <glyph unicode="&#xe941;" glyph-name="Group-2157"
                   d="M1000.858 699.271c14.212-7.313 23.142-21.955 23.142-37.937v-426.667c0-15.983-8.93-30.626-23.142-37.939s-31.317-6.071-44.322 3.221l-298.667 213.333c-11.213 8.009-17.869 20.937-17.869 34.718 0 13.777 6.656 26.709 17.869 34.718l298.667 213.335c13.005 9.289 30.11 10.532 44.322 3.218zM756.075 448l182.592-130.423v260.847l-182.592-130.424zM128 704c-23.564 0-42.667-19.103-42.667-42.667v-426.667c0-23.565 19.103-42.667 42.667-42.667h469.333c23.565 0 42.667 19.102 42.667 42.667v426.667c0 23.564-19.102 42.667-42.667 42.667h-469.333zM0 661.333c0 70.692 57.308 128 128 128h469.333c70.694 0 128-57.308 128-128v-426.667c0-70.694-57.306-128-128-128h-469.333c-70.692 0-128 57.306-128 128v426.667z"/>
            <glyph unicode="&#xe942;" glyph-name="Group-2158"
                   d="M128 704c-11.316 0-22.168-4.495-30.17-12.497s-12.497-18.854-12.497-30.17v-426.667c0-11.315 4.495-22.17 12.497-30.17s18.854-12.497 30.17-12.497h469.333c11.315 0 22.17 4.497 30.17 12.497s12.497 18.854 12.497 30.17v24.994l-444.34 444.339h-67.66zM37.49 751.843c24.005 24.005 56.562 37.49 90.51 37.49h85.333c11.316 0 22.168-4.495 30.17-12.497l469.333-469.334c8-8 12.497-18.854 12.497-30.17v-42.667c0-33.95-13.487-66.505-37.491-90.509s-56.559-37.491-90.509-37.491h-469.333c-33.948 0-66.505 13.487-90.51 37.491s-37.49 56.563-37.49 90.509v426.667c0 33.948 13.486 66.505 37.49 90.51zM597.333 704h-142.507c-23.565 0-42.667 19.103-42.667 42.667s19.102 42.667 42.667 42.667h142.507c33.946 0 66.505-13.486 90.509-37.49s37.491-56.562 37.491-90.51v-124.834l4.459-4.459 226.534 163.863c12.988 9.394 30.144 10.717 44.416 3.425 14.276-7.292 23.258-21.968 23.258-37.996v-426.667c0-23.565-19.102-42.667-42.667-42.667s-42.667 19.102-42.667 42.667v343.146l-188.326-136.225c-16.977-12.279-40.358-10.415-55.177 4.403l-42.667 42.667c-8 8-12.497 18.854-12.497 30.17v142.507c0 11.316-4.497 22.168-12.497 30.17s-18.854 12.497-30.17 12.497zM12.497 947.503c16.662 16.662 43.677 16.662 60.34 0l938.666-938.667c16.661-16.661 16.661-43.678 0-60.339s-43.678-16.661-60.339 0l-938.667 938.666c-16.662 16.663-16.662 43.678 0 60.34z"/>
            <glyph unicode="&#xe943;" glyph-name="Group-2159"
                   d="M192 277.333c0 23.565 19.103 42.667 42.667 42.667h554.667c23.565 0 42.667-19.102 42.667-42.667s-19.102-42.667-42.667-42.667h-554.667c-23.564 0-42.667 19.102-42.667 42.667zM789.333 618.667c-82.475 0-149.333-66.859-149.333-149.333s66.859-149.333 149.333-149.333c82.475 0 149.333 66.859 149.333 149.333s-66.859 149.333-149.333 149.333zM554.667 469.333c0 129.603 105.062 234.667 234.667 234.667s234.667-105.064 234.667-234.667c0-129.604-105.062-234.667-234.667-234.667s-234.667 105.062-234.667 234.667zM234.667 618.667c-82.475 0-149.333-66.859-149.333-149.333s66.859-149.333 149.333-149.333c82.475 0 149.333 66.859 149.333 149.333s-66.859 149.333-149.333 149.333zM0 469.333c0 129.603 105.064 234.667 234.667 234.667s234.667-105.064 234.667-234.667c0-129.604-105.064-234.667-234.667-234.667s-234.667 105.062-234.667 234.667z"/>
            <glyph unicode="&#xe944;" glyph-name="Group-2160"
                   d="M487.817 785.122c14.784-7.105 24.183-22.054 24.183-38.455v-597.333c0-16.401-9.399-31.351-24.183-38.455s-32.329-5.107-45.137 5.137l-201.646 161.318h-155.7c-23.564 0-42.667 19.102-42.667 42.667v256c0 23.564 19.103 42.667 42.667 42.667h155.7l201.646 161.317c12.809 10.246 30.353 12.243 45.137 5.138zM426.667 657.893l-144.013-115.211c-7.565-6.052-16.965-9.349-26.653-9.349h-128v-170.667h128c9.688 0 19.088-3.298 26.653-9.348l144.013-115.213v419.788z"/>
            <glyph unicode="&#xe945;" glyph-name="Group-2161"
                   d="M632.875 629.216c16.666 16.66 43.682 16.656 60.343-0.009 47.991-48.007 74.953-113.111 74.953-180.994 0-67.878-26.961-132.983-74.953-180.992-16.661-16.661-43.678-16.666-60.343-0.009-16.661 16.661-16.666 43.678-0.009 60.339 31.996 32.009 49.971 75.409 49.971 120.661 0 45.257-17.975 88.658-49.971 120.663-16.657 16.665-16.653 43.68 0.009 60.34zM487.817 785.122c14.784-7.105 24.183-22.054 24.183-38.455v-597.333c0-16.401-9.399-31.351-24.183-38.455s-32.329-5.107-45.137 5.137l-201.646 161.318h-155.7c-23.564 0-42.667 19.102-42.667 42.667v256c0 23.564 19.103 42.667 42.667 42.667h155.7l201.646 161.317c12.809 10.246 30.353 12.243 45.137 5.138zM426.667 657.893l-144.013-115.211c-7.565-6.052-16.965-9.349-26.653-9.349h-128v-170.667h128c9.688 0 19.088-3.298 26.653-9.348l144.013-115.213v419.788z"/>
            <glyph unicode="&#xe946;" glyph-name="Group-2162"
                   d="M487.817 785.122c14.784-7.105 24.183-22.054 24.183-38.455v-597.333c0-16.401-9.399-31.351-24.183-38.455s-32.329-5.107-45.137 5.137l-201.646 161.318h-155.7c-23.564 0-42.667 19.102-42.667 42.667v256c0 23.564 19.103 42.667 42.667 42.667h155.7l201.646 161.317c12.809 10.246 30.353 12.243 45.137 5.138zM426.667 657.893l-144.013-115.211c-7.565-6.052-16.965-9.349-26.653-9.349h-128v-170.667h128c9.688 0 19.088-3.298 26.653-9.348l144.013-115.213v419.788zM783.488 779.825c16.666 16.66 43.682 16.656 60.343-0.009 87.983-88.013 137.412-207.369 137.412-331.821 0-124.45-49.429-243.802-137.412-331.819-16.661-16.661-43.678-16.666-60.343-0.009-16.661 16.661-16.666 43.678-0.009 60.339 71.991 72.013 112.431 169.668 112.431 271.488 0 101.825-40.439 199.479-112.431 271.49-16.657 16.665-16.653 43.68 0.009 60.34zM632.875 629.212c16.666 16.66 43.682 16.656 60.343-0.009 47.991-48.007 74.953-113.111 74.953-180.994 0-67.878-26.961-132.983-74.953-180.992-16.661-16.661-43.678-16.666-60.343-0.009-16.661 16.661-16.666 43.678-0.009 60.339 31.996 32.009 49.971 75.409 49.971 120.661 0 45.257-17.975 88.659-49.971 120.663-16.657 16.665-16.653 43.68 0.009 60.34z"/>
            <glyph unicode="&#xe947;" glyph-name="Group-2163"
                   d="M1011.503 606.17c16.661-16.663 16.661-43.677 0-60.34l-256-256c-16.661-16.661-43.678-16.661-60.339 0s-16.661 43.678 0 60.339l256 256c16.661 16.662 43.678 16.662 60.339 0zM695.164 606.17c16.661 16.662 43.678 16.662 60.339 0l256-256c16.661-16.661 16.661-43.678 0-60.339s-43.678-16.661-60.339 0l-256 256c-16.661 16.663-16.661 43.677 0 60.34zM487.817 785.122c14.784-7.105 24.183-22.054 24.183-38.455v-597.333c0-16.401-9.399-31.351-24.183-38.455s-32.329-5.107-45.137 5.137l-201.646 161.318h-155.7c-23.564 0-42.667 19.102-42.667 42.667v256c0 23.564 19.103 42.667 42.667 42.667h155.7l201.646 161.317c12.809 10.246 30.353 12.243 45.137 5.138zM426.667 657.893l-144.013-115.211c-7.565-6.052-16.965-9.349-26.653-9.349h-128v-170.667h128c9.688 0 19.088-3.298 26.653-9.348l144.013-115.213v419.788z"/>
            <glyph unicode="&#xe948;" glyph-name="Group-2164"
                   d="M512 704c-141.385 0-256-114.615-256-256s114.615-256 256-256c141.385 0 256 114.615 256 256s-114.615 256-256 256zM170.667 448c0 188.513 152.82 341.333 341.333 341.333s341.333-152.82 341.333-341.333c0-188.514-152.819-341.333-341.333-341.333s-341.333 152.819-341.333 341.333zM512 618.667c23.565 0 42.667-19.103 42.667-42.667v-110.327l51.503-51.503c16.661-16.661 16.661-43.678 0-60.339s-43.678-16.661-60.339 0l-64 64c-8 8-12.497 18.854-12.497 30.17v128c0 23.564 19.102 42.667 42.667 42.667zM634.057 863.557c-7.898 7.189-18.206 11.153-28.89 11.11l-0.171-0.001h-185.576c-10.639-0.014-20.89-4.001-28.741-11.182-7.855-7.183-12.741-17.044-13.699-27.645l-14.937-163.456c-2.144-23.467-22.906-40.751-46.373-38.607s-40.751 22.906-38.607 46.372l14.929 163.371c0 0.007-0.001-0.007 0 0 2.879 31.795 17.537 61.388 41.095 82.934 23.564 21.551 54.332 33.516 86.264 33.546h185.561zM634.057 863.557c7.902-7.189 12.817-17.079 13.777-27.717zM732.821 843.52l-0.004 0.043zM732.821 843.52l14.929-163.37c2.146-23.466-15.138-44.228-38.605-46.372s-44.228 15.14-46.374 38.607l-14.938 163.456zM315.245 262.221c23.467 2.146 44.228-15.138 46.373-38.605l14.937-163.456c0.961-10.637 5.877-20.527 13.777-27.716s18.208-11.153 28.89-11.11h185.092c10.679-0.043 20.992 3.921 28.89 11.11 7.902 7.189 12.817 17.079 13.777 27.716l14.938 163.456c2.146 23.467 22.908 40.751 46.374 38.605 23.467-2.142 40.751-22.903 38.605-46.37l-14.929-163.371c0-0.013-0.004-0.030-0.004-0.043zM315.245 262.221c-23.466-2.142-40.751-22.903-38.607-46.37zM276.638 215.851l14.929-163.371zM291.567 52.48c0 0.009 0.001-0.009 0 0zM419.48-64h-0.085v42.667l0.173-42.667c-0.029 0-0.058 0-0.087 0zM419.48-64h184.578z"/>
            <glyph unicode="&#xe949;" glyph-name="Group-2165"
                   d="M469.333 106.667c0 23.565 19.102 42.667 42.667 42.667h0.427c23.565 0 42.667-19.102 42.667-42.667s-19.102-42.667-42.667-42.667h-0.427c-23.565 0-42.667 19.102-42.667 42.667zM512.23 277.282c-44.279 0-87.462-13.777-123.558-39.424-19.21-13.645-45.846-9.139-59.494 10.074-13.647 19.209-9.138 45.845 10.071 59.49 50.534 35.904 110.989 55.194 172.98 55.194 61.986 0 122.441-19.29 172.975-55.194 19.209-13.645 23.718-40.282 10.074-59.49-13.649-19.213-40.286-23.718-59.494-10.074-36.096 25.647-79.279 39.424-123.554 39.424zM513.707 490.577c-99.777 0-196.399-34.97-273.065-98.825-18.106-15.083-45.010-12.629-60.091 5.474-15.081 18.108-12.629 45.013 5.478 60.092 92 76.63 207.947 118.593 327.679 118.593 119.735 0 235.682-41.963 327.68-118.593 18.108-15.078 20.561-41.984 5.478-60.092-15.083-18.103-41.984-20.557-60.092-5.474-76.668 63.855-173.286 98.825-273.067 98.825zM511.996 703.885c-155.827 0-306.301-56.852-423.199-159.894-17.677-15.582-44.638-13.884-60.22 3.793s-13.883 44.639 3.794 60.221c132.483 116.78 303.021 181.213 479.625 181.213 176.606 0 347.145-64.433 479.629-181.213 17.677-15.582 19.375-42.543 3.793-60.221s-42.543-19.375-60.22-3.793c-116.898 103.041-267.371 159.894-423.202 159.894z"/>
            <glyph unicode="&#xe94a;" glyph-name="Group-2166"
                   d="M12.497 947.503c16.662 16.662 43.677 16.662 60.34 0l938.666-938.667c16.661-16.661 16.661-43.678 0-60.339s-43.678-16.661-60.339 0l-938.667 938.666c-16.662 16.663-16.662 43.678 0 60.34zM469.333 106.667c0 23.565 19.102 42.667 42.667 42.667h0.427c23.565 0 42.667-19.102 42.667-42.667s-19.102-42.667-42.667-42.667h-0.427c-23.565 0-42.667 19.102-42.667 42.667zM512.23 277.282c-44.279 0-87.462-13.777-123.558-39.424-19.21-13.645-45.846-9.139-59.494 10.074-13.647 19.209-9.138 45.845 10.071 59.49 50.534 35.904 110.989 55.194 172.98 55.194 61.986 0 122.441-19.29 172.975-55.194 19.209-13.645 23.718-40.282 10.074-59.49-13.649-19.213-40.286-23.718-59.494-10.074-36.096 25.647-79.279 39.424-123.554 39.424zM675.042 506.82c10.334 21.175 35.878 29.964 57.054 19.627 38.144-18.611 73.813-41.92 106.176-69.385 17.967-15.245 20.173-42.167 4.924-60.134-15.245-17.971-42.167-20.177-60.134-4.928-26.944 22.861-56.636 42.266-88.388 57.762-21.18 10.334-29.969 35.878-19.631 57.058zM475.977 533.713c3.977-23.224-11.627-45.278-34.85-49.259-73.817-12.646-142.969-44.612-200.424-92.651-18.078-15.117-44.986-12.715-60.101 5.363s-12.713 44.988 5.365 60.1c69.015 57.707 152.081 96.105 240.751 111.296 23.223 3.979 45.278-11.624 49.259-34.849zM300.809 714.532c8.645-21.921-2.118-46.7-24.038-55.345-68.866-27.159-132.464-66.129-187.929-115.156-17.655-15.604-44.62-13.945-60.226 3.711s-13.945 44.62 3.711 60.225c62.906 55.604 135.034 99.802 213.137 130.604 21.921 8.645 46.7-2.117 55.345-24.038zM713.869 671.332c-81.574 27.146-167.787 37.578-253.483 30.673-23.488-1.893-44.062 15.614-45.955 39.102s15.614 44.063 39.102 45.956c97.122 7.826 194.825-3.997 287.279-34.763s177.758-79.844 250.829-144.304c17.668-15.589 19.358-42.551 3.767-60.222s-42.551-19.356-60.22-3.769c-64.474 56.877-139.742 100.181-221.321 127.327z"/>
            <glyph unicode="&#xe94b;" glyph-name="Group-2167"
                   d="M477.965 745.856c6.899-1.363 13.35-4.409 18.786-8.867s9.685-10.19 12.369-16.686c2.688-6.496 3.725-13.555 3.025-20.55s-3.115-13.708-7.036-19.543c-3.917-5.836-9.22-10.612-15.428-13.905-6.212-3.293-13.137-5.001-20.169-4.971h-384.179c-23.564 0-42.667-19.103-42.667-42.667s19.103-42.667 42.667-42.667h384v42.667l-0.179-42.666c0.034 0 0.068 0 0.102 0 21.052-0.072 41.801 5.051 60.399 14.915 18.633 9.879 34.534 24.209 46.293 41.716s19.008 37.646 21.107 58.63c2.099 20.984-1.020 42.161-9.079 61.649-8.055 19.488-20.804 36.684-37.111 50.057-16.303 13.374-35.661 22.512-56.35 26.602s-42.065 3.005-62.234-3.159c-20.167-6.163-38.5-17.214-53.367-32.17-16.613-16.712-16.533-43.727 0.179-60.34s43.727-16.533 60.34 0.179c4.958 4.985 11.068 8.669 17.788 10.723 6.724 2.054 13.85 2.416 20.745 1.053zM844.326 617.431c10.313-2.057 19.959-6.624 28.092-13.296 8.128-6.673 14.485-15.245 18.513-24.96s5.598-20.273 4.574-30.739c-1.024-10.467-4.612-20.521-10.445-29.271-5.833-8.747-13.734-15.927-23.002-20.898-9.259-4.966-19.597-7.573-30.106-7.599h-746.62c-23.564 0-42.667-19.102-42.667-42.667s19.103-42.667 42.667-42.667h746.743c24.538 0.043 48.687 6.135 70.315 17.732 21.623 11.597 40.055 28.348 53.67 48.764 13.611 20.416 21.982 43.874 24.371 68.296s-1.276 49.057-10.671 71.725c-9.399 22.668-24.235 42.672-43.204 58.241-18.965 15.569-41.476 26.225-65.54 31.025s-48.943 3.595-72.431-3.508c-23.488-7.102-44.864-19.884-62.238-37.213-16.683-16.641-16.717-43.657-0.077-60.34s43.657-16.718 60.339-0.076c7.445 7.427 16.606 12.905 26.675 15.948 10.065 3.044 20.727 3.56 31.040 1.503zM597.248 320h-511.915c-23.564 0-42.667-19.102-42.667-42.667s19.103-42.667 42.667-42.667h512.179c7.031 0.030 13.956-1.677 20.169-4.971 6.208-3.294 11.511-8.068 15.428-13.905 3.921-5.837 6.336-12.548 7.036-19.541 0.7-6.997-0.337-14.054-3.025-20.553-2.684-6.494-6.933-12.228-12.369-16.687-5.436-4.454-11.887-7.501-18.786-8.866-6.895-1.361-14.020-1.003-20.745 1.054-6.72 2.052-12.83 5.739-17.788 10.722-16.614 16.713-43.627 16.794-60.339 0.179-16.713-16.61-16.794-43.627-0.179-60.339 14.869-14.955 33.199-26.005 53.367-32.171 20.169-6.161 41.545-7.249 62.234-3.157s40.047 13.227 56.35 26.603c16.307 13.372 29.056 30.566 37.111 50.057 8.060 19.49 11.179 40.666 9.079 61.649s-9.348 41.122-21.107 58.628c-11.759 17.506-27.661 31.838-46.293 41.719-18.603 9.865-39.351 14.985-60.407 14.912z"/>
            <glyph unicode="&#xe94c;" glyph-name="Group-2168"
                   d="M798.17 734.17c16.661-16.663 16.661-43.677 0-60.34l-512-512c-16.663-16.661-43.677-16.661-60.34 0s-16.662 43.678 0 60.339l512 512c16.661 16.662 43.678 16.662 60.339 0zM225.83 734.17c16.663 16.662 43.677 16.662 60.34 0l512-512c16.661-16.661 16.661-43.678 0-60.339s-43.678-16.661-60.339 0l-512 512c-16.662 16.663-16.662 43.677 0 60.34z"/>
            <glyph unicode="&#xe94d;" glyph-name="Group-2169"
                   d="M512 832c-212.077 0-384-171.923-384-384 0-212.079 171.923-384 384-384 212.079 0 384 171.921 384 384 0 212.077-171.921 384-384 384zM42.667 448c0 259.206 210.128 469.333 469.333 469.333 259.204 0 469.333-210.128 469.333-469.333 0-259.204-210.129-469.333-469.333-469.333-259.206 0-469.333 210.129-469.333 469.333zM670.17 606.17c16.661-16.663 16.661-43.677 0-60.34l-256-256c-16.663-16.661-43.677-16.661-60.34 0s-16.662 43.678 0 60.339l256 256c16.661 16.662 43.678 16.662 60.339 0zM353.83 606.17c16.663 16.662 43.677 16.662 60.34 0l256-256c16.661-16.661 16.661-43.678 0-60.339s-43.678-16.661-60.339 0l-256 256c-16.662 16.663-16.662 43.677 0 60.34z"/>
            <glyph unicode="&#xe94e;" glyph-name="Group-2170"
                   d="M305.19 904.837c8.002 8.001 18.854 12.497 30.17 12.497h353.28c11.315 0 22.17-4.495 30.17-12.497l250.027-250.027c8-8.002 12.497-18.854 12.497-30.17v-353.28c0-11.315-4.497-22.17-12.497-30.17l-250.027-250.027c-8-8-18.854-12.497-30.17-12.497h-353.28c-11.316 0-22.168 4.497-30.17 12.497l-250.027 250.027c-8.001 8-12.497 18.854-12.497 30.17v353.28c0 11.316 4.495 22.168 12.497 30.17l250.027 250.027zM353.033 832l-225.033-225.033v-317.935l225.033-225.033h317.935l225.033 225.033v317.935l-225.033 225.033h-317.935zM670.17 606.17c16.661-16.663 16.661-43.677 0-60.34l-256-256c-16.663-16.661-43.677-16.661-60.34 0s-16.662 43.678 0 60.339l256 256c16.661 16.662 43.678 16.662 60.339 0zM353.83 606.17c16.663 16.662 43.677 16.662 60.34 0l256-256c16.661-16.661 16.661-43.678 0-60.339s-43.678-16.661-60.339 0l-256 256c-16.662 16.663-16.662 43.677 0 60.34z"/>
            <glyph unicode="&#xe94f;" glyph-name="Group-2171"
                   d="M213.333 789.333c-23.564 0-42.667-19.103-42.667-42.667v-597.333c0-23.565 19.103-42.667 42.667-42.667h597.333c23.565 0 42.667 19.102 42.667 42.667v597.333c0 23.564-19.102 42.667-42.667 42.667h-597.333zM85.333 746.667c0 70.692 57.308 128 128 128h597.333c70.694 0 128-57.308 128-128v-597.333c0-70.694-57.306-128-128-128h-597.333c-70.692 0-128 57.306-128 128v597.333zM353.83 606.17c16.663 16.662 43.677 16.662 60.34 0l256-256c16.661-16.661 16.661-43.678 0-60.339s-43.678-16.661-60.339 0l-256 256c-16.662 16.663-16.662 43.677 0 60.34zM670.17 606.17c16.661-16.663 16.661-43.677 0-60.34l-256-256c-16.663-16.661-43.677-16.661-60.34 0s-16.662 43.678 0 60.339l256 256c16.661 16.662 43.678 16.662 60.339 0z"/>
            <glyph unicode="&#xe950;" glyph-name="Group-2172"
                   d="M511.979 832c0 0 0.004 0 0.004-42.667v-42.667l-3.221-0.005c-2.133-0.005-5.286-0.014-9.335-0.033-8.098-0.038-19.763-0.114-34.001-0.266-28.489-0.305-67.193-0.914-108.122-2.13-40.998-1.218-83.887-3.036-120.857-5.732-37.893-2.764-66.048-6.238-80.076-9.932-12.745-3.661-24.311-10.596-33.545-20.116-9.008-9.287-15.49-20.716-18.839-33.199-12.78-71.408-19.030-143.831-18.672-216.378l0.003-0.478c-0.457-72.841 5.745-145.57 18.536-217.276 3.696-11.849 10.243-22.618 19.076-31.36 9.255-9.161 20.709-15.787 33.261-19.243 13.966-3.712 42.2-7.202 80.256-9.98 36.97-2.697 79.859-4.514 120.857-5.73 40.929-1.216 79.633-1.826 108.122-2.133 14.238-0.149 25.903-0.226 34.001-0.265 4.049-0.021 7.202-0.030 9.335-0.034h6.443c2.133 0.004 5.286 0.013 9.335 0.034 8.094 0.038 19.763 0.115 34.001 0.265 28.489 0.307 67.191 0.917 108.122 2.133 40.998 1.216 83.887 3.034 120.858 5.73 37.892 2.765 66.048 6.238 80.073 9.933 12.745 3.661 24.311 10.594 33.549 20.117 9.007 9.284 15.488 20.715 18.837 33.195 12.681 70.869 18.931 142.737 18.671 214.729v0.422c0.457 73.092-5.79 146.074-18.671 218.024-3.349 12.483-9.83 23.912-18.837 33.199-9.131 9.411-20.54 16.296-33.109 19.989-14.502 3.412-42.765 6.557-80.243 9.053-37.047 2.467-79.996 4.128-121.015 5.242-40.96 1.111-79.689 1.668-108.194 1.946-14.246 0.139-25.92 0.209-34.022 0.243l-12.574 0.035v42.667c0 42.667-0.004 42.667-0.004 42.667l3.405-0.004c2.197-0.005 5.419-0.014 9.54-0.031 8.235-0.035 20.066-0.106 34.487-0.247 28.83-0.282 68.075-0.845 109.675-1.974 41.54-1.127 85.739-2.825 124.373-5.399 37.53-2.499 73.148-6.006 95.578-11.483 0.499-0.122 0.998-0.253 1.493-0.394 27.311-7.727 52.1-22.523 71.859-42.896 19.763-20.372 33.801-45.6 40.691-73.132l-41.391-10.36 41.988 7.574c13.99-77.556 20.787-156.238 20.305-235.043 0.265-77.628-6.528-155.119-20.305-231.514-0.166-0.939-0.367-1.869-0.597-2.79-6.891-27.533-20.928-52.762-40.691-73.135-19.759-20.369-44.548-35.166-71.859-42.893l-0.589-0.162c-22.771-6.093-58.697-9.95-96.213-12.685-38.711-2.825-82.97-4.685-124.531-5.922-41.63-1.237-80.905-1.852-109.743-2.163-14.43-0.154-26.27-0.23-34.513-0.269-4.122-0.017-7.347-0.030-9.549-0.034l-3.392-0.004-3.426 0.004c-2.202 0.004-5.427 0.017-9.549 0.034-8.243 0.038-20.083 0.115-34.513 0.269-28.843 0.311-68.112 0.926-109.743 2.163-41.562 1.237-85.82 3.098-124.53 5.922-37.517 2.735-73.444 6.592-96.213 12.685l-0.237 0.060c-26.755 7.322-51.169 21.419-70.885 40.934-19.716 19.511-34.065 43.776-41.663 70.455-0.386 1.353-0.704 2.726-0.954 4.113-13.988 77.547-20.785 156.22-20.305 235.017-0.372 78.205 6.425 156.282 20.305 233.249 0.169 0.936 0.369 1.865 0.6 2.788 6.891 27.533 20.927 52.76 40.688 73.132s44.549 35.17 71.86 42.896l0.592 0.163c22.769 6.089 58.696 9.946 96.213 12.682 38.71 2.823 82.967 4.686 124.53 5.921 41.631 1.237 80.901 1.854 109.743 2.163 14.43 0.154 26.27 0.231 34.513 0.27 4.122 0.019 7.347 0.029 9.549 0.034l3.405 0.005zM394.546 635.068c13.133 7.64 29.338 7.719 42.544 0.208l245.333-139.519c13.338-7.586 21.577-21.747 21.577-37.090s-8.239-29.504-21.577-37.086l-245.333-139.52c-13.205-7.514-29.411-7.433-42.544 0.205-13.133 7.642-21.213 21.687-21.213 36.881v279.041c0 15.194 8.080 29.241 21.213 36.881zM458.667 524.838v-132.343l116.356 66.172-116.356 66.172z"/>
            <glyph unicode="&#xe951;" glyph-name="Group-2173"
                   d="M571.657 913.803c17.374-7.542 27.699-25.636 25.348-44.431l-36.672-293.375h335.667c16.555 0 31.616-9.577 38.639-24.569s4.736-32.695-5.862-45.41l-426.667-512c-12.126-14.554-32.393-19.366-49.766-11.827-17.374 7.543-27.696 25.638-25.348 44.433l36.672 293.372h-335.667c-16.556 0-31.616 9.579-38.639 24.572s-4.737 32.691 5.861 45.41l426.667 512.001c12.126 14.551 32.393 19.366 49.766 11.824zM219.095 405.329h292.905c12.237 0 23.889-5.252 31.987-14.43 8.098-9.173 11.87-21.385 10.351-33.527l-24.614-196.928 275.183 330.219h-292.907c-12.237 0-23.885 5.257-31.987 14.43-8.098 9.178-11.866 21.389-10.351 33.531l24.619 196.928-275.185-330.223z"/>
            <glyph unicode="&#xe952;" glyph-name="Group-2174"
                   d="M625.502 533.333c0 23.564 19.102 42.667 42.667 42.667h227.84c16.563 0 31.629-9.586 38.647-24.589 7.014-15.003 4.719-32.713-5.901-45.427l-103.68-124.16c-15.104-18.086-42.010-20.506-60.096-5.402s-20.506 42.010-5.402 60.1l45.214 54.144h-136.623c-23.565 0-42.667 19.102-42.667 42.667zM368.649 651.443c18.102-15.086 20.548-41.99 5.463-60.092l-155.016-186.018h292.905c12.237 0 23.889-5.257 31.987-14.43 8.098-9.178 11.87-21.385 10.351-33.532l-24.614-196.928 120.166 144.205c15.087 18.099 41.988 20.548 60.092 5.461s20.548-41.988 5.461-60.092l-213.333-256c-12.126-14.549-32.393-19.366-49.766-11.823-17.374 7.539-27.696 25.634-25.348 44.429l36.672 293.376h-335.667c-16.556 0-31.616 9.574-38.639 24.567s-4.737 32.695 5.861 45.414l213.333 255.998c15.086 18.103 41.99 20.548 60.092 5.463zM571.644 913.815c17.378-7.529 27.712-25.614 25.378-44.41l-25.173-202.667c-2.906-23.384-24.218-39.987-47.599-37.082-23.386 2.905-39.987 24.216-37.082 47.601l7.236 58.275-10.607-12.747c-15.074-18.113-41.975-20.577-60.089-5.504s-20.576 41.976-5.503 60.088l103.68 124.587c12.113 14.558 32.375 19.387 49.758 11.858zM12.497 947.503c16.662 16.662 43.677 16.662 60.34 0l938.666-938.667c16.661-16.661 16.661-43.678 0-60.339s-43.678-16.661-60.339 0l-938.667 938.666c-16.662 16.663-16.662 43.678 0 60.34z"/>
            <glyph unicode="&#xe953;" glyph-name="Group-2175"
                   d="M469.333 789.333c-164.949 0-298.667-133.718-298.667-298.667s133.718-298.667 298.667-298.667c164.949 0 298.667 133.717 298.667 298.667s-133.717 298.667-298.667 298.667zM85.333 490.667c0 212.077 171.923 384 384 384 212.079 0 384-171.923 384-384 0-212.079-171.921-384-384-384-212.077 0-384 171.921-384 384zM680.247 279.77c16.661 16.661 43.678 16.661 60.339 0l185.6-185.6c16.661-16.661 16.661-43.678 0-60.339-16.661-16.666-43.678-16.666-60.339 0l-185.6 185.6c-16.661 16.661-16.661 43.678 0 60.339zM469.333 661.333c23.565 0 42.667-19.103 42.667-42.667v-256c0-23.565-19.102-42.667-42.667-42.667s-42.667 19.102-42.667 42.667v256c0 23.564 19.102 42.667 42.667 42.667zM298.667 490.667c0 23.565 19.103 42.667 42.667 42.667h256c23.565 0 42.667-19.102 42.667-42.667s-19.102-42.667-42.667-42.667h-256c-23.564 0-42.667 19.102-42.667 42.667z"/>
            </font>
</defs>
</svg>
